<?xml version="1.0" encoding="UTF-8"?>
<svg width="405px" height="316px" viewBox="0 0 405 316" version="1.1" xmlns="http://www.w3.org/2000/svg" xmlns:xlink="http://www.w3.org/1999/xlink">
    <!-- Generator: Sketch 48.2 (47327) - http://www.bohemiancoding.com/sketch -->
    <title>bt logo</title>
    <desc>Created with Sketch.</desc>
    <defs>
        <polygon id="path-1" points="94.7190955 0.0568962264 0.83085149 0.0568962264 0.83085149 162.214986 94.7190955 162.214986 94.7190955 0.0568962264"></polygon>
    </defs>
    <g id="Big-Trouble---on-logo-click" stroke="none" stroke-width="1" fill="none" fill-rule="evenodd" transform="translate(-100.000000, -500.000000)">
        <g id="bt-logo" transform="translate(100.000000, 500.000000)">
            <path d="M139.780682,45.8990688 C140.059037,45.9668819 140.33588,46 140.609697,46 C142.245036,46 143.726069,44.8329828 144.117885,43.1013817 L144.903029,39.622409 C145.359895,37.6006306 144.15873,35.5772752 142.219318,35.101006 C140.281419,34.6247369 138.337469,35.8784918 137.882115,37.8986931 L137.096971,41.3776659 C136.640105,43.3994442 137.84127,45.4227996 139.780682,45.8990688" id="Fill-1" fill="#E283A2"></path>
            <path d="M159.091912,97.9645145 L168.336165,52.6265843 L182.734363,50.166041 L176.242051,83.3995123 L159.091912,97.9645145 Z M124.567548,176.185508 L124.570618,176.185508 L124.573688,176.185508 L164.620353,168.91607 C166.102994,168.645579 167.269462,167.494457 167.559544,166.012906 L190.934935,46.3653393 C190.93954,46.3392123 190.941075,46.3130854 190.945679,46.2854216 C190.959492,46.2101145 190.970236,46.1332705 190.97791,46.0564266 C190.98405,46.0041727 190.987119,45.9534557 190.991724,45.9027387 C190.996328,45.8366529 190.999398,45.772104 190.999398,45.7060182 C191.000933,45.6414693 190.999398,45.5753835 190.996328,45.5108345 C190.993259,45.4585807 190.991724,45.4078636 190.987119,45.3556098 C190.98098,45.2787658 190.971771,45.2019219 190.959492,45.1250779 C190.954888,45.098951 190.954888,45.0712871 190.950283,45.0451602 C190.947214,45.0282545 190.941075,45.0128857 190.93954,44.9959801 C190.924191,44.9191361 190.907308,44.8438291 190.887356,44.7669851 C190.876612,44.7208787 190.865868,44.6763092 190.852055,44.6317398 C190.833637,44.5671908 190.812149,44.5026419 190.789127,44.4396299 C190.770709,44.3858391 190.750756,44.3320484 190.730803,44.2797945 C190.709316,44.2290775 190.686293,44.1798973 190.663271,44.1307172 C190.635644,44.069242 190.608017,44.0093038 190.577321,43.9493655 C190.555833,43.9094066 190.531276,43.8694478 190.508254,43.8294889 C190.471418,43.7664769 190.434582,43.7034648 190.396211,43.6435266 C190.370119,43.6051046 190.344027,43.5697564 190.317935,43.5344082 C190.276495,43.4760068 190.235055,43.4160685 190.18901,43.3607408 C190.158314,43.3223189 190.123013,43.2854338 190.090781,43.2470118 C190.047806,43.1978317 190.004831,43.1486515 189.958786,43.1025452 C189.917346,43.0595125 189.874371,43.0195537 189.829861,42.9795948 C189.788421,42.9411729 189.748515,42.901214 189.70554,42.8658658 C189.656426,42.8228332 189.602707,42.7844112 189.550523,42.7429155 C189.509082,42.7121779 189.470712,42.6814403 189.429271,42.6522396 C189.374018,42.6138176 189.317229,42.5800063 189.260441,42.5446581 C189.215931,42.5169943 189.171421,42.4893304 189.125376,42.4632035 C189.073192,42.4340028 189.019473,42.4078759 188.965754,42.380212 C188.9105,42.3540851 188.855247,42.3264213 188.798458,42.3018312 C188.753948,42.2818518 188.706369,42.2649461 188.660324,42.2465036 C188.589722,42.2203766 188.520655,42.1927128 188.448518,42.1711965 C188.411682,42.1589015 188.373312,42.1496802 188.334941,42.1373852 C188.253595,42.114332 188.170715,42.0928157 188.087834,42.07591 C188.072486,42.0728362 188.060207,42.0682256 188.046394,42.0651518 C188.023371,42.0605412 188.000349,42.0605412 187.977327,42.0559306 C187.895981,42.0420987 187.8131,42.0282667 187.73022,42.0205824 C187.684175,42.0159717 187.63813,42.012898 187.590551,42.0082873 C187.521483,42.0036767 187.452416,42.0006029 187.383349,42.0006029 C187.320421,41.999066 187.259028,42.0006029 187.1961,42.0036767 C187.142382,42.0052136 187.090197,42.0082873 187.036479,42.012898 C186.958202,42.0190455 186.881461,42.0282667 186.80472,42.0405618 C186.780163,42.0451724 186.754071,42.0451724 186.727979,42.0497831 L164.637236,45.8243579 C163.148455,46.0779429 161.969709,47.2213809 161.667349,48.7029322 L155.59251,78.4922577 C155.439027,78.5967654 155.290149,78.7120314 155.15048,78.844203 L130.419838,102.10333 L139.949569,55.3653026 C140.354763,53.3827287 139.076253,51.4477981 137.096328,51.042062 C135.116403,50.6378629 133.184058,51.9165462 132.778864,53.8991201 L120.94536,111.934745 C120.626116,113.499287 121.355159,115.089957 122.747245,115.867618 C123.305922,116.181141 123.919852,116.333292 124.529178,116.333292 C125.439329,116.333292 126.340272,115.993642 127.035548,115.338931 L153.072326,90.8518385 L149.804683,106.878413 C149.493113,108.409144 150.183785,109.969076 151.526757,110.76518 C152.103851,111.106367 152.748478,111.275423 153.390035,111.275423 C154.237259,111.275423 155.079878,110.980343 155.756736,110.40555 L173.991997,94.9199572 L160.855426,162.150729 L123.275225,168.972934 L3.01397757,190.58299 C1.0248438,190.941083 -0.298175736,192.845276 0.0579037665,194.837071 C0.375612633,196.610629 1.9181122,197.853964 3.65706943,197.853964 C3.87041017,197.853964 4.08835538,197.835522 4.30630059,197.795563 L56.8065397,188.3622 L31.6906562,311.601452 C31.2854622,313.585563 32.5639718,315.520494 34.5438967,315.924693 C34.7910036,315.97541 35.0365756,316 35.2806129,316 C36.9827343,316 38.5083508,314.802771 38.8613606,313.067635 L64.5604779,186.969787 L124.567548,176.185508 Z" id="Fill-3" fill="#E283A2"></path>
            <path d="M243.190853,239.119002 L230.188596,241.445989 L237.859989,204.169483 L253.777129,191.74501 L243.190853,239.119002 Z M136.892322,207.603678 L152.367533,204.988324 L141.668849,256.951522 L125.497639,260.137443 L136.892322,207.603678 Z M83.4404809,229.15876 L99.4607889,217.944812 L96.3734458,233.584506 L80.6688013,242.732077 L83.4404809,229.15876 Z M299.395895,145.680236 L318.728361,142.292304 L295.226058,165.978529 L299.395895,145.680236 Z M329.522513,174.105249 L344.458786,171.488352 L326.821665,187.353189 L329.522513,174.105249 Z M404.941454,214.001734 C404.584215,212.003209 402.674836,210.673943 400.679227,211.033246 L318.999369,225.718397 L324.35333,199.455369 L358.888458,168.391872 C360.106457,167.295459 360.452917,165.523618 359.7369,164.049397 C359.020883,162.573634 357.417928,161.753252 355.802655,162.035451 L325.793064,167.293917 C324.307136,167.554527 323.130712,168.700286 322.828907,170.180675 L317.645866,195.6079 L282.673429,227.066168 L292.52213,179.133945 L332.081697,139.268301 C333.207307,138.131794 333.470616,136.395421 332.731502,134.975173 C331.992387,133.554924 330.420229,132.779262 328.843451,133.055293 L295.671066,138.868904 C294.186678,139.129514 293.011794,140.270648 292.708449,141.749495 L285.771551,175.50545 L258.8724,202.615075 L263.177742,183.345344 C263.516503,181.829487 262.869778,180.264284 261.55939,179.434649 C260.250541,178.605015 258.561356,178.688286 257.338737,179.641287 L240.145085,193.063481 L248.537115,152.280304 C248.946708,150.292573 247.668655,148.348021 245.683825,147.939372 C243.697454,147.52918 241.755739,148.8091 241.346146,150.796831 L228.057483,215.374178 C227.917359,215.474413 227.780315,215.579274 227.65097,215.701098 L200.901182,240.938647 L211.570608,192.651748 C212.009458,190.670186 210.759122,188.707128 208.780451,188.267637 C206.80178,187.828147 204.840047,189.080309 204.402737,191.063414 L191.711524,248.488632 L177.009304,251.208846 L188.813579,196.556274 C189.24319,194.571628 187.983615,192.614738 186.001864,192.186042 C184.020113,191.755804 182.066079,193.017219 181.638009,195.001866 L175.061429,225.446992 L150.781516,249.102376 L160.642536,201.211789 C160.885828,200.022852 160.530129,198.790736 159.687846,197.917924 C158.848643,197.043569 157.630644,196.64263 156.435742,196.844642 L133.221386,200.766131 C131.741617,201.015946 130.562113,202.143201 130.24491,203.611253 L118.003325,260.051087 L84.5614713,248.9713 L101.499513,239.105124 C102.411088,238.573109 103.050114,237.675623 103.25491,236.639351 L108.431792,210.414875 C108.722818,208.942196 108.091491,207.44176 106.836536,206.621378 C105.581581,205.802538 103.955529,205.828753 102.726751,206.687687 L85.5792936,218.691175 L86.5309036,214.029492 C86.9374166,212.040219 85.6562847,210.09875 83.6699144,209.691643 C81.683544,209.282994 79.7449081,210.565998 79.3383951,212.555271 L67.0752528,272.58659 C66.6687398,274.575863 67.9498717,276.517331 69.936242,276.924438 C70.1841534,276.975327 70.4320647,277 70.6753566,277 C72.3830192,277 73.9120624,275.800268 74.2677613,274.059269 L78.2389622,254.621452 L119.570864,268.315051 C119.586262,268.321219 119.601661,268.324303 119.617059,268.328929 C119.650935,268.339724 119.684811,268.348976 119.718687,268.358229 C119.797218,268.379818 119.874209,268.399865 119.9512,268.416827 L120.049749,268.436874 C120.137519,268.452295 120.225288,268.466174 120.311518,268.476968 C120.334616,268.47851 120.357713,268.483137 120.38081,268.484679 C120.496297,268.495473 120.610244,268.503184 120.724191,268.503184 C120.838138,268.503184 120.950545,268.495473 121.062952,268.484679 C121.081429,268.483137 121.098367,268.481595 121.118385,268.47851 C121.209235,268.469258 121.300084,268.455379 121.390934,268.438416 C121.404792,268.435332 121.41865,268.435332 121.432509,268.432248 L145.453732,263.699629 C145.459891,263.698087 145.464511,263.698087 145.47067,263.696545 L145.479909,263.695003 C145.576918,263.674956 145.673926,263.651825 145.767856,263.62561 C145.807891,263.613273 145.847926,263.599395 145.887962,263.587058 C145.948015,263.568553 146.008068,263.548506 146.066581,263.525375 C146.109696,263.509955 146.152811,263.492992 146.195926,263.474487 C146.2529,263.449814 146.309873,263.423598 146.368386,263.395841 C146.406882,263.377336 146.443837,263.360374 146.482333,263.340327 C146.570103,263.292522 146.657873,263.243176 146.741023,263.189204 C146.7672,263.173783 146.791837,263.153736 146.819554,263.136773 C146.884227,263.092053 146.948899,263.047333 147.012032,262.997987 C147.039749,262.976398 147.067465,262.954809 147.093642,262.931678 C147.164474,262.874621 147.232226,262.81448 147.298439,262.752797 C147.309217,262.742003 147.319996,262.73275 147.332315,262.721956 L172.254334,238.440491 L168.672708,255.019306 C168.643451,255.14884 168.621894,255.279916 168.606495,255.414077 C168.603416,255.448002 168.603416,255.481928 168.600336,255.515853 C168.592637,255.600667 168.584938,255.687023 168.583398,255.773379 C168.583398,255.855109 168.588017,255.935297 168.592637,256.017027 C168.594177,256.054037 168.592637,256.092588 168.595717,256.13114 C168.611115,256.320815 168.644991,256.505864 168.689646,256.687828 C168.700424,256.737174 168.711203,256.786521 168.725062,256.834325 C168.73738,256.880587 168.754318,256.923765 168.768177,256.968485 C168.789734,257.036336 168.811292,257.102646 168.837469,257.168955 C168.849787,257.20288 168.865185,257.235264 168.880584,257.269189 C168.91138,257.341667 168.943716,257.415686 168.979132,257.486621 C168.99453,257.514379 169.009929,257.542136 169.025327,257.571435 C169.063822,257.643913 169.105398,257.714848 169.148513,257.784241 C169.166991,257.813541 169.185468,257.841298 169.203946,257.869055 C169.247061,257.933822 169.293256,257.998589 169.34099,258.060272 C169.364088,258.091114 169.387185,258.120413 169.410282,258.149712 C169.456477,258.205227 169.504212,258.260742 169.553486,258.313172 C169.582742,258.345556 169.611999,258.377939 169.642796,258.40878 C169.68899,258.456585 169.736725,258.499763 169.784459,258.544483 C169.821415,258.576866 169.856831,258.610792 169.895326,258.643175 C169.941521,258.681727 169.987716,258.717195 170.03699,258.752663 C170.078565,258.785046 170.12014,258.818972 170.164795,258.849813 C170.237167,258.900701 170.312618,258.946964 170.389609,258.991684 C170.441963,259.024067 170.497397,259.053367 170.551291,259.081124 C170.612883,259.113507 170.676016,259.147433 170.739149,259.17519 C170.779184,259.193695 170.81922,259.207574 170.857715,259.224537 C170.928547,259.253836 170.999379,259.281593 171.07175,259.306266 C171.107166,259.318603 171.141042,259.329397 171.177998,259.340192 C171.259609,259.364865 171.341219,259.387996 171.425909,259.406501 C171.442847,259.411127 171.461325,259.417296 171.478263,259.421922 C171.492122,259.423464 171.50444,259.425006 171.518299,259.42809 C171.618387,259.448137 171.718476,259.463558 171.820104,259.475894 C171.843201,259.478978 171.864759,259.483605 171.887856,259.485147 C172.006422,259.497483 172.128068,259.505194 172.251254,259.505194 L172.254334,259.505194 L172.258953,259.505194 C172.480687,259.505194 172.700882,259.483605 172.914917,259.443511 L172.922616,259.443511 L195.283911,255.30459 C196.056902,255.224402 196.808335,254.900567 197.416565,254.326916 L225.492139,227.840288 L222.146106,244.098353 C221.670301,244.8478 221.460885,245.768417 221.628726,246.712165 C221.947469,248.493258 223.49345,249.742336 225.238068,249.742336 C225.452104,249.742336 225.670758,249.723831 225.889413,249.685279 L246.884886,245.92725 C248.341558,245.66664 249.499504,244.556348 249.822866,243.111427 L255.868207,216.057316 C255.925181,216.006428 255.982154,215.957082 256.036048,215.903109 L283.067623,188.660866 L273.23432,236.522153 C272.914037,238.076562 273.626974,239.661812 275.002036,240.451353 C275.57177,240.779814 276.201557,240.940189 276.828264,240.940189 C277.713662,240.940189 278.591361,240.619438 279.282741,239.997983 L315.177531,207.710081 L310.722826,229.558156 C310.479534,230.753262 310.842932,231.990004 311.692914,232.862816 C312.544435,233.735629 313.770134,234.128857 314.968115,233.912967 L401.977297,218.270189 C403.972906,217.910887 405.300232,216.00026 404.941454,214.001734 Z" id="Fill-5" fill="#E283A2"></path>
            <g id="Group-9" transform="translate(34.000000, 0.000000)">
                <mask id="mask-2" fill="white">
                    <use xlink:href="#path-1"></use>
                </mask>
                <g id="Clip-8"></g>
                <path d="M57.6205645,150.439005 L37.3487903,153.998863 L51.3689516,83.5121274 L68.1870161,98.5065896 L57.6205645,150.439005 Z M5.13,22.9284104 L86.5465323,8.26148585 L77.1415323,54.4904387 L54.2725806,68.9144009 L61.9001613,30.5648066 C62.2954839,28.5795896 61.0114516,26.6481934 59.0333065,26.2514575 C57.0551613,25.8562594 55.1306452,27.1433443 54.7353226,29.1300991 L29.2799194,157.106627 C28.8233065,158.178429 28.8953226,159.428608 29.5189516,160.455816 C30.1900806,161.55991 31.3791129,162.214986 32.638629,162.214986 C32.8470161,162.214986 33.0584677,162.196533 33.2683871,162.159627 L61.3316935,157.231184 C62.8118548,156.971307 63.9809677,155.828769 64.2812903,154.352542 L75.7655645,97.9022594 C76.0260484,96.6213255 75.5878226,95.2973349 74.6133065,94.4300519 L55.1153226,77.0444104 L82.3527419,59.8632877 C83.1970161,59.3296934 83.7884677,58.4731745 83.9876613,57.4920991 L94.6154032,5.25213679 C94.6552419,5.05684434 94.6797581,4.85693868 94.6858871,4.65549528 L94.7165323,3.85741038 C94.7579032,2.75024057 94.2966935,1.68151415 93.4616129,0.954165094 C92.6265323,0.225278302 91.5079839,-0.0822688679 90.4200806,0.113023585 L3.83830645,15.711816 C1.8525,16.0701085 0.533225806,17.9753632 0.888709677,19.9682689 C1.24572581,21.9611745 3.14419355,23.2867028 5.13,22.9284104 Z" id="Fill-7" fill="#E283A2" mask="url(#mask-2)"></path>
            </g>
        </g>
    </g>
</svg>