<svg xmlns="http://www.w3.org/2000/svg" viewBox="0 0 203.05 18.54"><title>Asset 1</title><g id="Layer_2" data-name="Layer 2"><g id="Layer_1-2" data-name="Layer 1"><path d="M8.27,18.48l-.17,0a.66.66,0,0,1-.59-.58L6.8,14.74H1.91L1.2,17.93a.66.66,0,0,1-.59.58l-.17,0a.87.87,0,0,1-.41-1L3.77.6a.15.15,0,0,1,0-.07A.39.39,0,0,1,3.86.38.41.41,0,0,1,3.93.27L4,.16l.1-.07.06,0h.35l.06,0,.1.07.1.11.06.11a.34.34,0,0,1,.06.15.15.15,0,0,1,0,.07L8.68,17.47A.87.87,0,0,1,8.27,18.48ZM6.44,13.11,4.35,3.71l-2.08,9.4Z"/><path d="M33.86,17.58c0,.46-.28.82-.61.82H27.47a.52.52,0,0,1-.43-.24L25.42,16a1,1,0,0,1-.17-.57V3.09a1,1,0,0,1,.17-.57L27,.37a.52.52,0,0,1,.43-.24h5.78a.74.74,0,0,1,.61.81c0,.45-.28.82-.61.82H27.72L26.47,3.43V15.1l1.25,1.67h5.53A.74.74,0,0,1,33.86,17.58Z"/><path d="M48.82,3.14V1.75H42.76V9.11H47.1c.35,0,.63.38.63.84s-.28.85-.63.85H42.76v6h6.67c.34,0,.61.37.61.82s-.27.81-.61.81H42.15a.73.73,0,0,1-.62-.81V10.09c0-.05,0-.09,0-.14s0-.09,0-.14V.93c0-.45.28-.82.62-.82h7.28c.34,0,.61.37.61.82V3.14c0,.45-.27.82-.61.82S48.82,3.59,48.82,3.14Z"/><path d="M65,17.58c0,.45-.28.82-.61.82H59.94a.57.57,0,0,1-.44-.24L57.89,16a1,1,0,0,1-.18-.57V.82c0-.45.28-.82.61-.82s.62.37.62.82V15.1l1.25,1.67h4.23A.74.74,0,0,1,65,17.58Z"/><path d="M80,3.14V1.75H73.94V9.11h4.34a.77.77,0,0,1,.64.84c0,.47-.29.85-.64.85H73.94v6h6.67c.34,0,.61.37.61.82s-.27.81-.61.81H73.33c-.34,0-.61-.36-.61-.81V10.09a.5.5,0,0,1,0-.28V.93c0-.45.27-.82.61-.82h7.28c.34,0,.61.37.61.82V3.14c0,.45-.27.82-.61.82S80,3.59,80,3.14Z"/><path d="M96.65,11.44v4.1a1,1,0,0,1-.18.57l-1.61,2.15a.54.54,0,0,1-.44.24H89.51c-.34,0-.61-.37-.61-.81V.84c0-.45.27-.81.61-.81h3.82a.55.55,0,0,1,.44.24l1.61,2.14a1,1,0,0,1,.18.58V7.08a1,1,0,0,1-.18.58l-.69.91a.8.8,0,0,1,.17.15l1.61,2.15A.92.92,0,0,1,96.65,11.44Zm-1.23.34-1.25-1.67h-4v6.76h4l1.25-1.67Zm-5.3-3.37h3l1.25-1.67V3.33L93.08,1.66h-3Z"/><path d="M112.23,11.68v6c0,.45-.27.82-.61.82s-.61-.37-.61-.82V12l-1.4-1.86h-4.06v7.57c0,.45-.27.82-.61.82s-.61-.37-.61-.82V.94c0-.45.27-.81.61-.81h4.92a.52.52,0,0,1,.43.24l1.61,2.15a.92.92,0,0,1,.18.57V7.18a.93.93,0,0,1-.18.58l-1.17,1.57,1.32,1.77A.93.93,0,0,1,112.23,11.68Zm-6.67-3.16h4l1.25-1.67V3.43l-1.25-1.67h-4Z"/><path d="M128.17,18.48a.51.51,0,0,1-.17,0,.66.66,0,0,1-.59-.58l-.71-3.19h-4.89l-.71,3.19a.66.66,0,0,1-.59.58l-.17,0a.88.88,0,0,1-.41-1L123.67.6l0-.07a.39.39,0,0,1,.06-.15.41.41,0,0,1,.07-.11l.09-.11.1-.07.06,0h.35l.06,0,.1.07.1.11.06.11a.34.34,0,0,1,.06.15.15.15,0,0,1,0,.07l3.75,16.87A.88.88,0,0,1,128.17,18.48Zm-1.83-5.37-2.08-9.4-2.09,9.4Z"/><path d="M145.11,3c0,.46-.27.84-.61.84h0c-.34,0-.61-.36-.62-.81V1.68h-2.61v16c0,.46-.28.83-.62.83s-.62-.37-.62-.83v-16h-2.47l0,1.36a.73.73,0,0,1-.62.81h0c-.34,0-.61-.38-.61-.84l0-2.17c0-.45.29-.82.62-.82h7.55a.55.55,0,0,1,.24.07l.07.06a1.31,1.31,0,0,1,.12.11s0,.08.06.11a.8.8,0,0,1,.08.16s0,.08,0,.13a1,1,0,0,1,0,.18Z"/><path d="M160.6,17.68c0,.45-.28.82-.62.82h-6.59c-.34,0-.62-.37-.62-.82s.28-.83.62-.83h2.76V1.68h-2.76c-.34,0-.62-.37-.62-.83s.28-.82.62-.82H160c.34,0,.62.36.62.82s-.28.83-.62.83h-2.59V16.85H160C160.32,16.85,160.6,17.22,160.6,17.68Z"/><path d="M177,6V17.69c0,.45-.27.82-.61.82h-4.52a.46.46,0,0,1-.25-.08l-.05,0a.56.56,0,0,1-.16-.18l0,0-2.93-5.08a.41.41,0,0,1,0-.08,1.22,1.22,0,0,1-.07-.17s0-.1,0-.15,0-.07,0-.11V.87c0-.46.27-.82.61-.82h4.52a.57.57,0,0,1,.49.32l2.94,5.08A1,1,0,0,1,177,6Zm-1.23,10.91V6.23L173.1,1.69h-3.59V12.32l2.63,4.54Z"/><path d="M193.25.94V17.7c0,.45-.28.82-.62.82s-.61-.37-.61-.82V10.79l-6.16-7.93V17.7c0,.45-.28.82-.61.82s-.62-.37-.62-.82V1s0-.07,0-.11a1.38,1.38,0,0,1,0-.2.51.51,0,0,1,.09-.18.2.2,0,0,1,0-.08h0A.48.48,0,0,1,185,.21l0,0,.07,0a.42.42,0,0,1,.16,0h0l.09,0,.13,0,.14.11a.34.34,0,0,1,.06.06h0L192,8.52V.94a.64.64,0,1,1,1.23,0Z"/><path d="M203.05,16.44v1.23c0,.45-.28.82-.62.82h-.92c-.34,0-.61-.37-.61-.82V16.44c0-.45.27-.81.61-.81h.92C202.77,15.63,203,16,203.05,16.44Z"/></g></g></svg>