<?xml version="1.0" encoding="utf-8"?>
<!-- Generator: Adobe Illustrator 16.0.0, SVG Export Plug-In . SVG Version: 6.00 Build 0)  -->
<!DOCTYPE svg PUBLIC "-//W3C//DTD SVG 1.1//EN" "http://www.w3.org/Graphics/SVG/1.1/DTD/svg11.dtd">
<svg version="1.1" id="Layer_1" xmlns="http://www.w3.org/2000/svg" xmlns:xlink="http://www.w3.org/1999/xlink" x="0px" y="0px"
	 width="660px" height="630px" viewBox="0 0 660 630" enable-background="new 0 0 660 630" xml:space="preserve">
<g>
	<g>
		<path fill="#EEE7DB" d="M94.69,8.712c-8.668,0-15.688,7.021-15.688,15.682v31.361v329.311
			c0,138.568,94.125,235.221,250.998,235.221c156.873,0,250.996-96.652,250.996-235.221V24.394c0-8.661-7.022-15.682-15.687-15.682
			H126.062H94.69z"/>
	</g>
	<path fill="#E23219" d="M651.283,279.845c0,6.122-5.011,11.132-11.137,11.132H19.854c-6.126,0-11.137-5.011-11.137-11.132V160.978
		c0-6.124,5.011-11.133,11.137-11.133h620.293c6.126,0,11.137,5.009,11.137,11.133V279.845z"/>
	<g>
		<g>
			<path fill="#E23219" d="M285.238,464.061c0,0,0.614,0.045,1.778,0.123c1.362,0.086,2.914,0.361,5.015,0.711
				c2.025,0.457,4.497,0.967,7.196,1.875c2.755,0.756,5.675,2.061,8.869,3.395c3.091,1.543,6.469,3.15,9.729,5.35
				c3.424,1.945,6.557,4.641,9.948,7.188c1.621,1.359,3.139,2.889,4.74,4.355c1.572,1.49,3.227,2.939,4.616,4.658
				c2.883,3.332,5.957,6.578,8.401,10.299l3.86,5.398c1.232,1.826,2.247,3.771,3.364,5.631c1.089,1.871,2.168,3.729,3.233,5.566
				c1.079,1.826,1.838,3.785,2.747,5.625c1.665,3.754,3.585,7.242,4.839,10.777c1.293,3.512,2.519,6.834,3.649,9.896
				c1.218,3.033,1.964,5.928,2.683,8.475c0.722,2.541,1.348,4.758,1.862,6.584c1.03,3.646,1.616,5.729,1.616,5.729
				c0.238,0.854-0.255,1.744-1.11,1.986c-0.822,0.232-1.675-0.217-1.954-1.008l-0.04-0.115c0,0-0.715-2.014-1.965-5.541
				c-0.623-1.758-1.382-3.896-2.25-6.346c-0.867-2.445-1.777-5.234-3.166-8.117c-1.294-2.91-2.696-6.062-4.181-9.398
				c-1.436-3.354-3.52-6.596-5.352-10.1c-0.994-1.711-1.835-3.551-2.982-5.227c-1.13-1.682-2.277-3.385-3.432-5.1
				c-1.177-1.695-2.254-3.484-3.533-5.127l-3.963-4.836c-2.506-3.348-5.569-6.154-8.415-9.051c-1.377-1.506-2.983-2.721-4.508-3.984
				c-1.545-1.236-3.003-2.545-4.548-3.672c-3.206-2.076-6.149-4.324-9.287-5.826c-3.003-1.766-6.047-2.949-8.797-4.127
				c-2.825-0.949-5.399-1.928-7.741-2.391c-2.329-0.625-4.357-0.891-6.025-1.162c-1.627-0.158-3.01-0.307-3.664-0.287
				c-0.653-0.037-1.334-0.006-1.308-0.01l-0.098,0.004c-3.374,0.135-6.22-2.484-6.356-5.857c-0.137-3.373,2.485-6.213,5.859-6.352
				C284.789,464.045,285.021,464.049,285.238,464.061z"/>
		</g>
		<g>
			<path fill="#E23219" d="M309.962,506.686c0,0,0.5,0.162,1.444,0.473c1.126,0.367,2.311,0.895,3.955,1.619
				c1.572,0.768,3.466,1.697,5.485,2.943c2.089,1.156,4.217,2.748,6.559,4.426c2.248,1.795,4.691,3.715,6.992,6.033
				c2.448,2.166,4.61,4.828,6.973,7.436c2.145,2.777,4.419,5.611,6.394,8.688c1.896,3.127,4.03,6.17,5.591,9.52
				c1.695,3.273,3.41,6.523,4.67,9.906c1.362,3.338,2.805,6.566,3.738,9.857c0.997,3.26,2.134,6.357,2.894,9.377
				c0.722,3.023,1.402,5.883,2.029,8.52c0.693,2.621,1.089,5.07,1.423,7.242c0.348,2.164,0.66,4.053,0.912,5.607
				c0.504,3.105,0.794,4.877,0.794,4.877c0.125,0.781-0.406,1.516-1.182,1.641c-0.742,0.121-1.443-0.35-1.621-1.061l-0.024-0.102
				c0,0-0.425-1.723-1.174-4.734c-0.374-1.5-0.823-3.328-1.344-5.422c-0.498-2.096-1.079-4.453-1.965-6.951
				c-0.821-2.512-1.709-5.23-2.646-8.109c-0.977-2.859-2.318-5.752-3.53-8.803c-1.145-3.078-2.785-6.045-4.331-9.104
				c-1.45-3.107-3.329-6.029-5.153-8.959c-1.705-3.018-3.933-5.654-5.896-8.391c-2.043-2.676-4.331-5.07-6.458-7.424
				c-2.326-2.158-4.429-4.387-6.744-6.102c-2.186-1.881-4.453-3.355-6.502-4.748c-2.117-1.254-4.035-2.479-5.835-3.273
				c-1.763-0.904-3.335-1.506-4.624-2.016c-1.248-0.43-2.348-0.809-2.828-0.904c-0.665-0.158-1.019-0.248-1.019-0.248l-0.34-0.082
				c-3.28-0.801-5.284-4.107-4.481-7.385c0.796-3.277,4.106-5.281,7.381-4.48C309.656,506.59,309.815,506.639,309.962,506.686z"/>
		</g>
		<g>
			<path fill="#E23219" d="M314.871,543.078c0,0,0.293,0.078,0.845,0.225c0.718,0.184,1.388,0.434,2.356,0.775
				c1.841,0.701,4.299,1.852,7.039,3.455c1.324,0.867,2.805,1.73,4.209,2.834c1.463,1.031,2.885,2.242,4.333,3.508
				c1.452,1.254,2.801,2.703,4.217,4.105c1.28,1.52,2.684,2.971,3.867,4.58c1.165,1.631,2.469,3.141,3.46,4.824
				c1.01,1.666,2.138,3.211,2.968,4.857c0.865,1.617,1.695,3.178,2.486,4.662c0.68,1.525,1.32,2.967,1.92,4.299
				c1.252,2.615,1.899,4.965,2.525,6.52c0.575,1.58,0.905,2.48,0.905,2.48c0.245,0.684-0.108,1.436-0.789,1.686
				c-0.62,0.225-1.294-0.041-1.601-0.6l-0.044-0.078c0,0-0.457-0.82-1.25-2.256c-0.851-1.406-1.812-3.541-3.404-5.836
				c-0.755-1.166-1.579-2.428-2.444-3.76c-0.953-1.26-1.96-2.592-3.002-3.967c-1.005-1.395-2.274-2.646-3.426-4.008
				c-1.13-1.389-2.539-2.549-3.785-3.836c-1.279-1.258-2.724-2.328-4.034-3.473c-1.423-1.012-2.76-2.074-4.157-2.928
				c-1.389-0.869-2.727-1.693-4.058-2.334c-1.286-0.725-2.583-1.205-3.73-1.736c-2.355-0.898-4.316-1.457-5.641-1.725
				c-0.627-0.107-1.208-0.223-1.365-0.209c-0.313-0.031-0.483-0.047-0.483-0.047l-0.088-0.01c-3.367-0.33-5.828-3.326-5.5-6.688
				c0.333-3.365,3.328-5.826,6.692-5.5C314.217,542.936,314.564,543,314.871,543.078z"/>
		</g>
	</g>
	<g>
		<path fill="#E23219" d="M128.771,358.85l-22.455,33.756c-0.416,0.619-0.387,1.436,0.063,2.041c0.451,0.619,1.232,0.859,1.95,0.652
			l59.448-14.727v16.867c0,0.725,0.461,1.449,1.172,1.695c0.727,0.254,1.562,0,2.013-0.59l30.793-38.582
			c0.528-0.641,0.528-1.557,0-2.211l-30.793-38.596c-0.353-0.408-0.859-0.662-1.397-0.662c-0.215,0-0.401,0.049-0.616,0.113
			c-0.711,0.246-1.172,0.908-1.172,1.668v16.873l-59.448-14.707c-0.718-0.232-1.5,0.021-1.95,0.648
			c-0.45,0.576-0.479,1.422-0.063,2.041L128.771,358.85z"/>
	</g>
	<g>
		<g>
			<path fill="#E23219" d="M461.02,57.614c0.647,0.589,1.547,0.8,2.397,0.605c0.879-0.197,1.572-0.785,1.92-1.629l3.82-9.281
				l4.725,15.937c0.293,1.096,1.267,1.845,2.38,1.957c0.074,0,0.159,0,0.237,0c1.036,0,1.986-0.596,2.445-1.562l5.798-12.217
				l2.784,6.966c0.367,0.936,1.226,1.613,2.233,1.719c0.978,0.108,1.975-0.333,2.532-1.199l10.269-15.066l3.602,14.216
				c0.225,0.939,0.933,1.677,1.858,1.959c0.916,0.249,1.927,0.028,2.643-0.612l8.47-7.852c1.103-1.032,1.164-2.75,0.14-3.856
				c-1.008-1.084-2.741-1.152-3.841-0.146l-5.109,4.727l-3.962-15.654c-0.259-1.018-1.107-1.806-2.173-2
				c-1.062-0.168-2.114,0.265-2.725,1.156l-10.777,15.853l-3.2-8.021c-0.404-1.004-1.348-1.695-2.438-1.719
				c-1.055-0.02-2.076,0.575-2.554,1.558l-5.433,11.422l-4.854-16.505c-0.327-1.097-1.308-1.898-2.473-1.954
				c-1.136-0.036-2.226,0.593-2.658,1.674l-5.32,12.895l-3.902-3.461c-1.14-1.011-2.853-0.899-3.86,0.238
				c-1.008,1.11-0.886,2.835,0.232,3.828L461.02,57.614z"/>
		</g>
	</g>
	<path fill="#E23219" d="M274.926,66.654c-0.476-0.222-1.234-0.59-2.522-1.95c-0.638-0.68-1.243-1.551-1.644-2.638
		c-0.205-0.542-0.353-1.138-0.436-1.773c-0.035-0.321-0.067-0.645-0.074-0.942c-0.021-0.295-0.008-0.763-0.014-1.098
		c0.039-1.725-0.278-3.516-0.95-5.059c-0.661-1.547-1.623-2.836-2.613-3.718c-0.922-0.828-1.618-1.289-2.478-1.687
		c-1.326-0.893-2.718,1.163-2.169,1.787c0.204,0.3,0.513,0.606,0.771,1.043c0.282,0.418,0.563,0.897,0.75,1.427
		c0.211,0.526,0.32,1.096,0.356,1.745c0.04,0.648-0.038,1.391-0.182,2.218c-0.281,1.642-0.757,3.578-0.991,5.547
		c-0.052,0.679-0.091,0.962-0.099,1.556c0.022,0.583,0.01,1.199,0.122,1.722c0.127,1.092,0.5,2.125,0.901,3.086
		c0.464,0.933,0.973,1.814,1.611,2.518c0.598,0.739,1.292,1.31,1.945,1.8c1.347,0.939,2.657,1.407,3.606,1.588
		c0.479,0.086,1.091,0.153,1.531,0.129c0.439-0.024,0.785-0.232,0.945-0.626c0.21-0.514-0.037-1.102-0.552-1.311l-0.167-0.069
		c0,0-0.095-0.039-0.272-0.11c-0.175-0.061-0.431-0.176-0.75-0.332c-0.632-0.326-1.523-0.858-2.429-1.687
		c-0.446-0.418-0.905-0.893-1.319-1.442c-0.435-0.537-0.78-1.172-1.11-1.833c-0.263-0.689-0.532-1.409-0.603-2.189
		c-0.081-0.397-0.055-0.732-0.092-1.096c-0.013-0.352,0.056-1.021,0.067-1.289c0.199-1.624,0.505-3.23,0.76-4.898
		c0.018,0.361,0.022,0.726,0.005,1.095c-0.008,0.438-0.036,0.739-0.026,1.213c0.007,0.471,0.046,0.911,0.091,1.343
		c0.107,0.872,0.309,1.737,0.608,2.551c0.59,1.641,1.665,2.987,2.761,3.831c1.095,0.861,1.986,1.216,2.92,1.479
		c1.514,0.32,2.404,0.107,2.583-0.626C275.898,67.367,275.402,66.876,274.926,66.654z"/>
	<g>
		<g>
			<path fill="#EEE7DB" d="M59.977,231.656v24.07H43.856v-69.623h47.056v13.529H59.977v18.796h25.625v13.228H59.977z"/>
			<path fill="#EEE7DB" d="M104.787,183.214c5.571,0,9.85,4.275,9.85,9.646c0,5.271-4.279,9.648-9.85,9.648
				c-5.472,0-9.75-4.378-9.75-9.648C95.037,187.489,99.315,183.214,104.787,183.214z M97.226,207.787h15.222v47.939H97.226V207.787z
				"/>
			<path fill="#EEE7DB" d="M122.699,255.726v-47.939h15.227v6.963c2.688-5.172,8.256-8.156,15.72-8.156
				c6.168,0,10.847,2.089,13.433,5.471c2.985,3.678,3.78,8.354,3.78,15.217v28.445h-15.223v-24.565
				c0-6.861-2.092-11.635-8.458-11.635c-6.168,0-9.253,4.774-9.253,12.131v24.07H122.699z"/>
			<path fill="#EEE7DB" d="M228.002,207.787l-18.704,23.971l18.606,23.968h-18.108l-14.727-20.091v20.091h-15.221v-69.623h15.221
				v41.973l14.826-20.29H228.002z"/>
			<path fill="#EEE7DB" d="M276.341,240.607c-1.594,9.055-9.952,16.416-23.686,16.416c-16.815,0-25.865-11.143-25.865-25.266
				c0-14.024,8.855-25.265,25.467-25.265c15.027,0,24.677,10.146,24.677,21.883c0,1.988,0,4.177-0.496,7.062h-34.329
				c0,5.77,2.689,10.642,10.448,10.642c5.275,0,7.764-2.387,8.855-5.472H276.341z M242.109,227.084h19.899
				c0-6.168-4.079-9.847-9.849-9.847C246.391,217.238,242.109,220.619,242.109,227.084z"/>
			<path fill="#EEE7DB" d="M284.718,186.104h15.225v69.623h-15.225V186.104z"/>
			<path fill="#EEE7DB" d="M451.248,218.927h29.682c0,0,0.03,6.68-0.91,12.037c-2.784,15.814-14.441,26.556-34.341,26.556
				c-23.382,0-36.518-17.11-36.518-36.603c0-18.997,13.729-36.604,36.518-36.604c18.305,0,30.941,11.143,32.136,24.37h-17.213
				c-0.991-5.47-6.565-10.443-14.923-10.443c-12.835,0-19.999,11.041-19.999,22.775c0,12.333,6.863,22.879,21.292,22.879
				c9.753,0,15.524-5.97,16.614-12.93h-12.338V218.927z"/>
			<path fill="#EEE7DB" d="M523.609,207.787h15.228v47.939h-15.228v-6.762c-2.284,4.376-8.457,7.958-14.627,7.958
				c-13.827,0-23.384-10.843-23.384-25.165c0-14.325,9.557-25.165,23.384-25.165c6.17,0,12.343,3.68,14.627,8.058V207.787z
				 M523.609,231.758c0-6.564-4.579-12.232-11.441-12.232c-6.865,0-11.443,5.668-11.443,12.232c0,6.665,4.578,12.232,11.443,12.232
				C519.03,243.99,523.609,238.422,523.609,231.758z"/>
			<path fill="#EEE7DB" d="M583.511,221.616c-2.086-0.5-3.279-0.7-5.37-0.7c-8.357,0-13.828,4.377-13.828,16.113v18.697h-15.228
				v-47.939h15.228v7.76c2.185-4.477,7.959-8.555,14.627-8.555c1.89,0,3.181,0.201,4.571,0.795V221.616z"/>
			<path fill="#EEE7DB" d="M589.749,207.787v-4.176c0-17.406,10.545-18.599,18.107-18.599c3.585,0,6.47,0.596,8.261,1.292v10.939
				c-1.594-0.396-2.887-0.597-4.676-0.597c-3.382,0-6.567,0.496-6.567,6.071v5.069h11.243v11.341h-11.145v36.599h-15.224v-36.599
				V207.787z"/>
		</g>
		<g>
			<path fill="#EEE7DB" d="M359.871,220.219v12.534h4.905c-0.104,7.36-4.877,11.536-10.252,11.536c-6.366,0-10.05-4.375-10.05-8.951
				c0-5.618,2.561-9.381,9.498-9.804v-12.519c-6.581-0.414-8.603-3.937-8.603-8.511c0-5.271,3.384-7.757,8.059-7.757
				c6.669,0,8.756,4.077,8.756,10.145h16.122c0-11.835-7.464-22.279-24.676-22.279c-12.637,0-24.182,6.464-24.182,19.493
				c0,8.157,4.679,12.93,10.35,15.418c-6.269,2.883-11.44,7.955-11.44,16.211c0,14.121,13.035,21.481,25.67,21.481
				c16.615,0,26.367-9.846,26.564-24.465h4.733v-12.534H359.871z"/>
		</g>
	</g>
	<path fill="#3D2621" d="M651.285,141.133h-61.572V24.394C589.713,10.945,578.765,0,565.311,0H94.69
		C81.236,0,70.287,10.945,70.287,24.394v116.739H8.718c-4.814,0-8.715,3.901-8.715,8.712L0,290.978c0,4.158,2.915,7.634,6.814,8.502
		l50.718,11.319c6.898,1.538,12.754,4.9,12.754,15.592l0.001,58.676C70.287,533.248,172.232,629,330.001,629
		c157.768,0,259.712-95.752,259.712-243.934v-58.711c0.013-10.664,5.862-14.021,12.753-15.557l50.723-11.32
		c3.896-0.869,6.811-4.343,6.812-8.501V149.845C660,145.034,656.098,141.133,651.285,141.133z M408.436,17.425l156.875-0.001
		c3.841,0,6.972,3.128,6.972,6.97l0.004,109.771c-0.003,3.836-3.13,6.965-6.973,6.965l-30.223,0.002v-14.329
		c5.474-1.205,9.933-5.943,11.536-11.929h0.791c1.497,0,2.723-1.225,2.723-2.729v-4.083c0-1.508-1.226-2.722-2.723-2.722h-0.804
		c-1.604-5.991-6.061-10.708-11.523-11.908v-20.05c0-1.505-1.233-2.727-2.737-2.727h-1.349V54.78
		c1.427-0.909,2.407-2.429,2.407-4.253c0-2.824-2.291-5.131-5.134-5.131c-2.846,0-5.155,2.307-5.155,5.131
		c0,1.824,1.002,3.345,2.418,4.253v15.876h-77.778V54.78c1.424-0.909,2.415-2.418,2.415-4.253c0-2.824-2.287-5.131-5.117-5.131
		c-2.858,0-5.174,2.307-5.174,5.131c0,1.824,1,3.345,2.431,4.253v15.876h-1.349c-1.498,0-2.74,1.221-2.74,2.727v20.05
		c-5.455,1.201-9.917,5.917-11.537,11.908h-0.816c-1.491,0-2.71,1.214-2.71,2.722v4.083c0,1.504,1.219,2.729,2.71,2.729h0.816
		c1.597,5.986,6.065,10.724,11.537,11.929v14.329l-29.793-0.007c-3.828,0-6.944-3.102-6.97-6.917l-0.003-109.819
		C401.464,20.553,404.593,17.425,408.436,17.425z M521.973,99.248c0,7.086-5.778,12.895-12.917,12.895
		c-7.128,0-12.923-5.809-12.923-12.895c0-7.156,5.795-12.965,12.923-12.965C516.194,86.282,521.973,92.092,521.973,99.248z
		 M477.075,99.248c0,7.086-5.794,12.895-12.944,12.895c-7.113,0-12.915-5.809-12.915-12.895c0-7.156,5.802-12.965,12.915-12.965
		C471.281,86.282,477.075,92.092,477.075,99.248z M94.69,17.424l282.373,0.001c3.836,0,6.958,3.117,6.972,6.944v109.815
		c-0.014,3.827-3.136,6.943-6.972,6.943l-19.461,0.005c3.053-4.899,4.822-10.676,4.822-16.861c0-12.773-7.521-23.812-18.371-28.937
		c0.416-7.906-0.898-18.839-10.273-23.26c-0.071-0.034-0.143-0.065-0.218-0.092c-0.47-0.173-0.94-0.258-1.41-0.258
		c-1.356,0-3.176,0.667-4.165,3.832c-0.444,1.435-0.718,3.239-0.997,5.15c-0.055,0.375-0.11,0.756-0.178,1.162
		c-0.518,3.624-1.872,7.486-3.867,11.294c-7.268,1.745-13.577,5.965-17.981,11.729h-21.223c-9.663,0-19.361-4.094-27.307-11.526
		c-8.352-7.81-14.167-18.516-16.842-30.953c-0.007-0.051-0.024-0.106-0.037-0.16c5.436-4.438,6.927-11.618,7.19-18.847l12.129,8.374
		c1.099,0.756,2.59,0.542,3.431-0.496l2.738-3.389c0.445-0.552,0.643-1.256,0.544-1.961c-0.099-0.697-0.483-1.323-1.061-1.725
		l-19.729-13.819c-0.925-0.65-2.166-0.614-3.047,0.088L225.003,43.75l-1.195-1.5c-0.575-0.722-1.504-1.075-2.411-0.922
		l-11.468,1.914c-0.879,0.145-1.617,0.734-1.948,1.565l-3.824,9.555c-0.309,0.773-0.217,1.65,0.236,2.349l1.767,2.668
		c-2.012,1.801-5.164,4.577-8.923,7.882c-7.327-6.824-16.722-11.572-27.358-13.133c-2.467-0.361-4.976-0.544-7.462-0.544
		c-12.151,0-23.946,4.369-33.22,12.309c-9.354,8.018-15.503,19.162-17.292,31.365c-2.458,16.757,3.567,32.828,14.815,43.876
		l-32.026-0.005c-3.845,0-6.973-3.128-6.973-6.968L87.718,24.394C87.718,20.553,90.846,17.424,94.69,17.424z M341.191,124.272
		c0,1.415-0.279,2.769-0.777,4.004l-5.609-4.004l5.609-4.006C340.912,121.504,341.191,122.856,341.191,124.272z M330.416,119.887
		l-4.003-5.607c1.235-0.5,2.587-0.776,4.003-0.776c1.417,0,2.772,0.275,4.011,0.776L330.416,119.887z M334.423,134.267
		c-1.235,0.493-2.591,0.776-4.007,0.776c-1.416,0-2.769-0.283-4.003-0.776l4.003-5.609L334.423,134.267z M326.035,124.272
		l-5.614,4.004c-0.498-1.235-0.776-2.59-0.776-4.004c0-1.416,0.278-2.768,0.776-4.006L326.035,124.272z M210.263,86.623
		c3.414-2.052,4.105-2.388,5.868-3.642c0,0-0.131,2.835,1.158,7.099c1.29,4.264,5.74,9.114,14.176,17.999
		c10.677,11.248,21.678,19.174,30.237,19.174c8.56,0,27.112,0.006,36.849-0.004c0.469,5.06,2.122,9.781,4.676,13.884H198.243
		c7.947-7.787,13.165-17.976,14.783-29.052C214.333,103.186,213.247,94.483,210.263,86.623z M169.982,91.007
		c0.217-1.087,0.431-2.155,0.639-3.199c0.232-1.09,0.464-2.155,0.688-3.196c0.235-1.032,0.467-2.039,0.684-3.015
		c0.238-0.97,0.467-1.909,0.688-2.811c0.17-0.68,0.337-1.337,0.506-1.974c2.895,1.112,5.547,2.654,7.898,4.536
		C177.212,84.724,173.393,88.045,169.982,91.007z M174.543,131.952c-3.041,1.36-6.332,2.218-9.76,2.481
		c0.023-0.657,0.051-1.329,0.088-2.029c0.09-1.854,0.208-3.862,0.365-5.975c0.152-2.114,0.341-4.346,0.571-6.644
		c0.04-0.449,0.088-0.898,0.133-1.354c0.255,0.378,0.513,0.755,0.759,1.127c1.294,1.916,2.516,3.791,3.66,5.577
		c1.141,1.794,2.195,3.499,3.155,5.091C173.873,130.819,174.212,131.387,174.543,131.952z M175.535,102.354l15.391-7.697
		c0.43,1.665,1.178,5.953,1.31,7.697H175.535z M190.312,115.427c-1.236,3.177-3.01,6.083-5.186,8.62
		c-0.435-0.473-0.882-0.954-1.341-1.462c-1.25-1.377-2.591-2.875-3.972-4.484c-1.382-1.61-2.833-3.312-4.296-5.104
		c-0.283-0.343-0.573-0.694-0.863-1.056c0.447,0.089,0.896,0.177,1.339,0.265c2.271,0.44,4.459,0.903,6.533,1.358
		c2.07,0.459,4.028,0.923,5.832,1.365C189.035,115.1,189.685,115.267,190.312,115.427z M134.733,107.015
		c0.926,0.051,1.89,0.102,2.886,0.156c0.998,0.069,2.033,0.133,3.091,0.205c1.056,0.082,2.139,0.174,3.255,0.262
		c1.109,0.105,2.241,0.211,3.387,0.32c0.49,0.05,0.984,0.101,1.475,0.149c-0.405,0.283-0.818,0.566-1.216,0.836
		c-0.971,0.644-1.917,1.273-2.839,1.889c-0.937,0.606-1.849,1.198-2.741,1.777c-0.899,0.564-1.777,1.113-2.617,1.645
		c-0.855,0.519-1.682,1.024-2.475,1.507c-0.599,0.357-1.182,0.701-1.747,1.027c-1.373-3.073-2.23-6.397-2.496-9.853
		C133.354,106.957,134.025,106.983,134.733,107.015z M134.607,93.957c1.242-3.208,3.026-6.143,5.232-8.702
		c0.442,0.476,0.899,0.96,1.358,1.474c0.616,0.684,1.261,1.406,1.936,2.147c0.661,0.75,1.335,1.527,2.033,2.327
		c0.691,0.812,1.397,1.64,2.115,2.486c0.715,0.858,1.44,1.734,2.179,2.626c0.311,0.377,0.62,0.762,0.932,1.147
		c-0.485-0.089-0.973-0.184-1.456-0.275c-1.137-0.23-2.25-0.45-3.344-0.668c-1.085-0.234-2.151-0.462-3.185-0.684
		c-1.042-0.235-2.047-0.463-3.02-0.688c-0.97-0.234-1.911-0.466-2.816-0.684C135.891,94.292,135.243,94.123,134.607,93.957z
		 M144.517,125.936c0.691-0.62,1.406-1.266,2.148-1.937c0.759-0.657,1.532-1.338,2.332-2.039c0.808-0.687,1.638-1.388,2.485-2.113
		c0.858-0.711,1.733-1.433,2.625-2.171c0.361-0.297,0.725-0.589,1.097-0.889c-0.092,0.47-0.181,0.939-0.273,1.406
		c-0.435,2.27-0.901,4.455-1.358,6.523c-0.459,2.073-0.918,4.03-1.365,5.83c-0.174,0.681-0.336,1.331-0.5,1.967
		c-3.217-1.244-6.141-3.018-8.681-5.207C143.509,126.861,143.999,126.408,144.517,125.936z M154.529,84.241
		c-0.562-0.898-1.114-1.773-1.645-2.618c-0.521-0.857-1.028-1.682-1.508-2.474c-0.358-0.595-0.695-1.174-1.025-1.742
		c3.063-1.372,6.39-2.239,9.852-2.505c-0.026,0.665-0.051,1.341-0.082,2.043c-0.047,0.925-0.102,1.892-0.15,2.893
		c-0.067,0.997-0.143,2.024-0.203,3.085c-0.093,1.058-0.185,2.141-0.266,3.25c-0.103,1.111-0.211,2.239-0.321,3.394
		c-0.051,0.485-0.098,0.976-0.152,1.467c-0.275-0.401-0.562-0.817-0.834-1.218c-0.64-0.964-1.273-1.914-1.892-2.836
		C155.704,86.044,155.104,85.132,154.529,84.241z M221.648,592.381c-3.872-1.535-7.664-3.162-11.39-4.869
		c18.45-5.154,32.027-22.1,32.027-42.164c0-24.141-19.646-43.781-43.796-43.781c-24.147,0-43.791,19.641-43.791,43.781
		c0,2,0.143,3.963,0.405,5.893c-3.112-2.854-6.118-5.807-9.032-8.842c1.536-27.576,24.458-49.545,52.418-49.545
		c28.954,0,52.511,23.551,52.511,52.494C251.001,565.977,239.016,583.822,221.648,592.381z M246.728,600.791
		c-3.404-0.949-6.762-1.961-10.076-3.031c16.195-11.801,26.749-30.889,26.749-52.412c0-35.773-29.117-64.879-64.911-64.879
		c-30.617,0-56.298,21.318-63.086,49.879c-2.287-2.811-4.489-5.691-6.621-8.629c9.868-29.021,37.379-49.963,69.707-49.963
		c40.596,0,73.626,33.014,73.626,73.592C272.116,567.477,262.254,587.305,246.728,600.791z M377.128,608.316
		c-15.026,2.148-30.75,3.26-47.127,3.26c-19.087,0-37.29-1.508-54.53-4.41c13.618-16.92,21.783-38.408,21.783-61.818
		c0-54.523-44.213-98.721-98.764-98.721c-36.567,0-68.467,19.875-85.535,49.402c-8.861-17.139-15.504-35.92-19.743-56.17
		c-0.694-3.816,1.815-6.871,5.626-6.871l-0.156-0.006l278.382,0.006c3.836,0,6.958,3.115,6.972,6.943l0.001,160.354
		C384.035,604.1,380.905,607.697,377.128,608.316z M384.034,408.586c0,3.844-3.13,6.971-6.971,6.971l-280.739-0.004
		c-3.843,0-7.263-3.09-7.628-6.967c-0.643-7.695-0.979-15.482-0.979-23.52l0.005-78.411c0-3.837,3.127-6.968,6.973-6.968
		l282.392,0.001c3.833,0.012,6.948,3.135,6.949,6.965L384.034,408.586z M566.797,439.797c-1.148,5.473-2.468,10.846-3.961,16.107
		h-79.21c-3.59,0-6.523,2.389-6.523,5.309c0,2.924,0,8.25,0,11.836v4.625l12.031,12.441l14.028-14.02
		c0.661-0.66,1.687-0.906,2.496-1.021c0.933,0.006,1.824,0.391,2.472,1.062l13.526,13.982l14.03-14.023
		c0.663-0.66,1.5-0.906,2.499-1.021c0.932,0.006,1.824,0.391,2.475,1.062l10.695,11.059c-1.036,2.262-2.107,4.496-3.215,6.705
		l-10.03-10.373l-14.033,14.023c-0.661,0.66-1.505,0.949-2.496,1.021c-0.933-0.008-1.824-0.393-2.475-1.062l-13.523-13.982
		l-14.029,14.023c-0.664,0.66-1.631,0.949-2.495,1.021c-0.933-0.008-1.824-0.393-2.471-1.062l-9.485-9.807v37.334h-2.229
		c-1.928,0-3.486,1.559-3.486,3.484v7.668h-4.879V492.99c0-2.885-2.342-5.227-5.229-5.227h-14.046
		c0.492,1.658,0.767,3.408,0.767,5.225c0,1.818-0.274,3.572-0.768,5.23h8.818v43.197c0,2.887,2.342,5.227,5.229,5.227h10.107v8.127
		c0,1.926,1.559,3.486,3.486,3.486h2.229v14.338c-20.216,12.975-43.29,22.93-68.85,29.531c-3.876,0.855-6.79-1.518-6.79-5.297
		V439.953c0.001-3.838,3.13-6.965,6.973-6.965l152.879-0.006l-0.153,0.006C564.951,432.988,567.45,436.008,566.797,439.797z
		 M572.282,385.066c0,8.039-0.336,15.822-0.979,23.52c-0.364,3.877-3.784,6.967-7.628,6.967l-53.669,0.006
		c-2.831-10.811-8.134-28.811-13.911-36.965c7.752-7.408,20.763-9.328,26.604-3.375c6.286,6.404,16.57,6.496,22.971,0.221
		c6.41-6.281,6.499-16.559,0.222-22.965c-4.147-4.23-10.053-5.686-15.426-4.391c2.38-4.105,1.849-9.439-1.638-12.988
		c-3.486-3.551-8.814-4.188-12.971-1.889c1.401-5.344,0.058-11.271-4.092-15.496c-6.279-6.403-16.566-6.5-22.97-0.223
		c-6.4,6.285-6.507,16.562-0.218,22.959c5.709,5.82,3.761,18.33-3.389,26.002c-12.97-11.357-29.954-17.318-49.553-17.318
		c-1.742,0-3.398,0.809-4.459,2.195c-6.256,8.135-15.49,18.109-29.713,23.473l-0.003-68.146c0.003-3.829,3.117-6.95,6.948-6.963
		h156.927c3.809,0.013,6.905,3.097,6.944,6.896V385.066z M496.378,325.215c2.138-2.096,5.566-2.059,7.663,0.076
		c2.097,2.137,2.053,5.561-0.079,7.648c-2.134,2.098-5.559,2.062-7.652-0.066C494.216,330.74,494.246,327.305,496.378,325.215z
		 M530.508,359.982c2.128-2.094,5.562-2.055,7.653,0.076c2.1,2.141,2.059,5.561-0.071,7.648c-2.136,2.098-5.561,2.062-7.653-0.068
		C528.346,365.506,528.366,362.08,530.508,359.982z M642.569,278.781c0,1.919-1.563,3.484-3.486,3.484l-618.165-0.001
		c-1.921,0-3.486-1.563-3.486-3.482V162.043c0-1.921,1.565-3.484,3.486-3.484h618.165c1.923,0,3.486,1.564,3.486,3.484V278.781z"/>
	<g>
		<g>
			<path fill="#E23219" d="M441.676,397.08h-40.212v-6.971h40.212c1.932,0,3.486,1.559,3.486,3.484
				C445.162,395.521,443.607,397.08,441.676,397.08z"/>
		</g>
	</g>
	<g>
		<g>
			<path fill="#E23219" d="M457.701,413.701h-56.237v-6.971h56.237c1.926,0,3.486,1.559,3.486,3.484
				S459.627,413.701,457.701,413.701z"/>
		</g>
	</g>
	<g>
		<g>
			<path fill="#3D2621" d="M220.127,355.977h17.741c11.745,0,13.886,7.52,13.886,11.984c0,5.623-3.854,8.377-6.792,9.168
				c2.51,0.613,7.16,3.121,7.16,9.42c0,4.465-2.141,12.23-13.886,12.23h-18.108V355.977z M229.977,373.4h5.934
				c4.83,0,5.934-2.994,5.934-5.137c0-1.895-0.923-5.012-5.934-5.012h-5.934V373.4z M229.977,391.197h6.178
				c4.828,0,5.935-3.119,5.935-5.322c0-1.896-1.107-5.199-5.873-5.199h-6.239V391.197z"/>
		</g>
		<g>
			<path fill="#3D2621" d="M268.99,363.926v9.719h16.212v7.766H268.99v9.42h16.212v7.949h-26.122v-42.803h26.122v7.949H268.99z"/>
		</g>
		<g>
			<path fill="#3D2621" d="M304.154,363.926v9.719h16.204v7.766h-16.204v9.42h16.204v7.949H294.24v-42.803h26.118v7.949H304.154z"/>
		</g>
		<g>
			<path fill="#3D2621" d="M329.4,355.977h17.985c9.481,0,15.599,7.152,15.599,15.471c0,5.99-3.184,11.312-8.504,13.816
				l8.565,13.516h-11.5l-7.589-11.863h-4.646v11.863h-9.91V355.977z M339.311,364.049v14.795h6.788c4.161,0,6.854-3.422,6.854-7.396
				s-2.692-7.398-6.854-7.398H339.311z"/>
		</g>
	</g>
	<g>
		<g>
			<path fill="#3D2621" d="M238.934,328.738c-0.484-2.67-2.514-4.781-5.999-4.781c-4.532,0-6.884,3.443-6.884,7.293
				c0,4.127,2.635,7.289,7.047,7.289c3.118,0,5.306-1.947,5.835-4.301h8.912c-0.937,6.527-6.203,11.951-14.911,11.951
				c-9.757,0-15.511-7.049-15.511-14.939c0-7.859,5.713-14.947,15.265-14.947c9.159,0,14.306,5.592,15.075,12.436H238.934z"/>
		</g>
		<g>
			<path fill="#3D2621" d="M252.741,317.076h13.607c6.482,0,10.656,4.859,10.656,10.572c0,3.838-1.945,7.324-5.189,9.145
				l5.669,8.627h-9.917l-4.824-7.25h-1.576v7.25h-8.425V317.076z M261.167,323.637v8.014h3.483c2.267,0,3.772-1.816,3.772-4.002
				c0-2.191-1.467-4.012-3.731-4.012H261.167z"/>
		</g>
		<g>
			<path fill="#3D2621" d="M291.438,317.076h8.832l10.693,28.344h-9.399l-0.974-3.281h-9.515l-0.973,3.281h-9.11L291.438,317.076z
				 M292.859,336.031h5.991l-2.999-10.451L292.859,336.031z"/>
		</g>
		<g>
			<path fill="#3D2621" d="M324.777,336.875v8.545h-8.436v-28.344h18.268v6.881h-9.832v6.281h7.367v6.637H324.777z"/>
		</g>
		<g>
			<path fill="#3D2621" d="M354.805,345.42h-8.423v-21.139h-7.047v-7.205h22.523v7.205h-7.054V345.42z"/>
		</g>
	</g>
	<g>
		<path fill="#3D2621" d="M471.628,99.248c0-4.158-3.362-7.489-7.497-7.489c-4.108,0-7.469,3.332-7.469,7.489
			c0,4.114,3.36,7.48,7.469,7.48C468.266,106.728,471.628,103.362,471.628,99.248z"/>
	</g>
	<g>
		<path fill="#E23219" d="M415.493,492.988c0,10.131,8.215,18.34,18.34,18.34c10.135,0,18.35-8.209,18.35-18.34
			c0-10.125-8.215-18.34-18.35-18.34C423.708,474.648,415.493,482.863,415.493,492.988z"/>
	</g>
	<g>
		<path fill="#3D2621" d="M509.056,106.728c4.112,0,7.496-3.366,7.496-7.48c0-4.158-3.384-7.489-7.496-7.489
			c-4.129,0-7.489,3.332-7.489,7.489C501.566,103.362,504.927,106.728,509.056,106.728z"/>
	</g>
</g>
</svg>
