<svg xmlns="http://www.w3.org/2000/svg" viewBox="0 0 206.92 18.63"><title>Asset 2</title><g id="Layer_2" data-name="Layer 2"><g id="Layer_1-2" data-name="Layer 1"><path d="M11.3,9.4v8.4c0,.46-.28.83-.62.83h0c-.35,0-.63-.37-.63-.83V9.55L8.24,3.09l-2,6.69s0,0,0,0l0,.07L6.15,10l-.05.07L6,10.23l0,0h0a.46.46,0,0,1-.2.05.54.54,0,0,1-.21-.05h0l0,0-.15-.12,0-.06a1.5,1.5,0,0,1-.09-.18l0-.07v0L3.2,3.05,1.25,9.52l.06,8.27c0,.46-.27.84-.62.84h0c-.34,0-.62-.36-.63-.82L0,9.37a1.12,1.12,0,0,1,0-.32L2.62.52A.63.63,0,0,1,3.22,0a.65.65,0,0,1,.6.53L5.71,7.16,7.65.52a.61.61,0,0,1,1.2,0l2.41,8.58A1.35,1.35,0,0,1,11.3,9.4Z"/><path d="M26.27,3.19V1.79H20.21V9.16h4.34a.77.77,0,0,1,.64.84c0,.47-.29.85-.64.85H20.21v6h6.67c.34,0,.61.37.61.82s-.27.81-.61.81H19.6c-.34,0-.61-.36-.61-.81V10.14A.59.59,0,0,1,19,10a.68.68,0,0,1,0-.14V1c0-.45.27-.82.61-.82h7.28c.34,0,.61.37.61.82V3.19c0,.45-.27.82-.61.82S26.27,3.64,26.27,3.19Z"/><path d="M42.47,3.19V1.79H36.41V9.16h4.34a.77.77,0,0,1,.64.84c0,.47-.29.85-.64.85H36.41v6h6.67c.34,0,.61.37.61.82s-.27.81-.61.81H35.8c-.34,0-.61-.36-.61-.81V10.14a.59.59,0,0,1,0-.14.68.68,0,0,1,0-.14V1c0-.45.27-.82.61-.82h7.28c.34,0,.61.37.61.82V3.19c0,.45-.27.82-.61.82S42.47,3.64,42.47,3.19Z"/><path d="M60.19,3.06c0,.46-.27.84-.61.84h0c-.33,0-.61-.36-.62-.81V1.73h-2.6v16c0,.46-.28.83-.62.83s-.62-.37-.62-.83v-16H52.62V3.09c0,.45-.29.81-.62.81h0a.75.75,0,0,1-.61-.84l0-2.17A.73.73,0,0,1,52,.08h7.54a.48.48,0,0,1,.24.06s.05,0,.08.07A.6.6,0,0,1,60,.32l0,.1a.8.8,0,0,1,.08.16s0,.08,0,.13a1.13,1.13,0,0,1,0,.18Z"/><path d="M85.55,3.06c0,.46-.27.84-.61.84h0c-.34,0-.61-.36-.62-.81V1.73H81.69v16c0,.46-.27.83-.62.83s-.62-.37-.62-.83v-16H78l0,1.36a.73.73,0,0,1-.62.81h0c-.34,0-.61-.38-.61-.84l0-2.17a.73.73,0,0,1,.62-.81h7.54a.53.53,0,0,1,.24.06.16.16,0,0,1,.07.07.41.41,0,0,1,.12.11.53.53,0,0,1,.06.1.8.8,0,0,1,.08.16s0,.08,0,.13a1.13,1.13,0,0,1,0,.18Z"/><path d="M101.85.89V17.73c0,.46-.27.83-.62.83s-.62-.37-.62-.83V10.14H94.45v7.59c0,.46-.27.83-.61.83s-.63-.37-.63-.83V.89a.74.74,0,0,1,.63-.82c.34,0,.61.36.61.82v7.6h6.16V.89c0-.45.28-.82.62-.82S101.85.43,101.85.89Z"/><path d="M116.83,3.19V1.79h-6.06V9.16h4.34a.77.77,0,0,1,.64.84c0,.47-.29.85-.64.85h-4.34v6h6.67c.34,0,.62.37.62.82a.73.73,0,0,1-.62.81h-7.28c-.34,0-.61-.36-.61-.81V10.14a.59.59,0,0,1,0-.14.68.68,0,0,1,0-.14V1c0-.45.27-.82.61-.82h7.28c.34,0,.62.37.62.82V3.19c0,.45-.28.82-.62.82S116.83,3.64,116.83,3.19Z"/><path d="M142.34,11.49v4.1a.92.92,0,0,1-.18.57l-1.61,2.15a.52.52,0,0,1-.43.24H135.2c-.33,0-.61-.37-.61-.82V.89a.74.74,0,0,1,.61-.81H139a.54.54,0,0,1,.43.24l1.61,2.14a1,1,0,0,1,.18.58V7.13a.93.93,0,0,1-.18.58l-.68.91a.57.57,0,0,1,.16.15l1.62,2.15A1,1,0,0,1,142.34,11.49Zm-6.52-3h3L140,6.79V3.38l-1.26-1.67h-3Zm5.3,3.37-1.25-1.67h-4.05v6.76h4.05l1.25-1.67Z"/><path d="M158.69,6V17.74c0,.45-.27.82-.61.82h-4.52a.5.5,0,0,1-.26-.08l0,0a.56.56,0,0,1-.16-.18l0,0-2.94-5.08s0-.06,0-.08a1.22,1.22,0,0,1-.07-.17c0-.05,0-.1,0-.14s0-.08,0-.12V.92c0-.46.28-.82.62-.82h4.52a.57.57,0,0,1,.49.32l2.93,5.08A.93.93,0,0,1,158.69,6Zm-1.23,10.91V6.28l-2.63-4.54h-3.59V12.37l2.63,4.54Z"/><path d="M174.63,18.53a.47.47,0,0,1-.17,0,.66.66,0,0,1-.59-.58l-.7-3.19h-4.9L167.56,18a.66.66,0,0,1-.59.58l-.17,0a.88.88,0,0,1-.41-1L170.13.65l0-.07a.39.39,0,0,1,.06-.15.41.41,0,0,1,.07-.11.53.53,0,0,1,.09-.11l.1-.07.06,0h.35l.06,0,.1.07.1.11.06.11a.34.34,0,0,1,.06.15.15.15,0,0,1,0,.07l3.75,16.87A.88.88,0,0,1,174.63,18.53Zm-1.83-5.37-2.08-9.4-2.09,9.4Z"/><path d="M190.64,11.73v6c0,.45-.27.82-.61.82s-.61-.37-.61-.82V12.06L188,10.2H184v7.57c0,.45-.27.82-.61.82s-.61-.37-.61-.82V1c0-.45.27-.81.61-.81h4.92a.52.52,0,0,1,.43.24l1.61,2.15a.92.92,0,0,1,.18.57V7.23a.93.93,0,0,1-.18.58l-1.18,1.57,1.33,1.77A.93.93,0,0,1,190.64,11.73ZM184,8.56H188l1.25-1.66V3.48L188,1.81H184Z"/><path d="M206.92,3.14V15.48a.93.93,0,0,1-.18.58l-1.61,2.15a.55.55,0,0,1-.43.24h-5.78c-.33,0-.61-.37-.61-.82V1c0-.45.27-.81.61-.81h5.78a.52.52,0,0,1,.43.24l1.61,2.14A1,1,0,0,1,206.92,3.14Zm-1.22.34-1.25-1.67h-4.91v15h4.91l1.25-1.67Z"/></g></g></svg>