<?xml version="1.0" encoding="UTF-8"?>
<svg width="180px" height="84px" viewBox="0 0 180 84" version="1.1" xmlns="http://www.w3.org/2000/svg" xmlns:xlink="http://www.w3.org/1999/xlink">
    <!-- Generator: Sketch 44.1 (41455) - http://www.bohemiancoding.com/sketch -->
    <title>new logo</title>
    <desc>Created with Sketch.</desc>
    <defs></defs>
    <g id="Symbols" stroke="none" stroke-width="1" fill="none" fill-rule="evenodd">
        <g id="header+nav">
            <g id="header">
                <g>
                    <g id="new-logo">
                        <polygon id="Fill-1" fill="#3F3F3F" points="155.162016 41.0441759 179.835323 41.0441759 179.835323 35.2737727 155.162016 35.2737727"></polygon>
                        <polygon id="Fill-2" fill="#3F3F3F" points="155.162016 52.4807888 179.835323 52.4807888 179.835323 46.7090146 155.162016 46.7090146"></polygon>
                        <polygon id="Fill-3" fill="#3F3F3F" points="155.162016 64.1737727 179.835323 64.1737727 179.835323 58.4019985 155.162016 58.4019985"></polygon>
                        <polygon id="Fill-4" fill="#3F3F3F" points="93.1646613 0.359611367 93.1646613 6.21090169 104.02821 6.21090169 104.02821 28.9237243 109.802726 28.9237243 109.802726 6.21090169 120.6745 6.21090169 120.6745 0.359611367"></polygon>
                        <polygon id="Fill-5" fill="#3F3F3F" points="155.055081 6.15304685 179.729758 6.15304685 179.729758 0.382643625 155.055081 0.382643625"></polygon>
                        <polygon id="Fill-6" fill="#3F3F3F" points="155.055081 17.5882888 179.729758 17.5882888 179.729758 11.8165146 155.055081 11.8165146"></polygon>
                        <polygon id="Fill-7" fill="#3F3F3F" points="155.055081 29.2894985 179.729758 29.2894985 179.729758 23.5108694 155.055081 23.5108694"></polygon>
                        <g id="Group-43" transform="translate(0.000000, 0.006998)">
                            <path d="M21.1977661,48.1940403 C19.6938145,47.5071855 17.3563145,46.8326694 14.2414758,46.1869435 C11.1472016,45.5494435 9.16615323,44.933879 8.36002419,44.3429919 C7.74034677,43.8878306 7.43325,43.3408145 7.43325,42.7046855 C7.43325,42.0054919 7.76091129,41.4420242 8.42171774,41.0293629 C9.46365323,40.3699274 10.9278468,40.0340403 12.7704274,40.0340403 C14.5677661,40.0340403 15.9277661,40.343879 16.8120403,40.9621855 C17.6935726,41.5736371 18.2830887,42.59775 18.5559113,44.0057339 L18.5641371,44.0550887 L25.1173629,44.0509758 L25.1105081,43.9879113 C24.9994597,41.3350887 23.8684113,39.0565403 21.9038145,37.5704113 C19.884379,36.0376694 16.8312339,35.2575887 12.8417177,35.2575887 C10.4000242,35.2575887 8.28599194,35.5893629 6.54897581,36.2309758 C4.81744355,36.8767016 3.46704032,37.8322661 2.54712097,39.0743629 C1.62308871,40.3082339 1.16244355,41.661379 1.16244355,43.0789597 C1.16244355,45.2944435 2.14679839,47.1946048 4.11687903,48.7328306 C5.50018548,49.8158952 7.95833065,50.7481532 11.3912339,51.4925887 C14.06325,52.0711371 15.7947823,52.4796855 16.5337339,52.7072661 C17.6181694,53.0404113 18.3900242,53.4393629 18.8259919,53.8931532 C19.2523629,54.3414597 19.4662339,54.8967016 19.4662339,55.5314597 C19.4662339,56.5295242 18.949379,57.4179113 17.9184113,58.1623468 C16.8874435,58.91775 15.3176855,59.298879 13.2817984,59.298879 C11.341879,59.298879 9.79131452,58.87525 8.64792742,58.0225081 C7.51962097,57.176621 6.76284677,55.8289597 6.38857258,54.0179113 L6.38171774,53.9671855 L-0.000137096775,53.9671855 L0.0122016129,54.0384758 C0.459137097,57.4000887 1.88220161,60.2009758 3.90026613,61.7172661 C6.05542742,63.3459758 9.18534677,64.1726694 13.2091371,64.1726694 C15.9634113,64.1726694 18.3105081,63.8285565 20.1572016,63.1444435 C22.0189758,62.4726694 23.4708306,61.4211371 24.4922016,60.0254919 C25.5094597,58.6243629 26.0263145,57.1094435 26.0263145,55.5122661 C26.0263145,53.7464597 25.5944597,52.2425081 24.7389758,51.0483952 C23.8958306,49.8460565 22.7030887,48.886379 21.1977661,48.1940403" id="Fill-8" fill="#3F3F3F"></path>
                            <path d="M43.9071613,59.0573145 C38.3670806,59.0573145 33.8538548,54.9032823 33.8538548,49.7964274 C33.8538548,44.6840887 38.3670806,40.5314274 43.9071613,40.5314274 C49.4540968,40.5314274 53.9577258,44.6840887 53.9577258,49.7964274 C53.9577258,54.9032823 49.4540968,59.0573145 43.9071613,59.0573145 M43.9071613,34.7911855 C34.9849032,34.7911855 27.7215161,41.525379 27.7215161,49.8073952 C27.7215161,58.0825565 34.9849032,64.8194919 43.9071613,64.8194919 C52.8280484,64.8194919 60.0886935,58.0825565 60.0886935,49.8073952 C60.0886935,41.525379 52.8280484,34.7911855 43.9071613,34.7911855" id="Fill-11" fill="#3F3F3F"></path>
                            <polygon id="Fill-13" fill="#3F3F3F" points="129.834895 18.3473871 144.227315 18.3473871 144.227315 29.6057742 149.60425 29.6057742 149.60425 0.704403226 144.227315 0.704403226 144.227315 12.4659355 129.834895 12.4659355 129.834895 0.704403226 123.94796 0.704403226 123.94796 29.6057742 129.834895 29.6057742"></polygon>
                            <path d="M145.895645,53.0862016 C144.478065,56.6562016 140.850484,59.0567661 136.871935,59.0567661 C131.527903,59.0567661 127.191532,54.9027339 127.191532,49.79725 C127.191532,44.6835403 131.527903,40.53225 136.871935,40.53225 C140.295242,40.53225 143.503306,42.3062823 145.232097,45.16475 L145.380161,45.4060403 L151.772984,45.4060403 L151.497419,44.6821694 C149.277823,38.7623306 143.396371,34.7906371 136.871935,34.7906371 C128.27871,34.7906371 121.297742,41.5248306 121.297742,49.8068468 C121.297742,58.083379 128.27871,64.8203145 136.871935,64.8203145 C144.043468,64.8203145 150.25121,60.1370887 151.967661,53.4262016 L152.143145,52.7530565 L146.027258,52.7530565 L145.895645,53.0862016 Z" id="Fill-15" fill="#3F3F3F"></path>
                            <path d="M83.8486613,51.3778387 C83.8486613,55.6484032 80.2361613,59.1224355 75.8079355,59.1224355 C71.3701129,59.1224355 67.7658387,55.6484032 67.7658387,51.3778387 L67.7658387,35.2662258 L61.8953548,35.2662258 L61.8953548,51.3778387 C61.8953548,58.7892903 68.1305161,64.8201774 75.8079355,64.8201774 C83.4730161,64.8201774 89.7136613,58.7892903 89.7136613,51.3778387 L89.7136613,35.2662258 L83.8486613,35.2662258 L83.8486613,51.3778387 Z" id="Fill-17" fill="#3F3F3F"></path>
                            <path d="M98.8160645,40.8706048 L110.637919,40.8706048 C112.405097,40.8706048 113.839129,42.3060081 113.839129,44.0745565 C113.839129,45.8417339 112.405097,47.2771371 110.637919,47.2771371 L98.8160645,47.2771371 L98.8160645,40.8706048 Z M119.368242,44.0745565 C119.368242,39.2583468 115.4555,35.33875 110.637919,35.33875 L93.2910645,35.33875 L93.2910645,64.1482661 L98.8160645,64.1482661 L98.8160645,52.80625 L106.837597,52.80625 L114.557516,64.1482661 L121.297194,64.1482661 L113.261952,52.4045565 C116.800419,51.2913306 119.368242,47.9790726 119.368242,44.0745565 L119.368242,44.0745565 Z" id="Fill-19" fill="#3F3F3F"></path>
                            <path d="M31.1714194,83.3987097 L31.1714194,71.5535484 L32.1585161,71.5535484 L32.1585161,76.0612903 C32.5533548,75.6445161 32.9619032,75.3045161 33.3841613,75.0412903 C33.8064194,74.7780645 34.3136774,74.6464516 34.9059355,74.6464516 C35.4323871,74.6464516 35.9204516,74.7369355 36.370129,74.9179032 C36.8198065,75.098871 37.1981935,75.4141935 37.5052903,75.863871 C37.7136774,76.1723387 37.8370645,76.4862903 37.8754516,76.8098387 C37.9138387,77.1333871 37.9330323,77.4706452 37.9330323,77.8216129 L37.9330323,83.3987097 L36.9459355,83.3987097 L36.9459355,77.8380645 C36.9459355,77.0703226 36.7759355,76.4945161 36.4359355,76.1106452 C36.0959355,75.7267742 35.5310968,75.5348387 34.7414194,75.5348387 C34.4343226,75.5348387 34.1546452,75.5814516 33.9023871,75.6746774 C33.650129,75.7679032 33.4225484,75.8912903 33.2196452,76.0448387 C33.0167419,76.1983871 32.844,76.373871 32.7014194,76.5712903 C32.5588387,76.7687097 32.4491613,76.9770968 32.3723871,77.1964516 C32.2736774,77.4706452 32.2133548,77.733871 32.1914194,77.986129 C32.1694839,78.2383871 32.1585161,78.5125806 32.1585161,78.8087097 L32.1585161,83.3987097 L31.1714194,83.3987097 Z" id="Fill-21" fill="#000000"></path>
                            <path d="M47.4262984,79.1371935 C47.4262984,78.6340484 47.3700887,78.1610645 47.2617823,77.7237258 C47.1521048,77.2836452 46.9821048,76.9025161 46.7517823,76.5803387 C46.5214597,76.2554194 46.2253306,76.0017903 45.8633952,75.8139677 C45.5014597,75.6275161 45.0572661,75.5342903 44.5308145,75.5342903 C44.0153306,75.5342903 43.5725081,75.6357419 43.2064597,75.8400161 C42.8390403,76.0415484 42.5401694,76.3102581 42.3098468,76.6461452 C42.0795242,76.9806613 41.9095242,77.3631613 41.7998468,77.7963871 C41.6901694,78.2309839 41.6353306,78.6765484 41.6353306,79.1371935 C41.6353306,79.6650161 41.6983952,80.1489677 41.8245242,80.5931613 C41.9506532,81.0387258 42.1343629,81.4184839 42.3756532,81.7365484 C42.6169435,82.0559839 42.9185565,82.3027581 43.2804919,82.4782419 C43.6424274,82.6523548 44.0578306,82.7400968 44.5308145,82.7400968 C45.0462984,82.7400968 45.486379,82.6400161 45.8551694,82.4357419 C46.2225887,82.2342097 46.5214597,81.9627581 46.7517823,81.6213871 C46.9821048,81.2813871 47.1521048,80.8975161 47.2617823,80.4711452 C47.3700887,80.0420323 47.4262984,79.5978387 47.4262984,79.1371935 M44.5308145,83.6284839 C43.9824274,83.6188871 43.4696855,83.5188065 42.9925887,83.3337258 C42.5154919,83.1472742 42.0987177,82.8675968 41.7422661,82.4933226 C41.3858145,82.1217903 41.1033952,81.6542903 40.8950081,81.0963065 C40.68525,80.5369516 40.5824274,79.884371 40.5824274,79.1371935 C40.5824274,78.5120323 40.6646855,77.928 40.8292016,77.3864677 C40.9937177,76.8421935 41.2404919,76.3678387 41.5695242,75.9634032 C41.8985565,75.5575968 42.3098468,75.2354194 42.8033952,74.9996129 C43.2969435,74.7651774 43.87275,74.6472742 44.5308145,74.6472742 C45.1984758,74.6472742 45.7811371,74.7651774 46.2746855,74.9996129 C46.7682339,75.2354194 47.1795242,75.5548548 47.5085565,75.9551774 C47.8375887,76.3555 48.081621,76.8284839 48.2406532,77.3782419 C48.3983145,77.9252581 48.4792016,78.5120323 48.4792016,79.1371935 C48.4792016,79.8171935 48.3859758,80.4313871 48.1995242,80.9811452 C48.0130726,81.5281613 47.7471048,82.0011452 47.401621,82.3946129 C47.0561371,82.7894516 46.6393629,83.0951774 46.1512984,83.3076774 C45.6632339,83.5215484 45.1230726,83.6284839 44.5308145,83.6284839" id="Fill-23" fill="#000000"></path>
                            <path d="M54.1049677,83.4321613 C53.9843226,83.4540968 53.8252903,83.4924839 53.627871,83.5473226 C53.4304516,83.6007903 53.2110968,83.6295806 52.9698065,83.6295806 C52.4762581,83.6295806 52.1006129,83.5061935 51.842871,83.2594194 C51.585129,83.0112742 51.4562581,82.5711935 51.4562581,81.9336935 L51.4562581,75.6985323 L50.2552903,75.6985323 L50.2552903,74.8773226 L51.4562581,74.8773226 L51.4562581,72.5069194 L52.4433548,72.5069194 L52.4433548,74.8773226 L54.0391613,74.8773226 L54.0391613,75.6985323 L52.4433548,75.6985323 L52.4433548,81.5388548 C52.4433548,81.7472419 52.4488387,81.9282097 52.4598065,82.083129 C52.4707742,82.2366774 52.5036774,82.3628065 52.5585161,82.4615161 C52.6133548,82.5588548 52.6983548,82.6315161 52.8135161,82.6740161 C52.9286774,82.7178871 53.0904516,82.7398226 53.2988387,82.7398226 C53.4304516,82.7398226 53.5648065,82.7288548 53.7019032,82.7082903 C53.839,82.6863548 53.9733548,82.6589355 54.1049677,82.6246613 L54.1049677,83.4321613 Z" id="Fill-25" fill="#000000"></path>
                            <path d="M62.6762581,78.5454839 C62.6762581,78.1287097 62.6186774,77.7366129 62.5035161,77.3691935 C62.3883548,77.0017742 62.2183548,76.6850806 61.9935161,76.415 C61.7686774,76.1462903 61.4862581,75.9324194 61.1462581,75.7747581 C60.8062581,75.6143548 60.4169032,75.5348387 59.9781935,75.5348387 C59.5394839,75.5348387 59.152871,75.6170968 58.8183548,75.7816129 C58.4838387,75.946129 58.1986774,76.1668548 57.962871,76.4396774 C57.7270645,76.713871 57.537871,77.0319355 57.3952903,77.393871 C57.2527097,77.7558065 57.1594839,78.1396774 57.1156129,78.5454839 L62.6762581,78.5454839 Z M57.1156129,79.3680645 C57.1156129,79.8300806 57.1759355,80.2646774 57.2965806,80.6759677 C57.4172258,81.0872581 57.5954516,81.4437097 57.8312581,81.7453226 C58.0670645,82.0469355 58.3659355,82.2882258 58.727871,82.4691935 C59.0898065,82.6501613 59.5065806,82.7406452 59.9781935,82.7406452 C60.6252903,82.7406452 61.1791613,82.5720161 61.6398065,82.2306452 C62.1004516,81.8906452 62.4075484,81.4080645 62.5610968,80.7829032 L63.6633548,80.7829032 C63.5427097,81.1887097 63.3836774,81.5643548 63.1862581,81.9098387 C62.9888387,82.2553226 62.7420645,82.5569355 62.4459355,82.8146774 C62.1498065,83.0724194 61.7988387,83.2725806 61.3930323,83.4151613 C60.9872258,83.5577419 60.5156129,83.6290323 59.9781935,83.6290323 C59.2981935,83.6290323 58.7114194,83.513871 58.217871,83.2835484 C57.7243226,83.0532258 57.3185161,82.7392742 57.0004516,82.3375806 C56.6823871,81.9372581 56.4465806,81.4656452 56.2930323,80.9227419 C56.1394839,80.3798387 56.0627097,79.7958065 56.0627097,79.1706452 C56.0627097,78.5454839 56.1531935,77.9587097 56.3341613,77.4103226 C56.515129,76.8619355 56.772871,76.3820968 57.1073871,75.9708065 C57.4419032,75.5595161 57.8504516,75.2359677 58.3330323,75.0001613 C58.8156129,74.7643548 59.364,74.6464516 59.9781935,74.6464516 C61.1517419,74.6464516 62.0730323,75.0495161 62.7420645,75.8556452 C63.4110968,76.6617742 63.740129,77.8325806 63.7291613,79.3680645 L57.1156129,79.3680645 Z" id="Fill-28" fill="#000000"></path>
                            <polygon id="Fill-30" fill="#000000" points="66.6249194 83.3987097 67.6120161 83.3987097 67.6120161 71.5535484 66.6249194 71.5535484"></polygon>
                            <polygon id="Fill-32" fill="#000000" points="80.0985161 75.1729032 81.0856129 75.1729032 81.0856129 78.7922581 84.7049677 78.7922581 84.7049677 79.7793548 81.0856129 79.7793548 81.0856129 83.3987097 80.0985161 83.3987097 80.0985161 79.7793548 76.4791613 79.7793548 76.4791613 78.7922581 80.0985161 78.7922581"></polygon>
                            <path d="M94.2795323,83.3987097 L93.2924355,83.3987097 L93.2924355,74.8767742 L94.2795323,74.8767742 L94.2795323,76.16 L94.3124355,76.16 C94.5646935,75.6664516 94.926629,75.2908065 95.3982419,75.0330645 C95.8698548,74.7753226 96.3853387,74.6464516 96.9446935,74.6464516 C97.3395323,74.6464516 97.6740484,74.6903226 97.9482419,74.7780645 C98.2224355,74.8658065 98.4555,74.9837097 98.6474355,75.1317742 C98.839371,75.2798387 98.9984032,75.4525806 99.1245323,75.65 C99.2506613,75.8474194 99.3575968,76.0612903 99.4453387,76.2916129 C99.7305,75.7322581 100.111629,75.3182258 100.588726,75.0495161 C101.065823,74.7808065 101.611468,74.6464516 102.225661,74.6464516 C102.806952,74.6464516 103.270339,74.7437903 103.615823,74.9343548 C103.961306,75.1262903 104.227274,75.3785484 104.413726,75.691129 C104.600177,76.0037097 104.723565,76.3629032 104.783887,76.7687097 C104.84421,77.1745161 104.874371,77.5912903 104.874371,78.0190323 L104.874371,83.3987097 L103.887274,83.3987097 L103.887274,77.5090323 C103.887274,76.8948387 103.758403,76.4122581 103.500661,76.0612903 C103.242919,75.7103226 102.763081,75.5348387 102.061145,75.5348387 C101.69921,75.5348387 101.350984,75.6143548 101.016468,75.7733871 C100.681952,75.9324194 100.388565,76.1764516 100.136306,76.5054839 C100.026629,76.6480645 99.9361452,76.8153226 99.8648548,77.0072581 C99.7935645,77.2005645 99.7359839,77.3993548 99.6921129,77.6077419 C99.6482419,77.816129 99.6180806,78.0245161 99.601629,78.2329032 C99.5851774,78.4412903 99.5769516,78.6332258 99.5769516,78.8087097 L99.5769516,83.3987097 L98.5898548,83.3987097 L98.5898548,77.5090323 C98.5898548,76.8948387 98.4609839,76.4122581 98.2032419,76.0612903 C97.9455,75.7103226 97.4656613,75.5348387 96.7637258,75.5348387 C96.4017903,75.5348387 96.0535645,75.6143548 95.7190484,75.7733871 C95.3845323,75.9324194 95.0911452,76.1764516 94.8388871,76.5054839 C94.7292097,76.6480645 94.6387258,76.8153226 94.5674355,77.0072581 C94.4961452,77.2005645 94.4385645,77.3993548 94.3946935,77.6077419 C94.3508226,77.816129 94.3206613,78.0245161 94.3042097,78.2329032 C94.2877581,78.4412903 94.2795323,78.6332258 94.2795323,78.8087097 L94.2795323,83.3987097 Z" id="Fill-33" fill="#000000"></path>
                            <path d="M113.527919,78.9244194 C113.111145,79.0999032 112.688887,79.2150645 112.261145,79.2699032 C111.833403,79.3247419 111.405661,79.3672419 110.977919,79.4015161 C110.221145,79.4563548 109.631629,79.6263548 109.209371,79.9115161 C108.787113,80.1966774 108.575984,80.6299032 108.575984,81.2111935 C108.575984,81.4730484 108.628081,81.700629 108.732274,81.8939355 C108.836468,82.085871 108.973565,82.2449032 109.143565,82.3710323 C109.313565,82.4957903 109.510984,82.5903871 109.735823,82.6507097 C109.960661,82.7110323 110.188242,82.7398226 110.418565,82.7398226 C110.813403,82.7398226 111.197274,82.6918387 111.570177,82.593129 C111.943081,82.4944194 112.274855,82.3436129 112.5655,82.1407097 C112.856145,81.9364355 113.08921,81.6800645 113.264694,81.3661129 C113.440177,81.0549032 113.527919,80.683371 113.527919,80.257 L113.527919,78.9244194 Z M111.866306,78.430871 C112.052758,78.4089355 112.274855,78.3760323 112.532597,78.3307903 C112.790339,78.2882903 113.001468,78.2279677 113.165984,78.1511935 C113.3305,78.0744194 113.431952,77.9455484 113.470339,77.7632097 C113.508726,77.5822419 113.527919,77.4149839 113.527919,77.2628065 C113.527919,76.7582903 113.366145,76.3442581 113.042597,76.0207097 C112.719048,75.6971613 112.173403,75.5340161 111.405661,75.5340161 C111.065661,75.5340161 110.753081,75.5655484 110.467919,75.625871 C110.182758,75.6861935 109.933242,75.7903871 109.719371,75.9370806 C109.5055,76.0865161 109.330016,76.2825645 109.192919,76.5307097 C109.055823,76.7774839 108.965339,77.0873226 108.921468,77.4602258 L107.917919,77.4602258 C107.950823,76.9543387 108.065984,76.5252258 108.263403,76.1674032 C108.460823,75.8109516 108.715823,75.5216774 109.028403,75.2968387 C109.340984,75.070629 109.702919,74.9061129 110.11421,74.8032903 C110.5255,74.6990968 110.961468,74.647 111.422113,74.647 C111.849855,74.647 112.252919,74.6936129 112.631306,74.7854677 C113.009694,74.8800645 113.338726,75.028129 113.618403,75.2310323 C113.898081,75.4339355 114.117435,75.7040161 114.276468,76.0440161 C114.4355,76.3840161 114.515016,76.8021613 114.515016,77.2957097 L114.515016,81.9336935 C114.515016,82.3189355 114.583565,82.5615968 114.720661,82.6657903 C114.857758,82.7713548 115.134694,82.7466774 115.551468,82.593129 L115.551468,83.3649839 C115.474694,83.3882903 115.362274,83.4198226 115.21421,83.4650645 C115.066145,83.5089355 114.920823,83.5295 114.778242,83.5295 C114.624694,83.5295 114.476629,83.5144194 114.334048,83.4801452 C114.169532,83.4595806 114.037919,83.4074839 113.93921,83.3252258 C113.8405,83.2415968 113.760984,83.1442581 113.700661,83.0290968 C113.640339,82.9139355 113.59921,82.7864355 113.577274,82.6507097 C113.555339,82.5136129 113.544371,82.3682903 113.544371,82.213371 C113.127597,82.6740161 112.6505,83.0263548 112.113081,83.2676452 C111.575661,83.5089355 110.994371,83.6295806 110.36921,83.6295806 C109.996306,83.6295806 109.637113,83.5802258 109.291629,83.4801452 C108.946145,83.3828065 108.64179,83.2292581 108.378565,83.0195 C108.115339,82.8124839 107.906952,82.5561129 107.753403,82.255871 C107.599855,81.9542581 107.523081,81.5950645 107.523081,81.1782903 C107.523081,79.7305484 108.515661,78.8750645 110.500823,78.6104677 L111.866306,78.430871 Z" id="Fill-34" fill="#000000"></path>
                            <path d="M118.956952,83.3987097 L117.969855,83.3987097 L117.969855,74.8767742 L118.956952,74.8767742 L118.956952,76.4725806 L118.989855,76.4725806 C119.264048,75.7925806 119.617758,75.3182258 120.050984,75.0495161 C120.48421,74.7808065 121.057274,74.6464516 121.770177,74.6464516 L121.770177,75.7158065 C121.210823,75.7048387 120.750177,75.7925806 120.388242,75.9790323 C120.026306,76.1668548 119.738403,76.4177419 119.524532,76.7358065 C119.310661,77.053871 119.162597,77.4295161 119.080339,77.8627419 C118.998081,78.2959677 118.956952,78.7483871 118.956952,79.22 L118.956952,83.3987097 Z" id="Fill-35" fill="#000000"></path>
                            <polygon id="Fill-36" fill="#000000" points="124.155524 83.3987097 124.155524 71.5535484 125.142621 71.5535484 125.142621 78.923871 129.321331 74.8767742 130.670363 74.8767742 127.47875 77.9532258 131.04875 83.3987097 129.946492 83.3987097 126.754879 78.6441935 125.142621 80.1741935 125.142621 83.3987097"></polygon>
                            <path d="M139.439073,78.5454839 C139.439073,78.1287097 139.381492,77.7366129 139.266331,77.3691935 C139.151169,77.0017742 138.981169,76.6850806 138.756331,76.415 C138.531492,76.1462903 138.249073,75.9324194 137.909073,75.7747581 C137.569073,75.6143548 137.179718,75.5348387 136.741008,75.5348387 C136.302298,75.5348387 135.915685,75.6170968 135.581169,75.7816129 C135.246653,75.946129 134.961492,76.1668548 134.725685,76.4396774 C134.489879,76.713871 134.300685,77.0319355 134.158105,77.393871 C134.015524,77.7558065 133.922298,78.1396774 133.878427,78.5454839 L139.439073,78.5454839 Z M133.878427,79.3680645 C133.878427,79.8300806 133.93875,80.2646774 134.059395,80.6759677 C134.18004,81.0872581 134.358266,81.4437097 134.594073,81.7453226 C134.829879,82.0469355 135.12875,82.2882258 135.490685,82.4691935 C135.852621,82.6501613 136.269395,82.7406452 136.741008,82.7406452 C137.388105,82.7406452 137.941976,82.5720161 138.402621,82.2306452 C138.863266,81.8906452 139.170363,81.4080645 139.323911,80.7829032 L140.426169,80.7829032 C140.305524,81.1887097 140.146492,81.5643548 139.949073,81.9098387 C139.751653,82.2553226 139.504879,82.5569355 139.20875,82.8146774 C138.912621,83.0724194 138.561653,83.2725806 138.155847,83.4151613 C137.75004,83.5577419 137.278427,83.6290323 136.741008,83.6290323 C136.061008,83.6290323 135.474234,83.513871 134.980685,83.2835484 C134.487137,83.0532258 134.081331,82.7392742 133.763266,82.3375806 C133.445202,81.9372581 133.209395,81.4656452 133.055847,80.9227419 C132.902298,80.3798387 132.825524,79.7958065 132.825524,79.1706452 C132.825524,78.5454839 132.916008,77.9587097 133.096976,77.4103226 C133.277944,76.8619355 133.535685,76.3820968 133.870202,75.9708065 C134.204718,75.5595161 134.613266,75.2359677 135.095847,75.0001613 C135.578427,74.7643548 136.126815,74.6464516 136.741008,74.6464516 C137.914556,74.6464516 138.835847,75.0495161 139.504879,75.8556452 C140.173911,76.6617742 140.502944,77.8325806 140.491976,79.3680645 L133.878427,79.3680645 Z" id="Fill-37" fill="#000000"></path>
                            <path d="M146.233726,83.4321613 C146.113081,83.4540968 145.954048,83.4924839 145.756629,83.5473226 C145.55921,83.6007903 145.339855,83.6295806 145.098565,83.6295806 C144.605016,83.6295806 144.229371,83.5061935 143.971629,83.2594194 C143.713887,83.0112742 143.585016,82.5711935 143.585016,81.9336935 L143.585016,75.6985323 L142.384048,75.6985323 L142.384048,74.8773226 L143.585016,74.8773226 L143.585016,72.5069194 L144.572113,72.5069194 L144.572113,74.8773226 L146.167919,74.8773226 L146.167919,75.6985323 L144.572113,75.6985323 L144.572113,81.5388548 C144.572113,81.7472419 144.577597,81.9282097 144.588565,82.083129 C144.599532,82.2366774 144.632435,82.3628065 144.687274,82.4615161 C144.742113,82.5588548 144.827113,82.6315161 144.942274,82.6740161 C145.057435,82.7178871 145.21921,82.7398226 145.427597,82.7398226 C145.55921,82.7398226 145.693565,82.7288548 145.830661,82.7082903 C145.967758,82.6863548 146.102113,82.6589355 146.233726,82.6246613 L146.233726,83.4321613 Z" id="Fill-38" fill="#000000"></path>
                            <path d="M154.031105,83.3987097 L154.031105,71.5535484 L155.018202,71.5535484 L155.018202,76.0612903 C155.41304,75.6445161 155.821589,75.3045161 156.243847,75.0412903 C156.666105,74.7780645 157.173363,74.6464516 157.765621,74.6464516 C158.292073,74.6464516 158.780137,74.7369355 159.229815,74.9179032 C159.679492,75.098871 160.057879,75.4141935 160.364976,75.863871 C160.573363,76.1723387 160.69675,76.4862903 160.735137,76.8098387 C160.773524,77.1333871 160.792718,77.4706452 160.792718,77.8216129 L160.792718,83.3987097 L159.805621,83.3987097 L159.805621,77.8380645 C159.805621,77.0703226 159.635621,76.4945161 159.295621,76.1106452 C158.955621,75.7267742 158.390782,75.5348387 157.601105,75.5348387 C157.294008,75.5348387 157.014331,75.5814516 156.762073,75.6746774 C156.509815,75.7679032 156.282234,75.8912903 156.079331,76.0448387 C155.876427,76.1983871 155.703685,76.373871 155.561105,76.5712903 C155.418524,76.7687097 155.308847,76.9770968 155.232073,77.1964516 C155.133363,77.4706452 155.07304,77.733871 155.051105,77.986129 C155.029169,78.2383871 155.018202,78.5125806 155.018202,78.8087097 L155.018202,83.3987097 L154.031105,83.3987097 Z" id="Fill-39" fill="#000000"></path>
                            <path d="M169.578976,78.9244194 C169.162202,79.0999032 168.739944,79.2150645 168.312202,79.2699032 C167.88446,79.3247419 167.456718,79.3672419 167.028976,79.4015161 C166.272202,79.4563548 165.682685,79.6263548 165.260427,79.9115161 C164.838169,80.1966774 164.62704,80.6299032 164.62704,81.2111935 C164.62704,81.4730484 164.679137,81.700629 164.783331,81.8939355 C164.887524,82.085871 165.024621,82.2449032 165.194621,82.3710323 C165.364621,82.4957903 165.56204,82.5903871 165.786879,82.6507097 C166.011718,82.7110323 166.239298,82.7398226 166.469621,82.7398226 C166.86446,82.7398226 167.248331,82.6918387 167.621234,82.593129 C167.994137,82.4944194 168.325911,82.3436129 168.616556,82.1407097 C168.907202,81.9364355 169.140266,81.6800645 169.31575,81.3661129 C169.491234,81.0549032 169.578976,80.683371 169.578976,80.257 L169.578976,78.9244194 Z M167.917363,78.430871 C168.103815,78.4089355 168.325911,78.3760323 168.583653,78.3307903 C168.841395,78.2882903 169.052524,78.2279677 169.21704,78.1511935 C169.381556,78.0744194 169.483008,77.9455484 169.521395,77.7632097 C169.559782,77.5822419 169.578976,77.4149839 169.578976,77.2628065 C169.578976,76.7582903 169.417202,76.3442581 169.093653,76.0207097 C168.770105,75.6971613 168.22446,75.5340161 167.456718,75.5340161 C167.116718,75.5340161 166.804137,75.5655484 166.518976,75.625871 C166.233815,75.6861935 165.984298,75.7903871 165.770427,75.9370806 C165.556556,76.0865161 165.381073,76.2825645 165.243976,76.5307097 C165.106879,76.7774839 165.016395,77.0873226 164.972524,77.4602258 L163.968976,77.4602258 C164.001879,76.9543387 164.11704,76.5252258 164.31446,76.1674032 C164.511879,75.8109516 164.766879,75.5216774 165.07946,75.2968387 C165.39204,75.070629 165.753976,74.9061129 166.165266,74.8032903 C166.576556,74.6990968 167.012524,74.647 167.473169,74.647 C167.900911,74.647 168.303976,74.6936129 168.682363,74.7854677 C169.06075,74.8800645 169.389782,75.028129 169.66946,75.2310323 C169.949137,75.4339355 170.168492,75.7040161 170.327524,76.0440161 C170.486556,76.3840161 170.566073,76.8021613 170.566073,77.2957097 L170.566073,81.9336935 C170.566073,82.3189355 170.634621,82.5615968 170.771718,82.6657903 C170.908815,82.7713548 171.18575,82.7466774 171.602524,82.593129 L171.602524,83.3649839 C171.52575,83.3882903 171.413331,83.4198226 171.265266,83.4650645 C171.117202,83.5089355 170.971879,83.5295 170.829298,83.5295 C170.67575,83.5295 170.527685,83.5144194 170.385105,83.4801452 C170.220589,83.4595806 170.088976,83.4074839 169.990266,83.3252258 C169.891556,83.2415968 169.81204,83.1442581 169.751718,83.0290968 C169.691395,82.9139355 169.650266,82.7864355 169.628331,82.6507097 C169.606395,82.5136129 169.595427,82.3682903 169.595427,82.213371 C169.178653,82.6740161 168.701556,83.0263548 168.164137,83.2676452 C167.626718,83.5089355 167.045427,83.6295806 166.420266,83.6295806 C166.047363,83.6295806 165.688169,83.5802258 165.342685,83.4801452 C164.997202,83.3828065 164.692847,83.2292581 164.429621,83.0195 C164.166395,82.8124839 163.958008,82.5561129 163.80446,82.255871 C163.650911,81.9542581 163.574137,81.5950645 163.574137,81.1782903 C163.574137,79.7305484 164.566718,78.8750645 166.551879,78.6104677 L167.917363,78.430871 Z" id="Fill-40" fill="#000000"></path>
                            <polygon id="Fill-41" fill="#000000" points="174.119758 83.3987097 175.106855 83.3987097 175.106855 71.5535484 174.119758 71.5535484"></polygon>
                            <polygon id="Fill-42" fill="#000000" points="178.594597 83.3987097 179.581694 83.3987097 179.581694 71.5535484 178.594597 71.5535484"></polygon>
                        </g>
                    </g>
                </g>
            </g>
        </g>
    </g>
</svg>