<svg xmlns="http://www.w3.org/2000/svg" viewBox="0 0 185.88 30.17"><title>Asset 9</title><g id="Layer_2" data-name="Layer 2"><g id="Layer_1-2" data-name="Layer 1"><path d="M18.83,5.09a1.32,1.32,0,0,1-1.3,1.34h0a1.32,1.32,0,0,1-1.32-1.31l0-2.17H10.6V28.54a1.32,1.32,0,1,1-2.64,0V3H2.67l0,2.17A1.32,1.32,0,0,1,1.32,6.43h0A1.33,1.33,0,0,1,0,5.08L.05,1.61A1.32,1.32,0,0,1,1.37.3H17.46A1.26,1.26,0,0,1,18,.41a1.4,1.4,0,0,1,.16.1,1.51,1.51,0,0,1,.26.18,1,1,0,0,1,.12.17,1.53,1.53,0,0,1,.16.25,1.17,1.17,0,0,1,0,.2,1.45,1.45,0,0,1,.06.3Z"/><path d="M45.87,28.55a1.32,1.32,0,0,1-1.32,1.32h-14a1.33,1.33,0,1,1,0-2.65h5.88V3H30.51a1.33,1.33,0,1,1,0-2.65h14a1.33,1.33,0,0,1,0,2.65H39V27.22h5.52A1.33,1.33,0,0,1,45.87,28.55Z"/><path d="M74.57,28.4a1.31,1.31,0,0,1-1.3,1.31H61a1.32,1.32,0,0,1-.92-.38l-3.44-3.44a1.3,1.3,0,0,1-.38-.93V5.21a1.26,1.26,0,0,1,.38-.92L60,.85A1.29,1.29,0,0,1,61,.46H73.27a1.31,1.31,0,0,1,0,2.62H61.49L58.82,5.75V24.42l2.67,2.67H73.27A1.31,1.31,0,0,1,74.57,28.4Z"/><path d="M101.66,2.38,93,15.52l8.14,12.42a1.26,1.26,0,0,1-.36,1.74,1.23,1.23,0,0,1-.69.2,1.25,1.25,0,0,1-1-.57L90.7,16.64H87.52V28.73a1.26,1.26,0,1,1-2.52,0V15.57a1.29,1.29,0,0,1,0-.19,1.06,1.06,0,0,1,0-.19V1.68A1.25,1.25,0,0,1,86.26.42a1.27,1.27,0,0,1,1.26,1.26V14.12h3.36L99.57,1a1.26,1.26,0,1,1,2.09,1.39Z"/><path d="M127.8,5.29V3.05H114.88V14.84h9.26a1.35,1.35,0,0,1,0,2.7h-9.26v9.58h14.23a1.31,1.31,0,0,1,0,2.61H113.57a1.31,1.31,0,0,1-1.3-1.31v-12a.51.51,0,0,1,0-.44V1.75a1.31,1.31,0,0,1,1.3-1.31h15.54a1.31,1.31,0,0,1,1.3,1.31V5.29a1.31,1.31,0,1,1-2.61,0Z"/><path d="M159.61,5.09a1.32,1.32,0,0,1-1.3,1.34h0A1.32,1.32,0,0,1,157,5.12l0-2.17h-5.56V28.54a1.32,1.32,0,1,1-2.64,0V3h-5.29l0,2.17a1.34,1.34,0,0,1-1.33,1.31h0a1.34,1.34,0,0,1-1.3-1.35l.05-3.47A1.32,1.32,0,0,1,142.15.3h16.09a1.26,1.26,0,0,1,.51.11.86.86,0,0,1,.16.1,1.51,1.51,0,0,1,.26.18,1,1,0,0,1,.12.17,1.07,1.07,0,0,1,.16.25,1.17,1.17,0,0,1,.05.2,1.45,1.45,0,0,1,.06.3Z"/><path d="M183.27,5.06V2.61h-7.61L173,5.23,185.57,24.4A1.3,1.3,0,0,1,185.4,26l-3.75,3.75a1.3,1.3,0,0,1-.93.38h-9.45a1.31,1.31,0,0,1-1.31-1.3V25.12a1.31,1.31,0,1,1,2.61,0v2.44h7.61l2.62-2.62L170.27,5.78a1.3,1.3,0,0,1,.17-1.64L174.19.38a1.34,1.34,0,0,1,.93-.38h9.45a1.31,1.31,0,0,1,1.31,1.31V5.06a1.31,1.31,0,1,1-2.61,0Z"/></g></g></svg>