<svg id="Layer_1" data-name="Layer 1" xmlns="http://www.w3.org/2000/svg" viewBox="0 0 314.54 146.18"><defs><style>.cls-1{fill:#231f20;}</style></defs><title>visible_core_palette_logo</title><path class="cls-1" d="M245.07,77.64c.64-4.69,3.77-8.2,8.11-8.2,5.35,0,7.38,3.59,8,8.2Zm27.83,7.21v-1.4c0-12.27-7-22.13-20.38-22.13-13.18,0-20.05,9.69-20.05,22s8,21.3,20.63,21.3c8.53,0,17.37-4.76,19.92-13.91h-11.9a8.29,8.29,0,0,1-7.83,5c-6,0-8.55-5.8-8.55-10.94ZM225.4,41.52H213.8v61.81h11.6ZM194.91,83c0,5.74-3.19,11.43-10.2,11.43-6.54,0-10.6-5.69-10.6-11.43s4.06-11.36,10.6-11.36c7,0,10.2,5.62,10.2,11.36m-31.42,20.38h11.6v-4h.17c2.32,3.31,7.7,5.31,11.85,5.31,12.48,0,19.56-10.77,19.56-21.88,0-10.69-7.86-21.46-19.84-21.46a16.18,16.18,0,0,0-11.74,5.28V41.52h-11.6Zm-9.44-54.94a6.88,6.88,0,1,0-6.88,6.88,6.92,6.92,0,0,0,6.88-6.88M135.21,66a19.29,19.29,0,0,0-12.66-4.66c-7.62,0-12.93,5.55-12.93,13.18,0,6.54,4.06,8.94,8.13,10.69s8.12,2.56,8.12,6.13a4.38,4.38,0,0,1-4.64,4.39c-3.4,0-6.53-2.07-8.62-4.72l-5.46,7.12a18.76,18.76,0,0,0,14.49,6.55c8.54,0,15.83-5.39,15.83-14.42,0-7-4.15-9.86-8.37-11.68s-8.37-2.66-8.37-5.64a3.54,3.54,0,0,1,3.58-3.48c2.53,0,4.37,1.38,5.93,3.25ZM104.33,48.39a6.88,6.88,0,1,0-6.88,6.88,6.92,6.92,0,0,0,6.88-6.88M86,62.65,67.35,104.16H60.16L41.52,62.65H54.28l9.47,22.82,9.48-22.82Z"/></svg>