<svg id="Layer_1" data-name="Layer 1" xmlns="http://www.w3.org/2000/svg" viewBox="0 0 542.84 33.03"><defs><style>.cls-1{fill:#fff;}</style></defs><title>dvlp_18_wht</title><path class="cls-1" d="M231.09,75.92a1.31,1.31,0,0,1-.54-.11,1.4,1.4,0,0,1-.76-1.84l12.5-30.2a1.41,1.41,0,1,1,2.61,1.08l-12.5,30.2A1.41,1.41,0,0,1,231.09,75.92Z" transform="translate(-66.41 -42.89)"/><path class="cls-1" d="M214.14,75.92a1.27,1.27,0,0,1-.54-.11,1.41,1.41,0,0,1-.77-1.84l12.5-30.2A1.42,1.42,0,1,1,228,44.85l-12.51,30.2A1.41,1.41,0,0,1,214.14,75.92Z" transform="translate(-66.41 -42.89)"/><path class="cls-1" d="M325.92,75.17a1.41,1.41,0,0,1-1.41-1.41V62L310.3,48.31V73.76a1.41,1.41,0,0,1-2.82,0V45a1.41,1.41,0,0,1,2.39-1L324.51,58.1V45a1.41,1.41,0,1,1,2.82,0V73.76A1.41,1.41,0,0,1,325.92,75.17Z" transform="translate(-66.41 -42.89)"/><path class="cls-1" d="M393.71,62.62l-3.07-3.07,2.73-2.72a1.45,1.45,0,0,0,.41-1v-7.1a1.45,1.45,0,0,0-.41-1L389.64,44a1.38,1.38,0,0,0-1-.42H377.28A1.42,1.42,0,0,0,375.86,45V73.87a1.42,1.42,0,0,0,2.83,0V61h9.37l3.23,3.24v9.66a1.42,1.42,0,0,0,2.83,0V63.62A1.41,1.41,0,0,0,393.71,62.62Zm-15-13.89V46.42h9.37l2.89,2.9v5.92l-2.89,2.9h-9.37Z" transform="translate(-66.41 -42.89)"/><path class="cls-1" d="M183.69,47.7,180,44a1.41,1.41,0,0,0-1-.41H167.63A1.41,1.41,0,0,0,166.22,45V73.79a1.41,1.41,0,1,0,2.82,0V60.92H179a1.38,1.38,0,0,0,1-.42l3.72-3.72a1.41,1.41,0,0,0,.41-1V48.7A1.45,1.45,0,0,0,183.69,47.7Zm-2.41,7.5-2.89,2.89H169V46.4h9.35l2.89,2.89Z" transform="translate(-66.41 -42.89)"/><path class="cls-1" d="M150.37,75.17H140a1.42,1.42,0,0,1-1-.42L135.32,71a1.38,1.38,0,0,1-.42-1V44.94a1.42,1.42,0,0,1,2.83,0V69.45l2.89,2.89h9.75a1.42,1.42,0,0,1,0,2.83Z" transform="translate(-66.41 -42.89)"/><path class="cls-1" d="M81.14,75.2H67.82a1.41,1.41,0,0,1-1.41-1.41V45a1.41,1.41,0,0,1,1.41-1.41H81.14a1.37,1.37,0,0,1,1,.41l3.72,3.72a1.38,1.38,0,0,1,.42,1V70.07a1.42,1.42,0,0,1-.42,1l-3.72,3.71A1.38,1.38,0,0,1,81.14,75.2ZM69.23,72.37H80.56l2.89-2.89V49.28l-2.89-2.89H69.23Zm15.63-2.3h0Z" transform="translate(-66.41 -42.89)"/><path class="cls-1" d="M110.62,75.24h0a1.42,1.42,0,0,1-1.21-.69l-8.53-14.16a1.46,1.46,0,0,1-.2-.73V45a1.42,1.42,0,1,1,2.83,0V59.26l7.11,11.82,7.12-11.82V45a1.42,1.42,0,1,1,2.83,0V59.66a1.37,1.37,0,0,1-.21.73l-8.53,14.16A1.39,1.39,0,0,1,110.62,75.24Z" transform="translate(-66.41 -42.89)"/><path class="cls-1" d="M288.48,75.2H275.15a1.41,1.41,0,0,1-1.41-1.41V45a1.41,1.41,0,0,1,1.41-1.41h13.33a1.41,1.41,0,0,1,1,.41l3.71,3.72a1.38,1.38,0,0,1,.42,1V70.07a1.42,1.42,0,0,1-.42,1l-3.71,3.71A1.42,1.42,0,0,1,288.48,75.2Zm-11.92-2.83h11.33l2.89-2.89V49.28l-2.89-2.89H276.56Zm15.64-2.3Z" transform="translate(-66.41 -42.89)"/><path class="cls-1" d="M360.11,43.57A1.43,1.43,0,0,0,358.69,45V59.26l-7.11,11.82-7.12-11.82V45a1.41,1.41,0,1,0-2.82,0V59.66a1.46,1.46,0,0,0,.2.73l8.53,14.16a1.39,1.39,0,0,0,1.21.69,1.42,1.42,0,0,0,1.21-.69l8.53-14.16a1.46,1.46,0,0,0,.2-.73V45A1.42,1.42,0,0,0,360.11,43.57Z" transform="translate(-66.41 -42.89)"/><path class="cls-1" d="M441.55,75.92a1.31,1.31,0,0,1-.54-.11,1.4,1.4,0,0,1-.76-1.84l12.5-30.2a1.41,1.41,0,1,1,2.61,1.08l-12.5,30.2A1.42,1.42,0,0,1,441.55,75.92Z" transform="translate(-66.41 -42.89)"/><path class="cls-1" d="M424.6,75.92a1.27,1.27,0,0,1-.54-.11,1.41,1.41,0,0,1-.77-1.84l12.5-30.2a1.41,1.41,0,1,1,2.61,1.08l-12.5,30.2A1.41,1.41,0,0,1,424.6,75.92Z" transform="translate(-66.41 -42.89)"/><path class="cls-1" d="M608.84,60.2l-3.34-3.34,2.08-2.08a1.39,1.39,0,0,0,.41-1V48.72a1.37,1.37,0,0,0-.41-1L603.88,44a1.43,1.43,0,0,0-1-.41h-6.43a1.41,1.41,0,0,0-1,.41l-3.71,3.71a1.41,1.41,0,0,0-.41,1v5.06a1.43,1.43,0,0,0,.41,1l2.09,2.08L590.5,60.2a1.37,1.37,0,0,0-.41,1V70a1.37,1.37,0,0,0,.41,1l3.7,3.71a1.43,1.43,0,0,0,1,.41h8.94a1.41,1.41,0,0,0,1-.41L608.84,71a1.41,1.41,0,0,0,.41-1V61.19A1.41,1.41,0,0,0,608.84,60.2ZM594.16,49.31,597,46.43h5.26l2.88,2.88V53.2l-2.88,2.88H597l-2.88-2.88Zm12.28,20.13-2.88,2.88h-7.78l-2.88-2.88V61.77l2.88-2.88h7.78l2.88,2.88Z" transform="translate(-66.41 -42.89)"/><path class="cls-1" d="M500,75.13H486.16a1.41,1.41,0,0,1-1.4-1.41V61.87a1.37,1.37,0,0,1,.41-1l3.7-3.7a1.4,1.4,0,0,1,1-.42h8.36l2.88-2.88V49.31l-2.88-2.88h-7.78l-3.29,3.29a1.41,1.41,0,0,1-2-2l3.7-3.7a1.4,1.4,0,0,1,1-.42h8.94a1.38,1.38,0,0,1,1,.42l3.71,3.7a1.43,1.43,0,0,1,.41,1v5.73a1.41,1.41,0,0,1-.41,1l-3.71,3.71a1.41,1.41,0,0,1-1,.41h-8.36l-2.88,2.88v9.87H500a1.41,1.41,0,1,1,0,2.81Z" transform="translate(-66.41 -42.89)"/><path class="cls-1" d="M565.15,75.13h0l-4.92,0a1.4,1.4,0,0,1-1.39-1.41,1.39,1.39,0,0,1,1.4-1.39h3.52V46.38H555a1.4,1.4,0,1,1,0-2.8h10.19a1.4,1.4,0,0,1,1.4,1.4V72.31h7.69a1.4,1.4,0,0,1,0,2.8h-8.83Z" transform="translate(-66.41 -42.89)"/><path class="cls-1" d="M539,47.73,535.28,44a1.38,1.38,0,0,0-1-.42H523.46a1.38,1.38,0,0,0-1,.42l-3.71,3.7a1.43,1.43,0,0,0-.41,1V70a1.41,1.41,0,0,0,.41,1l3.71,3.71a1.41,1.41,0,0,0,1,.41h10.83a1.41,1.41,0,0,0,1-.41L539,71a1.41,1.41,0,0,0,.41-1V48.73A1.43,1.43,0,0,0,539,47.73Zm-2.4,21.7-2.88,2.89h-9.66l-2.89-2.89V49.31l2.89-2.88h9.66l2.88,2.88Z" transform="translate(-66.41 -42.89)"/><path class="cls-1" d="M532.52,49.25a1.41,1.41,0,0,0-1.84.76l-7.22,17.31a1.4,1.4,0,0,0,.76,1.84,1.31,1.31,0,0,0,.54.11,1.41,1.41,0,0,0,1.3-.86l7.22-17.32A1.4,1.4,0,0,0,532.52,49.25Z" transform="translate(-66.41 -42.89)"/></svg>