<svg xmlns="http://www.w3.org/2000/svg" viewBox="0 0 90.01 125.94"><defs><style>.cls-1{fill:#231f20;}</style></defs><title>Asset 8dvlp_site_icons</title><g id="Layer_2" data-name="Layer 2"><g id="Layer_1-2" data-name="Layer 1"><path class="cls-1" d="M63,72V63H54V54H45V54h0V18H36.05l0,18h0V36H27V54h-9.1V63l-9,.07V72L0,72v36H9v9h9v8.94H53.92V117h9l.07-9h8.93V72H63ZM8.94,81.05v-.14h8.94v-9h9V63H36V81.05H27V90l-18.1.06v-9Z"/><rect class="cls-1" x="44.98" y="9.01" width="8.94" height="8.94"/><rect class="cls-1" x="53.99" width="17.94" height="8.94"/><rect class="cls-1" x="72" y="9.01" width="8.94" height="8.94"/><rect class="cls-1" x="81.01" y="0.07" width="8.94" height="8.94"/><rect class="cls-1" x="81.07" y="18.01" width="8.94" height="8.94"/><rect class="cls-1" x="63.06" y="18.01" width="8.94" height="8.94"/></g></g></svg>