<?xml version="1.0" encoding="utf-8"?>
<!-- Generator: Adobe Illustrator 24.0.2, SVG Export Plug-In . SVG Version: 6.00 Build 0)  -->
<svg version="1.1" id="Layer_1" xmlns="http://www.w3.org/2000/svg" xmlns:xlink="http://www.w3.org/1999/xlink" x="0px" y="0px"
	 viewBox="0 0 200 200" style="enable-background:new 0 0 200 200;" xml:space="preserve">
<style type="text/css">
	.st0{fill:#FF0000;}
</style>
<g>
	<path class="st0" d="M105.4,24.8c0,0.3-0.3,0.5-0.5,0.5l-4.2-0.1c-0.1,0-0.3-0.1-0.4-0.2L99,23.6c-0.1-0.1-0.1-0.2-0.1-0.4l0.2-7.9
		c0-0.1,0.1-0.3,0.2-0.4l1.4-1.3c0.1-0.1,0.2-0.1,0.4-0.1l4.2,0.1c0.3,0,0.5,0.3,0.5,0.5s-0.3,0.5-0.5,0.5l-4-0.1l-1.1,1L99.9,23
		l1,1.1l4,0.1C105.2,24.3,105.4,24.5,105.4,24.8z"/>
	<path class="st0" d="M113.4,25.8c0,0.3-0.3,0.5-0.6,0.4l-3.8-0.5c-0.1,0-0.3-0.1-0.3-0.2l-1.2-1.6c-0.1-0.1-0.1-0.2-0.1-0.4
		l1.3-9.4c0-0.3,0.3-0.5,0.6-0.4c0.3,0,0.5,0.3,0.4,0.6l-1.3,9.2l0.9,1.2l3.6,0.5C113.2,25.2,113.4,25.5,113.4,25.8z"/>
	<path class="st0" d="M121.6,27.7c-0.1,0.3-0.4,0.5-0.6,0.4l-5.4-1.4c-0.3-0.1-0.5-0.4-0.4-0.6c0.1-0.3,0.4-0.5,0.6-0.4l2.3,0.6
		l2.4-9.5l-2.3-0.6c-0.3-0.1-0.5-0.4-0.4-0.6s0.4-0.5,0.6-0.4l5.4,1.4c0.3,0.1,0.5,0.4,0.4,0.6c-0.1,0.3-0.4,0.5-0.6,0.4l-2.1-0.5
		l-2.4,9.5l2.1,0.5C121.5,27.2,121.7,27.4,121.6,27.7z"/>
	<path class="st0" d="M129.6,30.6c-0.1,0.3-0.4,0.4-0.7,0.3l-4-1.5c-0.1,0-0.2-0.1-0.3-0.3l-0.8-1.8c-0.1-0.1-0.1-0.3,0-0.4l2.8-7.4
		c0-0.1,0.1-0.2,0.3-0.3l1.8-0.8c0.1-0.1,0.3-0.1,0.4,0l4,1.5c0.3,0.1,0.4,0.4,0.3,0.7c-0.1,0.3-0.4,0.4-0.7,0.3l-3.8-1.4l-1.4,0.6
		l-2.6,7l0.6,1.4l3.8,1.4C129.5,30,129.7,30.3,129.6,30.6z"/>
	<path class="st0" d="M136.8,34.6c-0.1,0-0.2,0-0.3-0.1c-0.1-0.1-0.2-0.2-0.3-0.4l-0.7-6.2l-1.2-0.6l-2.2,4.4
		c-0.1,0.2-0.4,0.3-0.7,0.2s-0.3-0.4-0.2-0.7l4.9-9.7c0.1-0.2,0.4-0.3,0.7-0.2s0.3,0.4,0.2,0.7l-2.3,4.4l1.2,0.6l5.5-3.1
		c0.2-0.1,0.5,0,0.7,0.2s0,0.5-0.2,0.7l-5.4,3.1l0.7,6.1C137.3,34.4,137.1,34.6,136.8,34.6z"/>
	<path class="st0" d="M148,41.8c-0.2,0.2-0.5,0.3-0.7,0.1l-4.5-3.4c-0.2-0.2-0.3-0.5-0.1-0.7s0.5-0.3,0.7-0.1l1.9,1.4l5.9-7.8
		l-1.9-1.4c-0.2-0.2-0.3-0.5-0.1-0.7c0.2-0.2,0.5-0.3,0.7-0.1l4.5,3.4c0.2,0.2,0.3,0.5,0.1,0.7c-0.2,0.2-0.5,0.3-0.7,0.1l-1.8-1.3
		l-5.9,7.8l1.8,1.3C148.1,41.2,148.1,41.6,148,41.8z"/>
	<path class="st0" d="M161.3,41.2L161.3,41.2c-0.2,0.2-0.5,0.2-0.7,0l0,0c-0.2-0.2-0.2-0.5,0-0.7l0.6-0.6l-1.6-1.5l-7.1,7.4
		c-0.2,0.2-0.5,0.2-0.7,0c-0.2-0.2-0.2-0.5,0-0.7l7.1-7.4l-1.5-1.5l-0.6,0.6c-0.2,0.2-0.5,0.2-0.7,0l0,0c-0.2-0.2-0.2-0.5,0-0.7l1-1
		c0.2-0.2,0.5-0.2,0.7,0l4.7,4.4c0.2,0.2,0.2,0.5,0,0.7L161.3,41.2z"/>
	<path class="st0" d="M170.8,51.4L159,54c-0.2,0-0.4,0-0.5-0.2c0-0.1-0.1-0.1-0.1-0.2c-0.1-0.3,0.1-0.6,0.4-0.6l11.8-2.5
		c0.3-0.1,0.6,0.1,0.6,0.4C171.3,51.1,171.1,51.4,170.8,51.4z M174,56l-11.8,2.5c-0.2,0-0.4,0-0.5-0.2c0-0.1-0.1-0.1-0.1-0.2
		c-0.1-0.3,0.1-0.6,0.4-0.6l11.8-2.5c0.3-0.1,0.6,0.1,0.6,0.4C174.4,55.7,174.3,56,174,56z"/>
	<path class="st0" d="M173.8,73.2c0,0-0.1,0-0.1,0c0,0,0,0-0.1,0l-3.9-1.1c-0.2,0-0.3-0.2-0.3-0.3l-1.5-3.5c-0.1-0.1-0.1-0.3,0-0.4
		c0.1-0.1,0.2-0.2,0.3-0.3l6.9-2.9c0.1,0,0.2-0.1,0.3,0l3.9,1.1c0.2,0,0.3,0.2,0.3,0.3l1,2.5c0.1,0.3,0,0.6-0.3,0.7
		c-0.3,0.1-0.6,0-0.7-0.3l-0.9-2.3l-3.5-0.9l-6.2,2.6l1.2,2.8l3.5,0.9l1.3-0.5l-0.8-1.9c-0.1-0.3,0-0.6,0.3-0.7
		c0.3-0.1,0.6,0,0.7,0.3l1,2.4c0.1,0.3,0,0.6-0.3,0.7l-1.9,0.8c0,0-0.1,0-0.1,0C173.9,73.2,173.8,73.2,173.8,73.2z"/>
	<path class="st0" d="M182.4,80.2l0.9-0.2l-1.4-5l-4.5,1.3l1,3.6c0.1,0.3-0.1,0.6-0.4,0.7c-0.3,0.1-0.6-0.1-0.7-0.4l-1-3.6l-3.8,1
		L174,83c0.1,0.3-0.1,0.6-0.4,0.6c-0.3,0.1-0.6-0.1-0.6-0.4l-1.7-6c-0.1-0.3,0.1-0.6,0.4-0.6l4.3-1.2l0-0.1
		c-0.1-0.3,0.1-0.6,0.4-0.7c0.3-0.1,0.6,0.1,0.7,0.4l0,0.1l5-1.4c0.3-0.1,0.6,0.1,0.6,0.4l1.7,6c0.1,0.3-0.1,0.6-0.4,0.6l-1.4,0.4
		c-0.3,0.1-0.6-0.1-0.6-0.4C181.9,80.5,182.1,80.3,182.4,80.2z"/>
	<path class="st0" d="M184.5,91.4L184.5,91.4c-0.3,0-0.6-0.2-0.6-0.4l0,0c0-0.3,0.2-0.5,0.4-0.6l0.9-0.1l-0.3-2.2l-10.1,1.5
		c-0.3,0-0.6-0.2-0.6-0.4s0.2-0.6,0.4-0.6l10.1-1.5l-0.3-2.1l-0.9,0.1c-0.3,0-0.6-0.2-0.6-0.4l0,0c0-0.3,0.2-0.6,0.5-0.6l1.4-0.2
		c0.3,0,0.6,0.2,0.6,0.4l0.9,6.4c0,0.3-0.2,0.5-0.4,0.6L184.5,91.4z"/>
	<path class="st0" d="M185.7,107.1l-5.1-3.3l-5.4-0.2c-0.3,0-0.5-0.3-0.5-0.6s0.3-0.5,0.6-0.5l5.4,0.2l5.3-2.9
		c0.3-0.2,0.6-0.1,0.7,0.2c0.1,0.3,0.1,0.6-0.2,0.7l-4.7,2.6l4.5,2.9c0.2,0.2,0.3,0.5,0.2,0.7C186.3,107.1,186,107.2,185.7,107.1z"
		/>
	<path class="st0" d="M181.4,117l-7.7-1.2c-0.1,0-0.3-0.1-0.3-0.2c-0.1-0.1-0.1-0.3-0.1-0.4c0,0,0.6-3.6,0.6-3.8
		c0-0.2,0.1-0.3,0.3-0.4l3.6-1.9c0.1-0.1,0.2-0.1,0.4-0.1l7.7,1.2c0.3,0,0.5,0.3,0.4,0.6l-0.6,3.8c0,0.2-0.1,0.3-0.3,0.4l-3.6,2
		C181.6,117,181.5,117,181.4,117z M174.4,114.8l7,1.1l3.2-1.7l0.5-3l-7-1.1l-3.2,1.7L174.4,114.8z"/>
	<path class="st0" d="M181.8,127.5l-9.1-2.6c-0.1,0-0.2-0.1-0.3-0.2l-0.9-1.7c-0.1-0.1-0.1-0.3,0-0.4l1-3.4c0-0.1,0.1-0.2,0.2-0.3
		l1.7-0.9c0.1-0.1,0.3-0.1,0.4,0l9.1,2.6c0.3,0.1,0.4,0.4,0.4,0.6s-0.4,0.4-0.6,0.4l-8.9-2.6l-1.3,0.7l-0.9,3l0.7,1.3l8.9,2.6
		c0.3,0.1,0.4,0.4,0.4,0.6C182.4,127.4,182.1,127.6,181.8,127.5z"/>
	<path class="st0" d="M171.8,133.9l-3.7-1.6c-0.3-0.1-0.4-0.4-0.3-0.7c0.1-0.3,0.4-0.4,0.7-0.3l3.5,1.5l1.6-0.6l1.3-3.2l-4.6-1.9
		c-0.3-0.1-0.4-0.4-0.3-0.7c0.1-0.3,0.4-0.4,0.7-0.3l10,4.2c0.3,0.1,0.4,0.4,0.3,0.7l-1.6,3.9c-0.1,0.1-0.2,0.2-0.3,0.3l-1.8,0.7
		c-0.1,0.1-0.3,0.1-0.4,0l-2.4-1c-0.1-0.1-0.2-0.2-0.3-0.3l-0.5-1.3l-1.5,0.6C172.1,133.9,172,133.9,171.8,133.9z M174.6,132.6
		l0.6,1.4l2,0.8l1.4-0.6l1.3-3.2l-4-1.7L174.6,132.6z"/>
	<path class="st0" d="M169,149.5L169,149.5c-0.2-0.2-0.3-0.5-0.2-0.7l0,0c0.2-0.2,0.5-0.3,0.7-0.2l0.7,0.5l1.2-1.9l-8.6-5.6
		c-0.2-0.2-0.3-0.5-0.2-0.7c0.2-0.2,0.5-0.3,0.7-0.2l8.6,5.6l1.2-1.8l-0.7-0.5c-0.2-0.2-0.3-0.5-0.1-0.7l0,0
		c0.2-0.2,0.5-0.3,0.7-0.1l1.2,0.8c0.2,0.2,0.3,0.5,0.1,0.7l-3.5,5.4c-0.2,0.2-0.5,0.3-0.7,0.2L169,149.5z"/>
	<path class="st0" d="M155.7,150.8c-0.2-0.2-0.3-0.5-0.1-0.7l3.6-4.3c0.2-0.2,0.5-0.3,0.7-0.1c0.2,0.2,0.3,0.5,0.1,0.7l-1.5,1.8
		l7.5,6.3l1.5-1.8c0.2-0.2,0.5-0.3,0.7-0.1s0.3,0.5,0.1,0.7l-3.6,4.3c-0.2,0.2-0.5,0.3-0.7,0.1c-0.2-0.2-0.3-0.5-0.1-0.7l1.4-1.7
		l-7.5-6.3l-1.4,1.7C156.3,151,156,151,155.7,150.8z"/>
	<path class="st0" d="M149.7,156.7c-0.2-0.2-0.2-0.5,0-0.7l3.1-2.9c0.1-0.1,0.2-0.1,0.4-0.1l1.9,0c0.1,0,0.3,0.1,0.4,0.2l5.5,5.7
		c0.1,0.1,0.1,0.2,0.1,0.4l0,1.9c0,0.1-0.1,0.3-0.2,0.4l-3.1,2.9c-0.2,0.2-0.5,0.2-0.7,0s-0.2-0.5,0-0.7l2.9-2.8l0-1.5l-5.2-5.4
		l-1.5,0l-2.9,2.8C150.3,156.9,149.9,156.9,149.7,156.7z"/>
	<path class="st0" d="M142.9,161.5c0-0.1,0.1-0.2,0.2-0.2c0.1-0.1,0.3-0.1,0.5-0.1l5.9,2l1.1-0.8l-3-3.9c-0.2-0.2-0.1-0.5,0.1-0.7
		c0.2-0.2,0.5-0.1,0.7,0.1l6.6,8.6c0.2,0.2,0.1,0.5-0.1,0.7s-0.5,0.1-0.7-0.1l-3-3.9l-1.1,0.8l0.4,6.3c0,0.3-0.2,0.5-0.5,0.5
		s-0.5-0.2-0.5-0.5l-0.4-6.2l-5.8-2C143,162,142.8,161.8,142.9,161.5z"/>
	<path class="st0" d="M140.4,174.5l0.5,0.8l4.5-2.6l-2.4-4.1l-3.2,1.9c-0.3,0.2-0.6,0.1-0.7-0.2c-0.2-0.3-0.1-0.6,0.2-0.7l3.2-1.9
		l-2-3.4l-4.9,2.9c-0.2,0.1-0.6,0.1-0.7-0.2s-0.1-0.6,0.2-0.7l5.4-3.1c0.2-0.1,0.6-0.1,0.7,0.2l2.2,3.8l0.1-0.1
		c0.3-0.2,0.6-0.1,0.7,0.2c0.2,0.3,0.1,0.6-0.2,0.7l-0.1,0.1l2.7,4.5c0.1,0.2,0.1,0.6-0.2,0.7l-5.4,3.1c-0.2,0.1-0.6,0.1-0.7-0.2
		l-0.7-1.2c-0.1-0.2-0.1-0.6,0.2-0.7C139.9,174.1,140.2,174.2,140.4,174.5z"/>
	<path class="st0" d="M130,179.4L130,179.4c-0.1-0.3,0-0.6,0.3-0.7l0,0c0.3-0.1,0.6,0,0.7,0.3l0.4,0.8l2-0.9l-4-9.4
		c-0.1-0.3,0-0.6,0.3-0.7c0.3-0.1,0.6,0,0.7,0.3l4,9.4l1.9-0.8l-0.3-0.8c-0.1-0.3,0-0.6,0.3-0.7l0,0c0.3-0.1,0.6,0,0.7,0.3l0.5,1.3
		c0.1,0.3,0,0.6-0.3,0.7l-5.9,2.5c-0.3,0.1-0.6,0-0.7-0.3L130,179.4z"/>
	<path class="st0" d="M111.5,185.3l2.3-11.8c0-0.2,0.2-0.4,0.4-0.4c0.1,0,0.1,0,0.2,0c0.3,0.1,0.5,0.3,0.4,0.6l-2.3,11.8
		c-0.1,0.3-0.3,0.5-0.6,0.4C111.6,185.8,111.4,185.6,111.5,185.3z M117,184.2l2.3-11.8c0-0.2,0.2-0.4,0.4-0.4c0.1,0,0.1,0,0.2,0
		c0.3,0.1,0.5,0.3,0.4,0.6l-2.3,11.8c-0.1,0.3-0.3,0.5-0.6,0.4C117.1,184.8,116.9,184.5,117,184.2z"/>
	<path class="st0" d="M96.5,175.3c0-0.3,0.2-0.5,0.5-0.5l4.2,0.1c0.1,0,0.3,0.1,0.4,0.2l1.4,1.4c0.1,0.1,0.1,0.2,0.1,0.4l-0.1,7.9
		c0,0.1-0.1,0.3-0.2,0.4l-1.4,1.4c-0.1,0.1-0.2,0.1-0.4,0.1l-4.2-0.1c-0.3,0-0.5-0.2-0.5-0.5c0-0.3,0.2-0.5,0.5-0.5l4,0.1l1.1-1.1
		l0.1-7.5l-1.1-1.1l-4-0.1C96.8,175.8,96.5,175.6,96.5,175.3z"/>
	<path class="st0" d="M88.5,174.5c0-0.3,0.3-0.5,0.6-0.5l3.8,0.4c0.1,0,0.3,0.1,0.3,0.2l1.2,1.5c0.1,0.1,0.1,0.2,0.1,0.4l-1,9.4
		c0,0.3-0.3,0.5-0.6,0.5c-0.3,0-0.5-0.3-0.5-0.6l1-9.2l-0.9-1.2l-3.6-0.4C88.6,175.1,88.4,174.8,88.5,174.5z"/>
	<path class="st0" d="M80.2,172.8c0.1-0.3,0.3-0.5,0.6-0.4l5.5,1.2c0.3,0.1,0.5,0.3,0.4,0.6s-0.3,0.5-0.6,0.4l-2.3-0.5l-2.1,9.6
		l2.3,0.5c0.3,0.1,0.5,0.3,0.4,0.6s-0.3,0.5-0.6,0.4l-5.5-1.2c-0.3-0.1-0.5-0.3-0.4-0.6c0.1-0.3,0.3-0.5,0.6-0.4l2.2,0.5l2.2-9.6
		l-2.2-0.5C80.3,173.3,80.1,173.1,80.2,172.8z"/>
	<path class="st0" d="M72.2,170.1c0.1-0.3,0.4-0.4,0.7-0.3l4,1.4c0.1,0,0.2,0.1,0.3,0.3l0.9,1.8c0.1,0.1,0.1,0.3,0,0.4l-2.6,7.5
		c0,0.1-0.1,0.2-0.3,0.3l-1.8,0.9c-0.1,0.1-0.3,0.1-0.4,0l-4-1.4c-0.3-0.1-0.4-0.4-0.3-0.7s0.4-0.4,0.7-0.3l3.8,1.3l1.4-0.7l2.4-7.1
		l-0.7-1.4l-3.8-1.3C72.2,170.7,72.1,170.4,72.2,170.1z"/>
	<path class="st0" d="M64.9,166.3c0.1,0,0.2,0,0.3,0c0.1,0.1,0.3,0.2,0.3,0.4l0.9,6.2l1.2,0.6l2.1-4.4c0.1-0.3,0.4-0.4,0.7-0.2
		s0.4,0.4,0.2,0.7l-4.7,9.8c-0.1,0.3-0.4,0.4-0.7,0.2c-0.3-0.1-0.4-0.4-0.2-0.7l2.1-4.5l-1.2-0.6l-5.4,3.2c-0.2,0.1-0.5,0.1-0.7-0.2
		c-0.1-0.2-0.1-0.5,0.2-0.7l5.3-3.2l-0.9-6.1C64.4,166.6,64.6,166.3,64.9,166.3z"/>
	<path class="st0" d="M53.5,159.4c0.2-0.2,0.5-0.3,0.7-0.1l4.6,3.3c0.2,0.2,0.3,0.5,0.1,0.7c-0.2,0.2-0.5,0.3-0.7,0.1l-1.9-1.4
		l-5.7,8l1.9,1.4c0.2,0.2,0.3,0.5,0.1,0.7c-0.2,0.2-0.5,0.3-0.7,0.1l-4.6-3.3c-0.2-0.2-0.3-0.5-0.1-0.7c0.2-0.2,0.5-0.3,0.7-0.1
		l1.8,1.3l5.7-8l-1.8-1.3C53.4,160,53.3,159.6,53.5,159.4z"/>
	<path class="st0" d="M40.2,160.3L40.2,160.3c0.2-0.2,0.5-0.2,0.7,0l0,0c0.2,0.2,0.2,0.5,0,0.7l-0.6,0.7l1.6,1.5l6.9-7.6
		c0.2-0.2,0.5-0.2,0.7,0s0.2,0.5,0,0.7l-6.9,7.6l1.6,1.4l0.6-0.6c0.2-0.2,0.5-0.2,0.7,0l0,0c0.2,0.2,0.2,0.5,0,0.7l-1,1
		c-0.2,0.2-0.5,0.2-0.7,0l-4.8-4.3c-0.2-0.2-0.2-0.5,0-0.7L40.2,160.3z"/>
	<path class="st0" d="M27.2,145.8l11.7-2.8c0.2-0.1,0.4,0,0.5,0.2c0,0.1,0.1,0.1,0.1,0.2c0.1,0.3-0.1,0.6-0.4,0.6l-11.7,2.8
		c-0.3,0.1-0.6-0.1-0.6-0.4C26.7,146.2,26.9,145.9,27.2,145.8z M30.4,150.3l11.7-2.8c0.2-0.1,0.4,0,0.5,0.2c0,0.1,0.1,0.1,0.1,0.2
		c0.1,0.3-0.1,0.6-0.4,0.6l-11.7,2.8c-0.3,0.1-0.6-0.1-0.6-0.4C30,150.7,30.1,150.4,30.4,150.3z"/>
	<path class="st0" d="M26.9,128.7c0,0,0.1,0,0.1,0c0,0,0,0,0.1,0l4,1c0.2,0,0.3,0.2,0.4,0.3l1.6,3.5c0.1,0.1,0.1,0.3,0,0.4
		c0,0.1-0.1,0.2-0.3,0.3l-6.8,3c-0.1,0-0.2,0.1-0.3,0l-4-1c-0.2,0-0.3-0.2-0.4-0.3l-1.1-2.5c-0.1-0.3,0-0.6,0.3-0.7s0.6,0,0.7,0.3
		l1,2.2l3.5,0.8l6.2-2.8l-1.2-2.8l-3.5-0.9l-1.3,0.6l0.8,1.9c0.1,0.3,0,0.6-0.3,0.7s-0.6,0-0.7-0.3l-1-2.3c-0.1-0.3,0-0.6,0.3-0.7
		l1.9-0.9c0,0,0,0,0.1,0C26.8,128.7,26.9,128.7,26.9,128.7z"/>
	<path class="st0" d="M18.1,121.9l-0.9,0.3l1.5,4.9l4.5-1.4l-1.1-3.5c-0.1-0.3,0.1-0.6,0.4-0.7c0.3-0.1,0.6,0.1,0.7,0.4l1.1,3.5
		l3.7-1.1l-1.7-5.4c-0.1-0.3,0.1-0.6,0.3-0.7c0.3-0.1,0.6,0.1,0.7,0.3l1.8,5.9c0.1,0.3-0.1,0.6-0.3,0.7l-4.2,1.3l0,0.1
		c0.1,0.3-0.1,0.6-0.4,0.7s-0.6-0.1-0.7-0.4l0-0.1l-5,1.5c-0.3,0.1-0.6-0.1-0.6-0.3l-1.8-5.9c-0.1-0.3,0.1-0.6,0.3-0.7l1.4-0.4
		c0.3-0.1,0.6,0.1,0.7,0.3C18.6,121.5,18.4,121.8,18.1,121.9z"/>
	<path class="st0" d="M15.8,110.7L15.8,110.7c0.3,0,0.6,0.1,0.6,0.4l0,0c0,0.3-0.1,0.6-0.4,0.6l-0.9,0.2l0.4,2.2l10.1-1.7
		c0.3-0.1,0.6,0.1,0.6,0.4s-0.1,0.6-0.4,0.6l-10.1,1.7l0.4,2.1l0.9-0.1c0.3,0,0.6,0.1,0.6,0.4l0,0c0,0.3-0.1,0.6-0.4,0.6l-1.4,0.2
		c-0.3,0-0.6-0.1-0.6-0.4l-1.1-6.3c0-0.3,0.1-0.6,0.4-0.6L15.8,110.7z"/>
	<path class="st0" d="M14.1,95.1l5.2,3.2l5.4,0.1c0.3,0,0.5,0.3,0.5,0.6s-0.3,0.5-0.6,0.5l-5.4-0.1l-5.3,3.1
		c-0.3,0.2-0.6,0.1-0.7-0.2c-0.2-0.3-0.1-0.6,0.2-0.7l4.6-2.7L13.6,96c-0.2-0.2-0.3-0.5-0.2-0.7S13.9,95,14.1,95.1z"/>
	<path class="st0" d="M18.2,85.1l7.7,1c0.1,0,0.3,0.1,0.4,0.2c0.1,0.1,0.1,0.3,0.1,0.4c0,0-0.5,3.6-0.5,3.8c0,0.2-0.1,0.3-0.3,0.4
		l-3.5,2C22,93,21.8,93,21.7,93L14,92c-0.3,0-0.5-0.3-0.5-0.6l0.5-3.8c0-0.2,0.1-0.3,0.3-0.4l3.6-2C18,85.1,18.1,85.1,18.2,85.1z
		 M25.3,87.1l-7-0.9L15.1,88l-0.4,3l7,0.9l3.2-1.8L25.3,87.1z"/>
	<path class="st0" d="M17.5,74.6l9.2,2.4c0.1,0,0.2,0.1,0.3,0.2l1,1.7c0.1,0.1,0.1,0.3,0.1,0.4l-0.9,3.4c0,0.1-0.1,0.2-0.2,0.3
		l-1.7,1c-0.1,0.1-0.3,0.1-0.4,0.1l-9.2-2.4c-0.3-0.1-0.4-0.4-0.4-0.6s0.4-0.4,0.6-0.4l9,2.3l1.3-0.8l0.8-3l-0.8-1.3l-9-2.3
		c-0.3-0.1-0.4-0.4-0.4-0.6S17.2,74.5,17.5,74.6z"/>
	<path class="st0" d="M27.3,67.9l3.7,1.5c0.3,0.1,0.4,0.4,0.3,0.7c-0.1,0.3-0.4,0.4-0.7,0.3L27.1,69l-1.5,0.7l-1.3,3.2l4.6,1.8
		c0.3,0.1,0.4,0.4,0.3,0.7c-0.1,0.3-0.4,0.4-0.7,0.3l-10.1-4c-0.3-0.1-0.4-0.4-0.3-0.7l1.5-3.9c0-0.1,0.1-0.2,0.3-0.3l1.8-0.8
		c0.1-0.1,0.3-0.1,0.4,0l2.4,1c0.1,0.1,0.2,0.2,0.3,0.3l0.6,1.3l1.5-0.6C27.1,67.9,27.2,67.9,27.3,67.9z M24.6,69.3L24,67.9l-2-0.8
		l-1.4,0.6l-1.3,3.2l4,1.6L24.6,69.3z"/>
	<path class="st0" d="M29.8,52.3L29.8,52.3c0.2,0.2,0.3,0.5,0.2,0.7l0,0c-0.2,0.2-0.5,0.3-0.7,0.2l-0.7-0.4l-1.2,1.9L36,60
		c0.2,0.2,0.3,0.5,0.2,0.7C36,61,35.7,61,35.5,60.9l-8.7-5.4l-1.1,1.8l0.7,0.5c0.2,0.2,0.3,0.5,0.2,0.7l0,0
		c-0.2,0.2-0.5,0.3-0.7,0.2l-1.2-0.8c-0.2-0.2-0.3-0.5-0.2-0.7l3.4-5.5c0.1-0.2,0.5-0.3,0.7-0.2L29.8,52.3z"/>
	<path class="st0" d="M43,50.6c0.2,0.2,0.3,0.5,0.1,0.7l-3.5,4.4c-0.2,0.2-0.5,0.3-0.7,0.1c-0.2-0.2-0.3-0.5-0.1-0.7l1.5-1.8
		l-7.7-6.1L31.1,49c-0.2,0.2-0.5,0.3-0.7,0.1c-0.2-0.2-0.3-0.5-0.1-0.7l3.5-4.4c0.2-0.2,0.5-0.3,0.7-0.1c0.2,0.2,0.3,0.5,0.1,0.7
		l-1.4,1.7l7.7,6.1l1.4-1.7C42.5,50.5,42.8,50.4,43,50.6z"/>
	<path class="st0" d="M48.9,44.6c0.2,0.2,0.2,0.5,0,0.7l-3,3c-0.1,0.1-0.2,0.2-0.4,0.2l-1.9,0c-0.1,0-0.3-0.1-0.4-0.2l-5.6-5.6
		c-0.1-0.1-0.2-0.2-0.2-0.4l0-1.9c0-0.1,0.1-0.3,0.2-0.4l3-3c0.2-0.2,0.5-0.2,0.7,0c0.2,0.2,0.2,0.5,0,0.7l-2.8,2.8l0,1.5l5.3,5.3
		l1.5,0l2.8-2.8C48.3,44.4,48.7,44.4,48.9,44.6z"/>
	<path class="st0" d="M55.5,39.6c0,0.1-0.1,0.2-0.2,0.2c-0.1,0.1-0.3,0.1-0.5,0.1L49,38.1l-1.1,0.8l3.1,3.8c0.2,0.2,0.1,0.5-0.1,0.7
		c-0.2,0.2-0.5,0.1-0.7-0.1l-6.8-8.5c-0.2-0.2-0.1-0.5,0.1-0.7c0.2-0.2,0.5-0.1,0.7,0.1l3.1,3.9l1.1-0.8L47.8,31
		c0-0.3,0.2-0.5,0.5-0.5c0.3,0,0.5,0.2,0.5,0.5l0.6,6.2l5.9,1.8C55.5,39.1,55.6,39.3,55.5,39.6z"/>
	<path class="st0" d="M57.8,26.6l-0.5-0.8l-4.4,2.7l2.5,4l3.1-2c0.3-0.2,0.6-0.1,0.7,0.2s0.1,0.6-0.2,0.7l-3.1,2l2.1,3.3l4.8-3
		c0.2-0.2,0.6-0.1,0.7,0.2s0.1,0.6-0.2,0.7l-5.3,3.3c-0.2,0.2-0.6,0.1-0.7-0.2L55.1,34L55,34.1c-0.3,0.2-0.6,0.1-0.7-0.2
		s-0.1-0.6,0.2-0.7l0.1-0.1l-2.8-4.4c-0.2-0.2-0.1-0.6,0.2-0.7l5.3-3.3c0.2-0.2,0.6-0.1,0.7,0.2l0.8,1.2c0.2,0.2,0.1,0.6-0.2,0.7
		C58.2,26.9,57.9,26.8,57.8,26.6z"/>
	<path class="st0" d="M68,21.3L68,21.3c0.1,0.3,0,0.6-0.2,0.7l0,0c-0.3,0.1-0.6,0-0.7-0.3L66.6,21l-2,0.9l4.3,9.3
		c0.1,0.3,0,0.6-0.3,0.7c-0.3,0.1-0.6,0-0.7-0.3l-4.3-9.3l-1.9,0.9l0.4,0.8c0.1,0.3,0,0.6-0.3,0.7l0,0c-0.3,0.1-0.6,0-0.7-0.3
		l-0.6-1.3c-0.1-0.3,0-0.6,0.3-0.7l5.8-2.7c0.3-0.1,0.6,0,0.7,0.3L68,21.3z"/>
	<path class="st0" d="M81,16.3l-2,11.9c0,0.2-0.2,0.4-0.4,0.4c-0.1,0-0.1,0-0.2,0c-0.3,0-0.5-0.3-0.4-0.6l2-11.9
		c0-0.3,0.3-0.5,0.6-0.4C80.8,15.7,81,16,81,16.3z M86.4,15l-2,11.9c0,0.2-0.2,0.4-0.4,0.4c-0.1,0-0.1,0-0.2,0
		c-0.3,0-0.5-0.3-0.4-0.6l2-11.9c0-0.3,0.3-0.5,0.6-0.4C86.2,14.5,86.4,14.7,86.4,15z"/>
</g>
</svg>
