<?xml version="1.0" encoding="utf-8"?>
<!-- Generator: Adobe Illustrator 24.0.2, SVG Export Plug-In . SVG Version: 6.00 Build 0)  -->
<svg version="1.1" id="Layer_1" xmlns="http://www.w3.org/2000/svg" xmlns:xlink="http://www.w3.org/1999/xlink" x="0px" y="0px"
	 viewBox="0 0 200 200" style="enable-background:new 0 0 200 200;" xml:space="preserve">
<style type="text/css">
	.st0{fill:#FF0000;}
</style>
<g>
	<path class="st0" d="M106.4,15.5l-0.3,8c0,0.1-0.1,0.3-0.2,0.4l-1.4,1.3c-0.1,0.1-0.2,0.1-0.4,0.1l-4.9-0.2c-0.3,0-0.5-0.3-0.5-0.5
		l0.3-10.7c0-0.3,0.3-0.5,0.5-0.5l4.9,0.2c0.1,0,0.3,0.1,0.4,0.2l1.3,1.4C106.4,15.2,106.4,15.3,106.4,15.5z M105.3,15.6l-1-1.1
		l-4.2-0.1l-0.3,9.7l4.2,0.1l1.1-1L105.3,15.6z"/>
	<path class="st0" d="M117,15.4l-0.8,5.4c0,0.1,0,0.2-0.1,0.2l-3.9,4.8c-0.1,0.1-0.3,0.2-0.5,0.2c-0.2,0-0.3-0.2-0.4-0.3l-2.3-5.8
		c0-0.1,0-0.2,0-0.3l0.8-5.4c0-0.3,0.3-0.5,0.6-0.4c0.3,0,0.5,0.3,0.4,0.6l-0.8,5.3l1.9,4.8l3.3-4l0.8-5.3c0-0.3,0.3-0.5,0.6-0.4
		C116.8,14.8,117,15.1,117,15.4z"/>
	<path class="st0" d="M123.3,28.3c-0.1,0.3-0.4,0.4-0.6,0.4l-3.7-1c-0.1,0-0.2-0.1-0.3-0.2l-1-1.7c-0.1-0.1-0.1-0.3,0-0.4l2.5-9.1
		c0.1-0.3,0.4-0.4,0.6-0.4s0.4,0.4,0.4,0.6l-2.5,8.9l0.7,1.3l3.5,1C123.2,27.7,123.3,28,123.3,28.3z"/>
	<path class="st0" d="M134.9,22.6l-1,2.4c-0.1,0.1-0.2,0.2-0.3,0.3l-1.8,0.8c-0.1,0.1-0.3,0.1-0.4,0l-3.4-1.4l-1.9,4.6
		c-0.1,0.3-0.4,0.4-0.7,0.3c-0.3-0.1-0.4-0.4-0.3-0.7l4.1-10.1c0.1-0.3,0.4-0.4,0.7-0.3l3.9,1.6c0.1,0.1,0.2,0.2,0.3,0.3l0.8,1.8
		C134.9,22.3,134.9,22.4,134.9,22.6z M133.8,22.4l-0.6-1.4l-3.2-1.3l-1.6,4l3.2,1.3l1.4-0.6L133.8,22.4z"/>
	<path class="st0" d="M147.9,28.7l-10.1,6.7c-0.2,0.1-0.4,0.1-0.6,0c-0.1,0-0.1-0.1-0.1-0.1c-0.2-0.2-0.1-0.6,0.1-0.7l10.1-6.7
		c0.2-0.2,0.6-0.1,0.7,0.1C148.2,28.2,148.1,28.6,147.9,28.7z M152.5,31.8l-10.1,6.7c-0.2,0.1-0.4,0.1-0.6,0c-0.1,0-0.1-0.1-0.1-0.1
		c-0.2-0.2-0.1-0.6,0.1-0.7l10.1-6.7c0.2-0.2,0.6-0.1,0.7,0.1C152.8,31.3,152.7,31.7,152.5,31.8z"/>
	<path class="st0" d="M163.5,43.8l-5.7,5.5c-0.1,0.1-0.2,0.1-0.4,0.1l-1.9,0c-0.1,0-0.3-0.1-0.4-0.2l-3.4-3.5
		c-0.2-0.2-0.2-0.5,0-0.7l7.7-7.5c0.2-0.2,0.5-0.2,0.7,0l3.4,3.5c0.1,0.1,0.1,0.2,0.1,0.4l0,1.9C163.7,43.6,163.6,43.7,163.5,43.8z
		 M162.6,43.2l0-1.5l-2.9-3l-7,6.7l2.9,3l1.5,0L162.6,43.2z"/>
	<path class="st0" d="M171.2,51.2l-8.7,6.5c-0.2,0.2-0.6,0.1-0.7-0.1c-0.2-0.2-0.1-0.6,0.1-0.7l3.7-2.8l0.9-7.2l-7.7,5.8
		c-0.2,0.2-0.6,0.1-0.7-0.1c-0.2-0.2-0.1-0.6,0.1-0.7l8.7-6.5c0.2-0.1,0.4-0.1,0.6,0c0.2,0.1,0.3,0.3,0.3,0.5l-0.9,7.5l3.9-2.9
		c0.2-0.2,0.6-0.1,0.7,0.1C171.4,50.7,171.4,51,171.2,51.2z"/>
	<path class="st0" d="M176.6,60.3l-4.8,2.7c-0.1,0-0.2,0.1-0.3,0.1l-6.2,0c-0.2,0-0.4-0.1-0.4-0.3c-0.1-0.2-0.1-0.4,0-0.5l3.1-5.4
		c0.1-0.1,0.1-0.1,0.2-0.2l4.8-2.7c0.2-0.1,0.6-0.1,0.7,0.2c0.1,0.2,0.1,0.6-0.2,0.7l-4.6,2.7l-2.6,4.5l5.2,0l4.6-2.7
		c0.2-0.1,0.6-0.1,0.7,0.2C177,59.8,176.9,60.2,176.6,60.3z"/>
	<path class="st0" d="M174.4,72.1l-3.7,1.6c-0.3,0.1-0.6,0-0.7-0.3s0-0.6,0.3-0.7l3.5-1.5l0.6-1.6l-1.4-3.2l-4.6,2
		c-0.3,0.1-0.6,0-0.7-0.3s0-0.6,0.3-0.7l10-4.3c0.3-0.1,0.6,0,0.7,0.3l1.6,3.9c0.1,0.1,0.1,0.3,0,0.4l-0.7,1.8
		c-0.1,0.1-0.2,0.2-0.3,0.3l-2.4,1c-0.1,0.1-0.3,0.1-0.4,0l-1.3-0.5l-0.6,1.5C174.6,71.9,174.5,72.1,174.4,72.1z M175.4,69.3
		l1.4,0.6l2-0.9l0.6-1.4l-1.4-3.2l-4,1.7L175.4,69.3z"/>
	<path class="st0" d="M184.3,83.5l-11.8-2.4c-0.2,0-0.4-0.2-0.4-0.4c0-0.1,0-0.1,0-0.2c0.1-0.3,0.3-0.5,0.6-0.4l11.8,2.4
		c0.3,0.1,0.5,0.3,0.4,0.6C184.9,83.4,184.6,83.6,184.3,83.5z M185.4,89l-11.8-2.4c-0.2,0-0.4-0.2-0.4-0.4c0-0.1,0-0.1,0-0.2
		c0.1-0.3,0.3-0.5,0.6-0.4l11.8,2.4c0.3,0.1,0.5,0.3,0.4,0.6C185.9,88.9,185.6,89.1,185.4,89z"/>
	<path class="st0" d="M184.6,105.3l-8-0.2c-0.1,0-0.3-0.1-0.4-0.2l-1.4-1.4c-0.1-0.1-0.1-0.2-0.1-0.4l0.1-4.9c0-0.3,0.2-0.5,0.5-0.5
		l10.7,0.2c0.3,0,0.5,0.2,0.5,0.5l-0.1,4.9c0,0.1-0.1,0.3-0.2,0.4l-1.4,1.4C184.9,105.2,184.8,105.3,184.6,105.3z M184.4,104.2
		l1.1-1.1l0.1-4.2l-9.7-0.2l-0.1,4.2l1.1,1.1L184.4,104.2z"/>
	<path class="st0" d="M184.8,115.9l-5.4-0.8c-0.1,0-0.2,0-0.3-0.1l-4.9-3.9c-0.1-0.1-0.2-0.3-0.2-0.5s0.1-0.3,0.3-0.4l5.8-2.4
		c0.1,0,0.2,0,0.3,0l5.4,0.8c0.3,0,0.5,0.3,0.4,0.6c0,0.3-0.3,0.5-0.6,0.4l-5.3-0.8l-4.8,2l4.1,3.2l5.3,0.8c0.3,0,0.5,0.3,0.4,0.6
		C185.4,115.7,185.1,115.9,184.8,115.9z"/>
	<path class="st0" d="M172.1,122.3c-0.3-0.1-0.4-0.4-0.4-0.6l1-3.7c0-0.1,0.1-0.2,0.2-0.3l1.7-1c0.1-0.1,0.3-0.1,0.4-0.1l9.2,2.4
		c0.3,0.1,0.4,0.4,0.4,0.6s-0.4,0.4-0.6,0.4l-9-2.4l-1.3,0.8l-0.9,3.5C172.6,122.2,172.3,122.4,172.1,122.3z"/>
	<path class="st0" d="M177.9,133.8l-2.4-0.9c-0.1-0.1-0.2-0.1-0.3-0.3l-0.8-1.8c-0.1-0.1-0.1-0.3,0-0.4l1.3-3.4l-4.6-1.8
		c-0.3-0.1-0.4-0.4-0.3-0.7c0.1-0.3,0.4-0.4,0.7-0.3l10.1,3.9c0.3,0.1,0.4,0.4,0.3,0.7l-1.5,3.9c-0.1,0.1-0.1,0.2-0.3,0.3l-1.8,0.8
		C178.2,133.9,178,133.9,177.9,133.8z M178.1,132.8l1.4-0.6l1.3-3.2l-4-1.6l-1.3,3.2l0.6,1.4L178.1,132.8z"/>
	<path class="st0" d="M168.9,151.6l-6.8-10c-0.1-0.2-0.1-0.4,0-0.6c0-0.1,0.1-0.1,0.1-0.1c0.2-0.2,0.6-0.1,0.7,0.1l6.8,10
		c0.2,0.2,0.1,0.6-0.1,0.7C169.4,151.9,169.1,151.8,168.9,151.6z M171.9,146.9l-6.8-10c-0.1-0.2-0.1-0.4,0-0.6
		c0-0.1,0.1-0.1,0.1-0.1c0.2-0.2,0.6-0.1,0.7,0.1l6.8,10c0.2,0.2,0.1,0.6-0.1,0.7C172.4,147.2,172.1,147.2,171.9,146.9z"/>
	<path class="st0" d="M157,162.7l-5.6-5.7c-0.1-0.1-0.2-0.2-0.2-0.4l0-1.9c0-0.1,0.1-0.3,0.2-0.4l3.5-3.5c0.2-0.2,0.5-0.2,0.7,0
		l7.6,7.6c0.2,0.2,0.2,0.5,0,0.7l-3.5,3.5c-0.1,0.1-0.2,0.1-0.4,0.1l-1.9,0C157.2,162.9,157.1,162.8,157,162.7z M157.6,161.9l1.5,0
		l3-2.9l-6.8-6.9l-3,2.9l0,1.5L157.6,161.9z"/>
	<path class="st0" d="M149.8,170.5l-6.6-8.6c-0.2-0.2-0.1-0.6,0.1-0.7c0.2-0.2,0.6-0.1,0.7,0.1l2.8,3.6l7.3,0.8l-5.9-7.6
		c-0.2-0.2-0.1-0.6,0.1-0.7s0.6-0.1,0.7,0.1l6.6,8.6c0.1,0.2,0.1,0.4,0,0.6c-0.1,0.2-0.3,0.3-0.5,0.3l-7.5-0.8l3,3.8
		c0.2,0.2,0.1,0.6-0.1,0.7S150,170.7,149.8,170.5z"/>
	<path class="st0" d="M140.7,176.1l-2.8-4.7c0-0.1-0.1-0.2-0.1-0.3l0-6.2c0-0.2,0.1-0.4,0.3-0.5c0.2-0.1,0.4-0.1,0.5,0l5.5,3
		c0.1,0.1,0.1,0.1,0.2,0.2l2.8,4.7c0.1,0.2,0.1,0.6-0.2,0.7c-0.2,0.1-0.6,0.1-0.7-0.2l-2.7-4.6l-4.6-2.5l0,5.2l2.7,4.6
		c0.1,0.2,0.1,0.6-0.2,0.7C141.2,176.4,140.9,176.3,140.7,176.1z"/>
	<path class="st0" d="M128.9,174l-1.6-3.7c-0.1-0.3,0-0.6,0.3-0.7c0.3-0.1,0.6,0,0.7,0.3l1.5,3.5l1.6,0.6l3.2-1.4l-2-4.6
		c-0.1-0.3,0-0.6,0.3-0.7c0.3-0.1,0.6,0,0.7,0.3l4.4,10c0.1,0.3,0,0.6-0.3,0.7l-3.8,1.7c-0.1,0.1-0.3,0.1-0.4,0l-1.8-0.7
		c-0.1-0.1-0.2-0.1-0.3-0.3l-1.1-2.4c-0.1-0.1-0.1-0.3,0-0.4l0.5-1.3l-1.5-0.6C129,174.2,128.9,174.1,128.9,174z M131.7,175
		l-0.5,1.4l0.9,2l1.4,0.5l3.2-1.4l-1.7-4L131.7,175z"/>
	<path class="st0" d="M112.1,185.2l2.2-11.9c0-0.2,0.2-0.4,0.4-0.4c0.1,0,0.1,0,0.2,0c0.3,0.1,0.5,0.3,0.4,0.6l-2.2,11.9
		c-0.1,0.3-0.3,0.5-0.6,0.4C112.3,185.8,112.1,185.5,112.1,185.2z M117.6,184.1l2.2-11.9c0-0.2,0.2-0.4,0.4-0.4c0.1,0,0.1,0,0.2,0
		c0.3,0.1,0.5,0.3,0.4,0.6l-2.2,11.9c-0.1,0.3-0.3,0.5-0.6,0.4C117.7,184.6,117.5,184.4,117.6,184.1z"/>
	<path class="st0" d="M95.8,184.6l0.1-8c0-0.1,0.1-0.3,0.2-0.4l1.4-1.4c0.1-0.1,0.2-0.1,0.4-0.1l4.9,0.1c0.3,0,0.5,0.2,0.5,0.5
		l-0.2,10.7c0,0.3-0.2,0.5-0.5,0.5l-4.9-0.1c-0.1,0-0.3-0.1-0.4-0.2L96,185C95.9,184.9,95.8,184.8,95.8,184.6z M96.9,184.4l1.1,1.1
		l4.2,0.1l0.2-9.7l-4.2-0.1l-1.1,1.1L96.9,184.4z"/>
	<path class="st0" d="M85.3,185l0.7-5.4c0-0.1,0-0.2,0.1-0.3l3.8-4.9c0.1-0.1,0.3-0.2,0.5-0.2c0.2,0,0.3,0.1,0.4,0.3l2.4,5.7
		c0,0.1,0,0.2,0,0.3l-0.7,5.4c0,0.3-0.3,0.5-0.6,0.5s-0.5-0.3-0.5-0.6l0.7-5.3l-2-4.8l-3.2,4.1l-0.7,5.3c0,0.3-0.3,0.5-0.6,0.5
		C85.5,185.6,85.3,185.3,85.3,185z"/>
	<path class="st0" d="M78.7,172.3c0.1-0.3,0.4-0.4,0.6-0.4l3.7,0.9c0.1,0,0.2,0.1,0.3,0.2l1,1.7c0.1,0.1,0.1,0.3,0.1,0.4l-2.3,9.2
		c-0.1,0.3-0.4,0.4-0.6,0.4c-0.3-0.1-0.4-0.4-0.4-0.6l2.2-9l-0.8-1.3l-3.5-0.9C78.8,172.9,78.6,172.6,78.7,172.3z"/>
	<path class="st0" d="M67.2,178.4l0.9-2.5c0-0.1,0.1-0.2,0.3-0.3l1.8-0.8c0.1-0.1,0.3-0.1,0.4,0l3.4,1.3l1.7-4.7
		c0.1-0.3,0.4-0.4,0.7-0.3s0.4,0.4,0.3,0.7L73,182c-0.1,0.3-0.4,0.4-0.7,0.3l-3.9-1.5c-0.1,0-0.2-0.1-0.3-0.3l-0.8-1.8
		C67.2,178.6,67.2,178.5,67.2,178.4z M68.3,178.5l0.6,1.4l3.2,1.2l1.5-4.1l-3.2-1.2l-1.4,0.6L68.3,178.5z"/>
	<path class="st0" d="M49.3,169.6l9.9-6.9c0.2-0.1,0.4-0.1,0.6,0c0.1,0,0.1,0.1,0.1,0.1c0.2,0.2,0.1,0.6-0.1,0.7l-9.9,6.9
		c-0.2,0.2-0.6,0.1-0.7-0.1C49,170.1,49.1,169.7,49.3,169.6z M54,172.5l9.9-6.9c0.2-0.1,0.4-0.1,0.6,0c0.1,0,0.1,0.1,0.1,0.1
		c0.2,0.2,0.1,0.6-0.1,0.7l-9.9,6.9c-0.2,0.2-0.6,0.1-0.7-0.1C53.7,173,53.8,172.7,54,172.5z"/>
	<path class="st0" d="M38,157.9l5.6-5.7c0.1-0.1,0.2-0.2,0.4-0.2l1.9,0c0.1,0,0.3,0.1,0.4,0.1l3.5,3.5c0.2,0.2,0.2,0.5,0,0.7
		l-7.5,7.7c-0.2,0.2-0.5,0.2-0.7,0l-3.5-3.5c-0.1-0.1-0.2-0.2-0.2-0.4l0-1.9C37.9,158.1,37.9,158,38,157.9z M38.9,158.4l0,1.5l3,2.9
		l6.8-6.9l-3-2.9l-1.5,0L38.9,158.4z"/>
	<path class="st0" d="M30.2,150.7l8.5-6.8c0.2-0.2,0.6-0.1,0.7,0.1c0.2,0.2,0.1,0.6-0.1,0.7l-3.6,2.8l-0.7,7.3l7.5-6
		c0.2-0.2,0.6-0.1,0.7,0.1s0.1,0.6-0.1,0.7l-8.5,6.8c-0.2,0.1-0.4,0.1-0.6,0c-0.2-0.1-0.3-0.3-0.3-0.5l0.7-7.5l-3.8,3
		c-0.2,0.2-0.6,0.1-0.7-0.1C29.9,151.2,30,150.9,30.2,150.7z"/>
	<path class="st0" d="M24.5,141.8l4.7-2.9c0.1,0,0.2-0.1,0.3-0.1l6.2-0.1c0.2,0,0.4,0.1,0.5,0.3c0.1,0.2,0.1,0.4,0,0.5l-3,5.5
		c0,0.1-0.1,0.1-0.2,0.2l-4.7,2.9c-0.2,0.1-0.6,0.1-0.7-0.2c-0.1-0.2-0.1-0.6,0.2-0.7l4.6-2.8l2.5-4.6l-5.2,0.1l-4.6,2.8
		c-0.2,0.1-0.6,0.1-0.7-0.2C24.2,142.2,24.2,141.9,24.5,141.8z"/>
	<path class="st0" d="M26.4,129.9l3.6-1.7c0.3-0.1,0.6,0,0.7,0.3c0.1,0.3,0,0.6-0.3,0.7l-3.4,1.6l-0.6,1.6l1.4,3.1l4.5-2.1
		c0.3-0.1,0.6,0,0.7,0.3c0.1,0.3,0,0.6-0.3,0.7l-9.9,4.5c-0.3,0.1-0.6,0-0.7-0.3l-1.7-3.8c-0.1-0.1-0.1-0.3,0-0.4l0.7-1.8
		c0-0.1,0.1-0.2,0.3-0.3l2.4-1.1c0.1-0.1,0.3-0.1,0.4,0l1.3,0.5l0.6-1.5C26.2,130.1,26.3,129.9,26.4,129.9z M25.5,132.8l-1.4-0.5
		l-2,0.9l-0.5,1.4l1.4,3.1l3.9-1.8L25.5,132.8z"/>
	<path class="st0" d="M15,113.3l11.9,2.1c0.2,0,0.4,0.2,0.4,0.4c0,0.1,0,0.1,0,0.2c0,0.3-0.3,0.5-0.6,0.4l-11.9-2.1
		c-0.3-0.1-0.5-0.3-0.4-0.6C14.4,113.4,14.7,113.2,15,113.3z M16.2,118.7l11.9,2.1c0.2,0,0.4,0.2,0.4,0.4c0,0.1,0,0.1,0,0.2
		c0,0.3-0.3,0.5-0.6,0.4L16,119.8c-0.3-0.1-0.5-0.3-0.4-0.6C15.6,118.9,15.9,118.7,16.2,118.7z"/>
	<path class="st0" d="M15.2,97l8-0.1c0.1,0,0.3,0.1,0.4,0.1l1.4,1.4c0.1,0.1,0.2,0.2,0.2,0.4l0.1,4.9c0,0.3-0.2,0.5-0.5,0.5
		L14,104.4c-0.3,0-0.5-0.2-0.5-0.5L13.4,99c0-0.1,0.1-0.3,0.1-0.4l1.4-1.4C15,97.1,15.1,97,15.2,97z M15.5,98.1l-1.1,1.1l0.1,4.2
		l9.7-0.2L24.1,99L23,98L15.5,98.1z"/>
	<path class="st0" d="M14.8,86.5l5.4,0.6c0.1,0,0.2,0,0.3,0.1l5,3.7c0.1,0.1,0.2,0.3,0.2,0.5c0,0.2-0.1,0.3-0.3,0.4l-5.7,2.5
		c-0.1,0-0.2,0-0.3,0l-5.4-0.6c-0.3,0-0.5-0.3-0.5-0.6c0-0.3,0.3-0.5,0.6-0.5l5.3,0.6l4.8-2.1L20,88.1l-5.3-0.6
		c-0.3,0-0.5-0.3-0.5-0.6C14.2,86.6,14.5,86.4,14.8,86.5z"/>
	<path class="st0" d="M27.4,79.7c0.3,0.1,0.5,0.3,0.4,0.6L26.9,84c0,0.1-0.1,0.3-0.2,0.3l-1.7,1c-0.1,0.1-0.3,0.1-0.4,0.1l-9.3-2.2
		c-0.3-0.1-0.5-0.3-0.4-0.6c0.1-0.3,0.4-0.5,0.6-0.4l9,2.1l1.3-0.8l0.8-3.5C26.8,79.8,27.1,79.6,27.4,79.7z"/>
	<path class="st0" d="M21.2,68.3l2.5,0.9c0.1,0,0.2,0.1,0.3,0.3l0.8,1.8c0.1,0.1,0.1,0.3,0,0.4l-1.2,3.5l4.7,1.7
		c0.3,0.1,0.4,0.4,0.3,0.7s-0.4,0.4-0.7,0.3l-10.2-3.7c-0.3-0.1-0.4-0.4-0.3-0.7l1.4-3.9c0-0.1,0.1-0.2,0.3-0.3l1.8-0.8
		C20.9,68.3,21.1,68.3,21.2,68.3z M21.1,69.4L19.7,70l-1.2,3.3l4.1,1.5l1.2-3.3l-0.6-1.4L21.1,69.4z"/>
	<path class="st0" d="M26.8,55l7.1,9.8c0.1,0.2,0.1,0.4,0,0.6c0,0.1-0.1,0.1-0.1,0.2c-0.2,0.2-0.6,0.1-0.7-0.1L26,55.6
		c-0.2-0.2-0.1-0.6,0.1-0.7C26.3,54.7,26.7,54.8,26.8,55z M29.8,50.3l7.1,9.8c0.1,0.2,0.1,0.4,0,0.6c0,0.1-0.1,0.1-0.1,0.2
		c-0.2,0.2-0.6,0.1-0.7-0.1l-7.1-9.8c-0.2-0.2-0.1-0.6,0.1-0.7C29.3,50,29.6,50,29.8,50.3z"/>
	<path class="st0" d="M41.3,38.8l5.8,5.5c0.1,0.1,0.2,0.2,0.2,0.4l0,1.9c0,0.1,0,0.3-0.1,0.4l-3.4,3.6c-0.2,0.2-0.5,0.2-0.7,0
		l-7.8-7.4c-0.2-0.2-0.2-0.5,0-0.7l3.4-3.6c0.1-0.1,0.2-0.2,0.4-0.2l1.9,0C41.1,38.7,41.2,38.7,41.3,38.8z M40.8,39.7l-1.5,0l-2.9,3
		l7,6.7l2.9-3l0-1.5L40.8,39.7z"/>
	<path class="st0" d="M48.3,30.9l6.9,8.4c0.2,0.2,0.1,0.6-0.1,0.7c-0.2,0.2-0.6,0.1-0.7-0.1l-2.9-3.5l-7.3-0.6l6.1,7.5
		c0.2,0.2,0.1,0.6-0.1,0.7s-0.6,0.1-0.7-0.1l-6.9-8.4c-0.1-0.2-0.2-0.4-0.1-0.6c0.1-0.2,0.3-0.3,0.5-0.3l7.5,0.6l-3.1-3.8
		c-0.2-0.2-0.1-0.6,0.1-0.7S48.1,30.7,48.3,30.9z"/>
	<path class="st0" d="M57.2,25.1l2.9,4.6c0,0.1,0.1,0.2,0.1,0.3l0.2,6.2c0,0.2-0.1,0.4-0.2,0.5c-0.2,0.1-0.4,0.1-0.5,0l-5.5-2.9
		c-0.1,0-0.2-0.1-0.2-0.2L51,29c-0.2-0.2-0.1-0.6,0.2-0.7s0.6-0.1,0.7,0.2l2.8,4.5l4.6,2.4l-0.2-5.2l-2.8-4.5
		c-0.2-0.2-0.1-0.6,0.2-0.7S57.1,24.8,57.2,25.1z"/>
	<path class="st0" d="M69.1,26.8l1.7,3.6c0.1,0.3,0,0.6-0.2,0.7c-0.3,0.1-0.6,0-0.7-0.2l-1.6-3.4l-1.6-0.6l-3.1,1.5l2.1,4.5
		c0.1,0.3,0,0.6-0.2,0.7c-0.3,0.1-0.6,0-0.7-0.2l-4.7-9.8c-0.1-0.3,0-0.6,0.2-0.7l3.8-1.8c0.1-0.1,0.3-0.1,0.4,0l1.8,0.7
		c0.1,0,0.2,0.1,0.3,0.3l1.1,2.4c0.1,0.1,0.1,0.3,0,0.4L67.3,26l1.5,0.5C68.9,26.6,69.1,26.7,69.1,26.8z M66.2,25.9l0.5-1.4l-0.9-2
		L64.4,22l-3.1,1.5l1.9,3.9L66.2,25.9z"/>
	<path class="st0" d="M80.1,16.4l-1.9,11.9c0,0.2-0.2,0.4-0.4,0.4c-0.1,0-0.1,0-0.2,0c-0.3,0-0.5-0.3-0.4-0.6l1.9-11.9
		c0-0.3,0.3-0.5,0.6-0.4C80,15.9,80.2,16.2,80.1,16.4z M85.6,15.2l-1.9,11.9c0,0.2-0.2,0.4-0.4,0.4c-0.1,0-0.1,0-0.2,0
		c-0.3,0-0.5-0.3-0.4-0.6L84.5,15c0-0.3,0.3-0.5,0.6-0.4C85.4,14.6,85.6,14.9,85.6,15.2z"/>
</g>
</svg>
