<svg xmlns="http://www.w3.org/2000/svg" viewBox="0 0 80.06 80.03"><title>Asset 1dd</title><g id="Layer_2" data-name="Layer 2"><g id="Layer_1-2" data-name="Layer 1"><rect x="0.08" y="24.99" width="79.93" height="5"/><rect x="4.98" y="49.97" width="34.93" height="10.05"/><rect x="0.13" y="65.02" width="79.94" height="5"/><rect x="40.16" y="15.01" width="5" height="5"/><rect x="55" y="15.01" width="5" height="5"/><rect x="30.04" y="9.96" width="5" height="5"/><rect x="20.03" y="15.01" width="5" height="5"/><rect x="75" y="19.98" width="5" height="5"/><rect x="70.03" y="15.01" width="5" height="5"/><rect x="64.98" y="10.04" width="5" height="5"/><rect x="60.05" y="5.01" width="5" height="5"/><rect x="55.09" y="4.99" width="5" height="5"/><rect x="0.03" y="19.98" width="5" height="5"/><rect x="4.99" y="15.01" width="5" height="5"/><rect x="10.04" y="10.04" width="5" height="5"/><rect x="14.97" y="5.01" width="5" height="5"/><rect x="19.94" y="4.99" width="5" height="5"/><rect x="25.07" width="29.94" height="5"/><rect x="39.92" y="49.99" width="5" height="5"/><rect x="39.92" y="55.01" width="5" height="5"/><rect x="44.97" y="55.01" width="5" height="5"/><rect x="60.04" y="49.99" width="19.91" height="5"/><rect x="54.99" y="55.01" width="19.91" height="5"/><rect y="35.01" width="9.99" height="5"/><rect x="10.17" y="39.98" width="15.06" height="5"/><rect x="25.07" y="35.01" width="15.06" height="5"/><rect x="40.06" y="40.06" width="15.06" height="5"/><rect x="55.04" y="34.93" width="15.06" height="5"/><rect x="70.03" y="39.98" width="10.01" height="5"/><rect x="0.14" y="69.98" width="5" height="5"/><rect x="0.02" y="50.03" width="5" height="5"/><rect x="75.03" y="69.98" width="5" height="5"/><rect x="5.03" y="75.03" width="70.07" height="5"/></g></g></svg>