<svg xmlns="http://www.w3.org/2000/svg" viewBox="0 0 80 80"><title>Asset 2dd</title><g id="Layer_2" data-name="Layer 2"><g id="Layer_1-2" data-name="Layer 1"><rect x="75" y="25" width="5" height="30" transform="translate(155 80) rotate(-180)"/><polygon points="10 15 15 15 15 10 10 10 10 15 5 15 5 25 10 25 10 15"/><rect x="20" y="25" width="10" height="10"/><rect x="45" y="25" width="10" height="10"/><rect x="35" y="40" width="5" height="5"/><polygon points="60 60 55 60 55 55 50 55 50 50 30 50 30 55 25 55 25 60 55 60 55 65 60 65 60 60"/><rect x="20" y="60" width="5" height="5"/><rect x="15" y="5" width="10" height="5"/><polygon points="70 15 70 10 65 10 65 15 70 15 70 25 75 25 75 15 70 15"/><rect x="55" y="5" width="10" height="5"/><polygon points="70 65 65 65 65 70 70 70 70 65 75 65 75 55 70 55 70 65"/><rect x="55" y="70" width="10" height="5"/><polygon points="10 55 5 55 5 25 0 25 0 55 5 55 5 65 10 65 10 70 15 70 15 65 10 65 10 55"/><rect x="15" y="70" width="10" height="5"/><rect x="25" width="30" height="5"/><rect x="25" y="75" width="30" height="5"/></g></g></svg>