<svg xmlns="http://www.w3.org/2000/svg" viewBox="0 0 63.84 121.88"><defs><style>.cls-1{fill:#fff;}</style></defs><title>Asset 12dvlp_site_icons</title><g id="Layer_2" data-name="Layer 2"><g id="Layer_1-2" data-name="Layer 1"><polygon class="cls-1" points="52.24 63.84 46.43 63.84 40.63 63.84 34.82 63.84 34.82 69.65 34.82 75.45 34.82 81.25 34.82 87.06 34.82 92.86 34.82 98.67 34.82 104.47 34.82 110.28 34.82 116.08 34.82 121.88 40.63 121.88 40.63 116.08 40.63 110.28 40.63 104.47 40.63 98.67 40.63 92.86 40.63 87.06 40.63 81.25 40.63 75.45 40.63 69.65 46.43 69.65 52.24 69.65 58.04 69.65 58.04 63.84 58.04 58.04 52.24 58.04 52.24 63.84"/><polygon class="cls-1" points="58.04 46.43 52.24 46.43 46.43 46.43 40.63 46.43 40.63 40.63 40.63 34.82 40.63 29.02 34.82 29.02 34.82 34.82 34.82 40.63 34.82 46.43 34.82 52.24 40.63 52.24 46.43 52.24 52.24 52.24 58.04 52.24 58.04 58.04 63.84 58.04 63.84 52.24 63.84 46.43 58.04 46.43"/><polygon class="cls-1" points="58.04 23.22 58.04 17.41 58.04 11.61 58.04 5.8 58.04 0 52.24 0 46.43 0 40.63 0 34.82 0 29.02 0 29.02 5.8 34.82 5.8 40.63 5.8 46.43 5.8 52.24 5.8 52.24 11.61 52.24 17.41 46.43 17.41 46.43 23.22 52.24 23.22 58.04 23.22"/><rect class="cls-1" x="40.63" y="23.22" width="5.8" height="5.8"/><rect class="cls-1" x="23.22" y="5.8" width="5.8" height="5.8"/><polygon class="cls-1" points="17.41 17.41 17.41 23.22 17.41 29.02 17.41 34.82 17.41 40.63 17.41 46.43 11.61 46.43 5.8 46.43 0 46.43 0 52.24 0 58.04 0 63.84 0 69.65 5.8 69.65 11.61 69.65 17.41 69.65 17.41 75.45 17.41 81.25 17.41 87.06 17.41 92.86 17.41 98.67 17.41 104.47 17.41 110.28 17.41 116.08 17.41 121.88 23.22 121.88 23.22 116.08 23.22 110.28 23.22 104.47 23.22 98.67 23.22 92.86 23.22 87.06 23.22 81.25 23.22 75.45 23.22 69.65 23.22 63.84 17.41 63.84 11.61 63.84 5.8 63.84 5.8 58.04 5.8 52.24 11.61 52.24 17.41 52.24 23.22 52.24 23.22 46.43 23.22 40.63 23.22 34.82 23.22 29.02 23.22 23.22 23.22 17.41 23.22 11.61 17.41 11.61 17.41 17.41"/></g></g></svg>