<svg xmlns="http://www.w3.org/2000/svg" viewBox="0 0 121.72 121.96"><defs><style>.cls-1{fill:#fff;}</style></defs><title>Asset 15dvlp_site_icons</title><g id="Layer_2" data-name="Layer 2"><g id="Layer_1-2" data-name="Layer 1"><rect class="cls-1" x="26.07" y="74.15" width="8.71" height="8.71"/><rect class="cls-1" x="34.78" y="82.83" width="8.71" height="8.71"/><rect class="cls-1" x="43.48" y="91.51" width="8.71" height="8.71"/><rect class="cls-1" x="52.19" y="91.51" width="8.71" height="8.71"/><rect class="cls-1" x="78.32" y="74.15" width="8.71" height="8.71"/><rect class="cls-1" x="60.9" y="91.51" width="8.71" height="8.71"/><rect class="cls-1" x="43.48" y="82.83" width="8.71" height="8.71"/><rect class="cls-1" x="52.19" y="82.83" width="8.71" height="8.71"/><rect class="cls-1" x="60.9" y="82.83" width="8.71" height="8.71"/><rect class="cls-1" x="43.48" y="113.25" width="8.71" height="8.71"/><rect class="cls-1" x="52.19" y="113.25" width="8.71" height="8.71"/><rect class="cls-1" x="60.9" y="113.25" width="8.71" height="8.71"/><rect class="cls-1" x="69.61" y="113.25" width="8.71" height="8.71"/><rect class="cls-1" y="43.51" width="8.71" height="8.71" transform="translate(52.22 43.51) rotate(90)"/><rect class="cls-1" y="52.22" width="8.71" height="8.71" transform="translate(60.93 52.22) rotate(90)"/><rect class="cls-1" y="60.93" width="8.71" height="8.71" transform="translate(69.64 60.93) rotate(90)"/><rect class="cls-1" y="69.64" width="8.71" height="8.71" transform="translate(78.35 69.64) rotate(90)"/><rect class="cls-1" x="78.32" y="104.24" width="8.71" height="8.71"/><rect class="cls-1" x="87.03" y="104.24" width="8.71" height="8.71"/><rect class="cls-1" x="95.74" y="95.5" width="8.71" height="8.71"/><rect class="cls-1" x="34.78" y="104.24" width="8.71" height="8.71" transform="translate(78.26 217.19) rotate(-180)"/><rect class="cls-1" x="26.07" y="104.24" width="8.71" height="8.71" transform="translate(60.84 217.19) rotate(-180)"/><rect class="cls-1" x="17.36" y="95.5" width="8.71" height="8.71" transform="translate(43.42 199.71) rotate(-180)"/><rect class="cls-1" x="8.71" y="86.88" width="8.71" height="8.71" transform="translate(26.13 182.47) rotate(-180)"/><rect class="cls-1" x="8.71" y="78.26" width="8.71" height="8.71" transform="translate(26.13 165.23) rotate(-180)"/><rect class="cls-1" x="104.45" y="86.88" width="8.71" height="8.71" transform="translate(217.6 182.47) rotate(-180)"/><rect class="cls-1" x="104.45" y="78.26" width="8.71" height="8.71" transform="translate(217.6 165.23) rotate(-180)"/><rect class="cls-1" x="69.47" width="8.71" height="8.71" transform="translate(147.64 8.71) rotate(180)"/><rect class="cls-1" x="60.76" width="8.71" height="8.71" transform="translate(130.22 8.71) rotate(180)"/><rect class="cls-1" x="52.05" width="8.71" height="8.71" transform="translate(112.8 8.71) rotate(180)"/><rect class="cls-1" x="43.34" width="8.71" height="8.71" transform="translate(95.39 8.71) rotate(180)"/><rect class="cls-1" x="8.71" y="34.75" width="8.71" height="8.71" transform="translate(-26.04 52.16) rotate(-90)"/><rect class="cls-1" x="8.71" y="26.04" width="8.71" height="8.71" transform="translate(-17.33 43.45) rotate(-90)"/><rect class="cls-1" x="17.48" y="17.33" width="8.71" height="8.71" transform="translate(0.15 43.51) rotate(-90)"/><rect class="cls-1" x="26.1" y="8.68" width="8.71" height="8.71" transform="translate(17.42 43.49) rotate(-90)"/><rect class="cls-1" x="34.72" y="8.68" width="8.71" height="8.71" transform="translate(26.04 52.11) rotate(-90)"/><rect class="cls-1" x="113.01" y="69.38" width="8.71" height="8.71" transform="translate(43.64 191.09) rotate(-90)"/><rect class="cls-1" x="113.01" y="60.67" width="8.71" height="8.71" transform="translate(52.34 182.39) rotate(-90)"/><rect class="cls-1" x="113.01" y="51.96" width="8.71" height="8.71" transform="translate(61.05 173.68) rotate(-90)"/><rect class="cls-1" x="113.01" y="43.25" width="8.71" height="8.71" transform="translate(69.76 164.97) rotate(-90)"/><rect class="cls-1" x="78.23" y="8.68" width="8.71" height="8.71"/><rect class="cls-1" x="86.94" y="8.68" width="8.71" height="8.71"/><rect class="cls-1" x="95.65" y="17.39" width="8.71" height="8.71"/><rect class="cls-1" x="104.27" y="26.01" width="8.71" height="8.71"/><rect class="cls-1" x="104.27" y="34.63" width="8.71" height="8.71"/><rect class="cls-1" x="27.03" y="43.33" width="8.71" height="8.71"/><rect class="cls-1" x="35.73" y="43.33" width="8.71" height="8.71"/><rect class="cls-1" x="27.03" y="34.75" width="8.71" height="8.71"/><rect class="cls-1" x="35.73" y="34.75" width="8.71" height="8.71"/><rect class="cls-1" x="65.26" y="43.33" width="8.71" height="8.71"/><rect class="cls-1" x="73.97" y="43.33" width="8.71" height="8.71"/><rect class="cls-1" x="50.51" y="58.76" width="8.71" height="8.71"/><rect class="cls-1" x="65.26" y="34.56" width="8.71" height="8.71"/><rect class="cls-1" x="73.97" y="34.56" width="8.71" height="8.71"/><rect class="cls-1" x="69.61" y="82.83" width="8.71" height="8.71"/></g></g></svg>