<svg xmlns="http://www.w3.org/2000/svg" viewBox="0 0 121.88 121.88"><defs><style>.cls-1{fill:#fff;}</style></defs><title>Asset 9dvlp_site_icons</title><g id="Layer_2" data-name="Layer 2"><g id="Layer_1-2" data-name="Layer 1"><polygon class="cls-1" points="116.08 23.22 116.08 29.02 116.08 34.82 116.08 40.63 116.08 46.43 116.08 52.24 116.08 58.04 116.08 63.84 116.08 69.65 116.08 75.45 116.08 81.25 116.08 87.06 116.08 98.67 121.88 98.67 121.88 87.06 121.88 81.25 121.88 75.45 121.88 69.65 121.88 63.84 121.88 58.04 121.88 52.24 121.88 46.43 121.88 40.63 121.88 34.82 121.88 29.02 121.88 23.22 116.08 23.22"/><polygon class="cls-1" points="92.86 23.22 87.06 23.22 87.06 29.02 87.06 34.82 92.86 34.82 92.86 29.02 92.86 23.22"/><rect class="cls-1" x="92.86" y="17.41" width="5.8" height="5.8"/><polygon class="cls-1" points="98.67 29.02 98.67 34.82 104.47 34.82 104.47 29.02 104.47 23.22 98.67 23.22 98.67 29.02"/><rect class="cls-1" x="92.86" y="34.82" width="5.8" height="5.8"/><rect class="cls-1" x="87.06" y="58.04" width="5.8" height="5.8"/><polygon class="cls-1" points="81.26 69.65 81.26 75.45 87.06 75.45 87.06 69.65 87.06 63.84 81.26 63.84 81.26 69.65"/><rect class="cls-1" x="75.45" y="75.45" width="5.8" height="5.8"/><polygon class="cls-1" points="63.84 81.25 63.84 87.06 69.65 87.06 75.45 87.06 75.45 81.25 69.65 81.25 63.84 81.25"/><polygon class="cls-1" points="52.24 81.25 46.43 81.25 46.43 87.06 52.24 87.06 58.04 87.06 58.04 81.25 52.24 81.25"/><polygon class="cls-1" points="81.26 58.04 87.06 58.04 87.06 52.24 87.06 46.43 81.26 46.43 81.26 52.24 81.26 58.04"/><rect class="cls-1" x="75.45" y="40.63" width="5.8" height="5.8"/><polygon class="cls-1" points="69.65 40.63 75.45 40.63 75.45 34.82 69.65 34.82 63.84 34.82 63.84 40.63 69.65 40.63"/><rect class="cls-1" x="58.04" y="29.02" width="5.8" height="5.8"/><polygon class="cls-1" points="58.04 40.63 58.04 34.82 52.24 34.82 46.43 34.82 46.43 40.63 52.24 40.63 58.04 40.63"/><polygon class="cls-1" points="40.63 52.24 40.63 46.43 34.82 46.43 34.82 52.24 34.82 58.04 40.63 58.04 40.63 52.24"/><rect class="cls-1" x="40.63" y="40.63" width="5.8" height="5.8"/><rect class="cls-1" x="29.02" y="58.04" width="5.8" height="5.8"/><polygon class="cls-1" points="40.63 63.84 34.82 63.84 34.82 69.65 34.82 75.45 40.63 75.45 40.63 69.65 40.63 63.84"/><rect class="cls-1" x="40.63" y="75.45" width="5.8" height="5.8"/><rect class="cls-1" x="58.04" y="87.06" width="5.8" height="5.8"/><polygon class="cls-1" points="104.47 11.61 104.47 17.41 110.28 17.41 110.28 23.22 116.08 23.22 116.08 17.41 116.08 11.61 110.28 11.61 110.28 5.8 104.47 5.8 98.67 5.8 98.67 11.61 104.47 11.61"/><polygon class="cls-1" points="87.06 116.08 81.26 116.08 75.45 116.08 69.65 116.08 63.84 116.08 58.04 116.08 52.24 116.08 46.43 116.08 40.63 116.08 34.82 116.08 29.02 116.08 23.22 116.08 23.22 121.88 29.02 121.88 34.82 121.88 40.63 121.88 46.43 121.88 52.24 121.88 58.04 121.88 63.84 121.88 69.65 121.88 75.45 121.88 81.26 121.88 87.06 121.88 92.86 121.88 98.67 121.88 98.67 116.08 92.86 116.08 87.06 116.08"/><polygon class="cls-1" points="110.28 104.47 104.47 104.47 104.47 110.28 98.67 110.28 98.67 116.08 104.47 116.08 110.28 116.08 110.28 110.28 116.08 110.28 116.08 104.47 116.08 98.67 110.28 98.67 110.28 104.47"/><polygon class="cls-1" points="5.8 87.06 5.8 81.25 5.8 75.45 5.8 69.65 5.8 63.84 5.8 58.04 5.8 52.24 5.8 46.43 5.8 40.63 5.8 34.82 5.8 23.22 0 23.22 0 34.82 0 40.63 0 46.43 0 52.24 0 58.04 0 63.84 0 69.65 0 75.45 0 81.25 0 87.06 0 92.86 0 98.67 5.8 98.67 5.8 92.86 5.8 87.06"/><polygon class="cls-1" points="17.41 110.28 17.41 104.47 11.61 104.47 11.61 98.67 5.8 98.67 5.8 104.47 5.8 110.28 11.61 110.28 11.61 116.08 17.41 116.08 23.22 116.08 23.22 110.28 17.41 110.28"/><polygon class="cls-1" points="11.61 17.41 17.41 17.41 17.41 11.61 23.22 11.61 23.22 5.8 17.41 5.8 11.61 5.8 11.61 11.61 5.8 11.61 5.8 17.41 5.8 23.22 11.61 23.22 11.61 17.41"/><polygon class="cls-1" points="34.82 5.8 40.63 5.8 46.43 5.8 52.24 5.8 58.04 5.8 63.84 5.8 69.65 5.8 75.45 5.8 81.26 5.8 87.06 5.8 92.86 5.8 98.67 5.8 98.67 0 92.86 0 87.06 0 81.26 0 75.45 0 69.65 0 63.84 0 58.04 0 52.24 0 46.43 0 40.63 0 34.82 0 29.02 0 23.22 0 23.22 5.8 29.02 5.8 34.82 5.8"/></g></g></svg>