<svg xmlns="http://www.w3.org/2000/svg" viewBox="0 0 162.51 121.88"><defs><style>.cls-1{fill:#fff;}</style></defs><title>Asset 13dvlp_site_icons</title><g id="Layer_2" data-name="Layer 2"><g id="Layer_1-2" data-name="Layer 1"><polygon class="cls-1" points="63.84 11.61 58.04 11.61 52.24 11.61 46.43 11.61 40.63 11.61 34.82 11.61 29.02 11.61 23.22 11.61 17.41 11.61 17.41 17.41 17.41 23.22 17.41 29.02 17.41 34.82 17.41 40.63 17.41 46.43 17.41 52.24 17.41 58.04 17.41 63.84 17.41 69.65 17.41 75.45 17.41 81.25 17.41 87.06 17.41 92.86 17.41 98.67 17.41 104.47 23.22 104.47 29.02 104.47 34.82 104.47 40.63 104.47 46.43 104.47 52.24 104.47 58.04 104.47 63.84 104.47 69.65 104.47 75.45 104.47 81.26 104.47 87.06 104.47 92.86 104.47 98.67 104.47 104.47 104.47 110.28 104.47 116.08 104.47 121.88 104.47 127.69 104.47 127.69 98.67 127.69 92.86 121.88 92.86 121.88 98.67 116.08 98.67 110.28 98.67 104.47 98.67 98.67 98.67 92.86 98.67 87.06 98.67 81.26 98.67 75.45 98.67 69.65 98.67 63.84 98.67 58.04 98.67 52.24 98.67 46.43 98.67 40.63 98.67 34.82 98.67 29.02 98.67 23.22 98.67 23.22 92.86 23.22 87.06 23.22 81.25 23.22 75.45 23.22 69.65 23.22 63.84 23.22 58.04 23.22 52.24 23.22 46.43 23.22 40.63 23.22 34.82 23.22 29.02 23.22 23.22 23.22 17.41 29.02 17.41 34.82 17.41 40.63 17.41 46.43 17.41 52.24 17.41 58.04 17.41 63.84 17.41 69.65 17.41 75.45 17.41 75.45 11.61 69.65 11.61 63.84 11.61"/><polygon class="cls-1" points="133.49 87.06 127.69 87.06 127.69 92.86 133.49 92.86 133.49 98.67 133.49 104.47 133.49 110.28 133.49 116.08 127.69 116.08 121.88 116.08 116.08 116.08 110.28 116.08 104.47 116.08 98.67 116.08 92.86 116.08 87.06 116.08 81.26 116.08 75.45 116.08 69.65 116.08 63.84 116.08 58.04 116.08 52.24 116.08 46.43 116.08 40.63 116.08 34.82 116.08 29.02 116.08 23.22 116.08 17.41 116.08 11.61 116.08 5.8 116.08 5.8 110.28 5.8 104.47 5.8 98.67 5.8 92.86 5.8 87.06 5.8 81.25 5.8 75.45 5.8 69.65 5.8 63.84 5.8 58.04 5.8 52.24 5.8 46.43 5.8 40.63 5.8 34.82 5.8 29.02 5.8 23.22 5.8 17.41 5.8 11.61 5.8 5.8 11.61 5.8 17.41 5.8 23.22 5.8 29.02 5.8 34.82 5.8 40.63 5.8 46.43 5.8 52.24 5.8 58.04 5.8 63.84 5.8 69.65 5.8 75.45 5.8 75.45 11.61 81.26 11.61 81.26 5.8 87.06 5.8 87.06 0 81.26 0 75.45 0 69.65 0 63.84 0 58.04 0 52.24 0 46.43 0 40.63 0 34.82 0 29.02 0 23.22 0 17.41 0 11.61 0 5.8 0 0 0 0 5.8 0 11.61 0 17.41 0 23.22 0 29.02 0 34.82 0 40.63 0 46.43 0 52.24 0 58.04 0 63.84 0 69.65 0 75.45 0 81.25 0 87.06 0 92.86 0 98.67 0 104.47 0 110.28 0 116.08 0 121.88 5.8 121.88 11.61 121.88 17.41 121.88 23.22 121.88 29.02 121.88 34.82 121.88 40.63 121.88 46.43 121.88 52.24 121.88 58.04 121.88 63.84 121.88 69.65 121.88 75.45 121.88 81.26 121.88 87.06 121.88 92.86 121.88 98.67 121.88 104.47 121.88 110.28 121.88 116.08 121.88 121.88 121.88 127.69 121.88 133.49 121.88 139.29 121.88 139.29 116.08 139.29 110.28 139.29 104.47 139.29 98.67 139.29 92.86 139.29 87.06 139.29 81.25 133.49 81.25 133.49 87.06"/><polygon class="cls-1" points="110.28 23.22 116.08 23.22 121.88 23.22 127.69 23.22 127.69 17.41 127.69 11.61 133.49 11.61 133.49 5.8 127.69 5.8 127.69 0 121.88 0 121.88 5.8 121.88 11.61 121.88 17.41 116.08 17.41 110.28 17.41 104.47 17.41 98.67 17.41 98.67 23.22 104.47 23.22 110.28 23.22"/><polygon class="cls-1" points="98.67 29.02 98.67 23.22 92.86 23.22 87.06 23.22 87.06 29.02 92.86 29.02 98.67 29.02"/><rect class="cls-1" x="81.26" y="29.02" width="5.8" height="5.8"/><rect class="cls-1" x="75.45" y="34.82" width="5.8" height="5.8"/><rect class="cls-1" x="69.65" y="40.63" width="5.8" height="5.8"/><polygon class="cls-1" points="69.65 52.24 69.65 46.43 63.84 46.43 63.84 52.24 63.84 58.04 69.65 58.04 69.65 52.24"/><polygon class="cls-1" points="63.84 58.04 58.04 58.04 58.04 63.84 58.04 69.65 58.04 75.45 63.84 75.45 63.84 69.65 69.65 69.65 69.65 63.84 63.84 63.84 63.84 58.04"/><rect class="cls-1" x="69.65" y="58.04" width="5.8" height="5.8"/><polygon class="cls-1" points="75.45 52.24 75.45 58.04 81.26 58.04 87.06 58.04 87.06 52.24 81.26 52.24 75.45 52.24"/><polygon class="cls-1" points="127.69 58.04 127.69 52.24 127.69 46.43 121.88 46.43 116.08 46.43 110.28 46.43 104.47 46.43 98.67 46.43 92.86 46.43 87.06 46.43 87.06 52.24 92.86 52.24 98.67 52.24 104.47 52.24 110.28 52.24 116.08 52.24 121.88 52.24 121.88 58.04 121.88 63.84 121.88 69.65 121.88 75.45 127.69 75.45 127.69 69.65 133.49 69.65 133.49 63.84 127.69 63.84 127.69 58.04"/><rect class="cls-1" x="133.49" y="58.04" width="5.8" height="5.8"/><rect class="cls-1" x="139.3" y="52.24" width="5.8" height="5.8"/><rect class="cls-1" x="145.1" y="46.43" width="5.8" height="5.8"/><rect class="cls-1" x="150.9" y="40.63" width="5.8" height="5.8"/><rect class="cls-1" x="156.71" y="34.82" width="5.8" height="5.8"/><rect class="cls-1" x="150.9" y="29.02" width="5.8" height="5.8"/><rect class="cls-1" x="145.1" y="23.22" width="5.8" height="5.8"/><rect class="cls-1" x="139.3" y="17.41" width="5.8" height="5.8"/><rect class="cls-1" x="133.49" y="11.61" width="5.8" height="5.8"/></g></g></svg>