<svg xmlns="http://www.w3.org/2000/svg" viewBox="0 0 118.69 122"><defs><style>.cls-1{fill:#231f20;}</style></defs><title>Asset 6dvlp_site_icons</title><g id="Layer_2" data-name="Layer 2"><g id="Layer_1-2" data-name="Layer 1"><polygon class="cls-1" points="64.69 85.7 55.76 85.7 55.76 91.35 52.82 91.35 52.82 100.28 67.52 100.28 67.52 91.35 64.69 91.35 64.69 85.7"/><rect class="cls-1" x="78.46" y="58.73" width="14.58" height="14.57"/><path class="cls-1" d="M112.23,22.34V17h-5.65V11.3h-5.66V5.65H95.27V0h-72V5.65H17.65V11.3H12V17H6.34v5.38H0V90.15H6.34V95.8H12v5.65H28L28.05,122H91.33V101.45h15.25V95.8h5.65V90.15h6.35l.11-67.81ZM103.3,92.53H81.61v20.72H37.77V92.53H15.27V86.88H9.86v-61h5.41V20.23h5.66V14.57h5.65V8.92H92v5.65h5.65v5.66h5.66v5.65h5.55v61H103.3Z"/><polygon class="cls-1" points="37.91 55.02 28.97 55.02 28.97 61.55 22.44 61.55 22.44 70.48 28.97 70.48 28.97 77.01 37.91 77.01 37.91 70.48 44.44 70.48 44.44 61.55 37.91 61.55 37.91 55.02"/></g></g></svg>