<svg xmlns="http://www.w3.org/2000/svg" viewBox="0 0 145.1 121.88"><defs><style>.cls-1{fill:#fff;}</style></defs><title>Asset 10dvlp_site_icons</title><g id="Layer_2" data-name="Layer 2"><g id="Layer_1-2" data-name="Layer 1"><polygon class="cls-1" points="133.49 46.43 133.49 40.63 133.49 34.82 133.49 29.02 127.69 29.02 127.69 34.82 127.69 40.63 127.69 46.43 127.69 52.24 133.49 52.24 133.49 46.43"/><polygon class="cls-1" points="127.69 63.84 127.69 58.04 127.69 52.24 121.88 52.24 121.88 58.04 121.88 63.84 121.88 69.65 127.69 69.65 127.69 63.84"/><polygon class="cls-1" points="121.88 75.45 121.88 69.65 116.08 69.65 116.08 75.45 116.08 81.25 121.88 81.25 121.88 75.45"/><rect class="cls-1" x="110.28" y="81.26" width="5.8" height="5.8"/><rect class="cls-1" x="104.47" y="87.06" width="5.8" height="5.8"/><rect class="cls-1" x="98.67" y="92.86" width="5.8" height="5.8"/><rect class="cls-1" x="92.86" y="98.67" width="5.8" height="5.8"/><polygon class="cls-1" points="92.86 110.28 92.86 104.47 87.06 104.47 81.26 104.47 81.26 110.28 87.06 110.28 92.86 110.28"/><polygon class="cls-1" points="69.65 116.08 75.45 116.08 81.26 116.08 81.26 110.28 75.45 110.28 69.65 110.28 63.84 110.28 58.04 110.28 58.04 116.08 63.84 116.08 69.65 116.08"/><polygon class="cls-1" points="40.63 121.88 46.43 121.88 52.24 121.88 58.04 121.88 58.04 116.08 52.24 116.08 46.43 116.08 40.63 116.08 34.82 116.08 34.82 121.88 40.63 121.88"/><polygon class="cls-1" points="17.41 104.47 11.61 104.47 5.8 104.47 0 104.47 0 110.28 5.8 110.28 11.61 110.28 11.61 116.08 17.41 116.08 23.22 116.08 29.02 116.08 34.82 116.08 34.82 110.28 29.02 110.28 29.02 104.47 23.22 104.47 17.41 104.47"/><polygon class="cls-1" points="29.02 98.67 29.02 104.47 34.82 104.47 40.63 104.47 40.63 98.67 34.82 98.67 29.02 98.67"/><rect class="cls-1" x="40.63" y="92.86" width="5.8" height="5.8"/><polygon class="cls-1" points="34.82 92.86 40.63 92.86 40.63 87.06 34.82 87.06 29.02 87.06 29.02 92.86 34.82 92.86"/><polygon class="cls-1" points="17.41 75.45 17.41 81.25 23.22 81.25 23.22 87.06 29.02 87.06 29.02 81.25 29.02 75.45 23.22 75.45 17.41 75.45"/><rect class="cls-1" x="29.02" y="69.65" width="5.8" height="5.8"/><polygon class="cls-1" points="23.22 69.65 29.02 69.65 29.02 63.84 23.22 63.84 17.41 63.84 17.41 69.65 23.22 69.65"/><rect class="cls-1" x="11.61" y="58.04" width="5.8" height="5.8"/><polygon class="cls-1" points="11.61 46.43 5.8 46.43 5.8 52.24 5.8 58.04 11.61 58.04 11.61 52.24 17.41 52.24 23.22 52.24 23.22 46.43 23.22 40.63 17.41 40.63 17.41 46.43 11.61 46.43"/><rect class="cls-1" x="11.61" y="34.82" width="5.8" height="5.8"/><polygon class="cls-1" points="11.61 11.61 11.61 5.8 5.8 5.8 5.8 11.61 5.8 17.41 5.8 23.22 5.8 29.02 5.8 34.82 11.61 34.82 11.61 29.02 11.61 23.22 11.61 17.41 17.41 17.41 17.41 11.61 11.61 11.61"/><rect class="cls-1" x="17.41" y="17.41" width="5.8" height="5.8"/><polygon class="cls-1" points="29.02 23.22 23.22 23.22 23.22 29.02 29.02 29.02 34.82 29.02 34.82 23.22 29.02 23.22"/><polygon class="cls-1" points="40.63 29.02 34.82 29.02 34.82 34.82 40.63 34.82 46.43 34.82 46.43 29.02 40.63 29.02"/><polygon class="cls-1" points="58.04 34.82 52.24 34.82 46.43 34.82 46.43 40.63 52.24 40.63 58.04 40.63 63.84 40.63 63.84 34.82 58.04 34.82"/><polygon class="cls-1" points="69.65 29.02 69.65 34.82 69.65 40.63 63.84 40.63 63.84 46.43 69.65 46.43 75.45 46.43 75.45 40.63 75.45 34.82 75.45 29.02 75.45 23.22 69.65 23.22 69.65 29.02"/><polygon class="cls-1" points="75.45 17.41 75.45 23.22 81.26 23.22 81.26 17.41 81.26 11.61 75.45 11.61 75.45 17.41"/><polygon class="cls-1" points="81.26 5.8 81.26 11.61 87.06 11.61 92.86 11.61 92.86 5.8 87.06 5.8 81.26 5.8"/><polygon class="cls-1" points="104.47 0 98.67 0 92.86 0 92.86 5.8 98.67 5.8 104.47 5.8 110.28 5.8 110.28 0 104.47 0"/><polygon class="cls-1" points="116.08 5.8 110.28 5.8 110.28 11.61 116.08 11.61 121.88 11.61 121.88 5.8 116.08 5.8"/><polygon class="cls-1" points="127.69 17.41 133.49 17.41 133.49 11.61 127.69 11.61 121.88 11.61 121.88 17.41 127.69 17.41"/><polygon class="cls-1" points="145.1 11.61 145.1 5.8 139.29 5.8 133.49 5.8 133.49 11.61 139.29 11.61 145.1 11.61"/><rect class="cls-1" x="139.3" y="17.41" width="5.8" height="5.8"/><rect class="cls-1" x="133.49" y="23.22" width="5.8" height="5.8"/></g></g></svg>