<svg xmlns="http://www.w3.org/2000/svg" viewBox="0 0 168.32 121.88"><defs><style>.cls-1{fill:#231f20;}</style></defs><title>Asset 3dvlp_site_icons</title><g id="Layer_2" data-name="Layer 2"><g id="Layer_1-2" data-name="Layer 1"><rect class="cls-1" x="156.71" y="104.47" width="5.8" height="5.8"/><rect class="cls-1" x="150.9" y="110.28" width="5.8" height="5.8"/><rect class="cls-1" x="145.1" y="116.08" width="5.8" height="5.8"/><rect class="cls-1" x="92.86" y="52.24" width="5.8" height="5.8"/><polygon class="cls-1" points="87.06 52.24 92.86 52.24 92.86 46.43 87.06 46.43 81.26 46.43 81.26 52.24 87.06 52.24"/><polygon class="cls-1" points="75.45 46.43 81.26 46.43 81.26 40.63 75.45 40.63 69.65 40.63 69.65 46.43 75.45 46.43"/><rect class="cls-1" x="75.45" y="75.45" width="5.8" height="5.8"/><polygon class="cls-1" points="81.26 69.65 81.26 75.45 87.06 75.45 92.86 75.45 92.86 69.65 87.06 69.65 81.26 69.65"/><polygon class="cls-1" points="92.86 63.84 92.86 69.65 98.67 69.65 104.47 69.65 104.47 63.84 110.28 63.84 110.28 58.04 104.47 58.04 98.67 58.04 98.67 63.84 92.86 63.84"/><polygon class="cls-1" points="58.04 29.02 58.04 34.82 58.04 40.63 58.04 46.43 58.04 52.24 58.04 58.04 58.04 63.84 58.04 69.65 58.04 75.45 58.04 81.26 58.04 87.06 58.04 92.86 63.84 92.86 63.84 87.06 69.65 87.06 75.45 87.06 75.45 81.26 69.65 81.26 63.84 81.26 63.84 75.45 63.84 69.65 63.84 63.84 63.84 58.04 63.84 52.24 63.84 46.43 63.84 40.63 69.65 40.63 69.65 34.82 63.84 34.82 63.84 29.02 58.04 29.02"/><polygon class="cls-1" points="162.51 17.41 162.51 23.22 162.51 29.02 162.51 34.82 162.51 40.63 162.51 46.43 162.51 52.24 162.51 58.04 162.51 63.84 162.51 69.65 162.51 75.45 162.51 81.26 162.51 87.06 162.51 92.86 162.51 98.67 162.51 104.47 168.31 104.47 168.31 98.67 168.31 92.86 168.31 87.06 168.31 81.26 168.31 75.45 168.31 69.65 168.31 63.84 168.31 58.04 168.31 52.24 168.31 46.43 168.31 40.63 168.31 34.82 168.31 29.02 168.31 23.22 168.31 17.41 162.51 17.41"/><rect class="cls-1" x="156.71" y="11.61" width="5.8" height="5.8"/><rect class="cls-1" x="150.9" y="5.8" width="5.8" height="5.8"/><polygon class="cls-1" points="145.1 0 145.1 0 23.22 0 23.22 5.8 145.1 5.8 145.1 5.8 150.9 5.8 150.9 0 145.1 0"/><polygon class="cls-1" points="5.8 92.86 5.8 87.06 5.8 81.26 5.8 75.45 5.8 69.65 5.8 63.84 5.8 58.04 5.8 52.24 5.8 46.43 5.8 40.63 5.8 34.82 5.8 29.02 5.8 23.22 5.8 17.41 0 17.41 0 23.22 0 29.02 0 34.82 0 40.63 0 46.43 0 52.24 0 58.04 0 63.84 0 69.65 0 75.45 0 81.26 0 87.06 0 92.86 0 98.67 0 104.47 5.8 104.47 5.8 98.67 5.8 92.86"/><rect class="cls-1" x="5.8" y="104.47" width="5.8" height="5.8"/><rect class="cls-1" x="5.8" y="11.61" width="5.8" height="5.8"/><rect class="cls-1" x="11.61" y="5.8" width="5.8" height="5.8"/><rect class="cls-1" x="17.41" width="5.8" height="5.8"/><rect class="cls-1" x="11.61" y="110.28" width="5.8" height="5.8"/><polygon class="cls-1" points="23.22 116.08 23.22 116.08 17.41 116.08 17.41 121.88 23.22 121.88 23.22 121.88 145.1 121.88 145.1 116.08 23.22 116.08"/></g></g></svg>